<?xml version="1.0" encoding="UTF-8"?>
<svg xmlns="http://www.w3.org/2000/svg"><g style="stroke: #000000;fill:none;stroke-width: 1;stroke-linejoin:miter;stroke-linecap:butt;stroke-miterlimit: 10;" id="p1_s1"><path d="M63.3000,181.4008 C66.3500,181.4008 68.8500,183.8508 68.8500,186.9008 C68.8500,189.9508 66.3500,192.4508 63.3000,192.4508 C60.2500,192.4508 57.8000,189.9508 57.8000,186.9008 C57.8000,183.8508 60.2500,181.4008 63.3000,181.4008 Z"/></g><clipPath id="p1_s2"><path d="M119.5490,131.4998 L203.9010,131.4998 L203.9010,123.7518 L119.5490,123.7518 L119.5490,131.4998 Z"/></clipPath><clipPath id="p1_s4"><path d="M273.3490,129.5498 L357.0010,129.5498 L357.0010,125.7018 L273.3490,125.7018 L273.3490,129.5498 Z"/></clipPath><clipPath id="p1_s6"><path d="M114.4990,192.4498 L125.5510,192.4498 L125.5510,181.4018 L114.4990,181.4018 L114.4990,192.4498 Z"/></clipPath><clipPath id="p1_s8"><path d="M114.4990,192.4498 L125.5510,192.4498 L125.5510,181.4018 L114.4990,181.4018 L114.4990,192.4498 Z"/></clipPath><clipPath id="p1_s10"><path d="M114.4990,192.4498 L125.5510,192.4498 L125.5510,181.4018 L114.4990,181.4018 L114.4990,192.4498 Z"/></clipPath><clipPath id="p1_s12"><path d="M114.4990,192.4498 L125.5510,192.4498 L125.5510,181.4018 L114.4990,181.4018 L114.4990,192.4498 Z"/></clipPath><clipPath id="p1_s14"><path d="M114.4990,192.4498 L125.5510,192.4498 L125.5510,181.4018 L114.4990,181.4018 L114.4990,192.4498 Z"/></clipPath><clipPath id="p1_s16"><path d="M114.4990,192.4498 L125.5510,192.4498 L125.5510,181.4018 L114.4990,181.4018 L114.4990,192.4498 Z"/></clipPath><clipPath id="p1_s18"><path d="M114.4990,192.4498 L125.5510,192.4498 L125.5510,181.4018 L114.4990,181.4018 L114.4990,192.4498 Z"/></clipPath><clipPath id="p1_s20"><path d="M114.4990,192.4498 L125.5510,192.4498 L125.5510,181.4018 L114.4990,181.4018 L114.4990,192.4498 Z"/></clipPath><clipPath id="p1_s22"><path d="M114.4990,192.4498 L125.5510,192.4498 L125.5510,181.4018 L114.4990,181.4018 L114.4990,192.4498 Z"/></clipPath><clipPath id="p1_s24"><path d="M114.4990,192.4498 L125.5510,192.4498 L125.5510,181.4018 L114.4990,181.4018 L114.4990,192.4498 Z"/></clipPath><clipPath id="p1_s26"><path d="M114.4990,192.4498 L125.5510,192.4498 L125.5510,181.4018 L114.4990,181.4018 L114.4990,192.4498 Z"/></clipPath><clipPath id="p1_s28"><path d="M114.4990,192.4498 L125.5510,192.4498 L125.5510,181.4018 L114.4990,181.4018 L114.4990,192.4498 Z"/></clipPath><clipPath id="p1_s30"><path d="M114.4990,192.4498 L125.5510,192.4498 L125.5510,181.4018 L114.4990,181.4018 L114.4990,192.4498 Z"/></clipPath><clipPath id="p1_s32"><path d="M114.4990,192.4498 L125.5510,192.4498 L125.5510,181.4018 L114.4990,181.4018 L114.4990,192.4498 Z"/></clipPath><clipPath id="p1_s34"><path d="M114.4990,192.4498 L125.5510,192.4498 L125.5510,181.4018 L114.4990,181.4018 L114.4990,192.4498 Z"/></clipPath><clipPath id="p1_s36"><path d="M114.4990,192.4498 L125.5510,192.4498 L125.5510,181.4018 L114.4990,181.4018 L114.4990,192.4498 Z"/></clipPath><clipPath id="p1_s38"><path d="M114.4990,192.4498 L125.5510,192.4498 L125.5510,181.4018 L114.4990,181.4018 L114.4990,192.4498 Z"/></clipPath><clipPath id="p1_s40"><path d="M114.4990,192.4498 L125.5510,192.4498 L125.5510,181.4018 L114.4990,181.4018 L114.4990,192.4498 Z"/></clipPath><clipPath id="p1_s42"><path d="M114.4990,192.4498 L125.5510,192.4498 L125.5510,181.4018 L114.4990,181.4018 L114.4990,192.4498 Z"/></clipPath><clipPath id="p1_s44"><path d="M114.4990,192.4498 L125.5510,192.4498 L125.5510,181.4018 L114.4990,181.4018 L114.4990,192.4498 Z"/></clipPath><clipPath id="p1_s46"><path d="M114.4990,192.4498 L125.5510,192.4498 L125.5510,181.4018 L114.4990,181.4018 L114.4990,192.4498 Z"/></clipPath><clipPath id="p1_s48"><path d="M114.4990,192.4498 L125.5510,192.4498 L125.5510,181.4018 L114.4990,181.4018 L114.4990,192.4498 Z"/></clipPath><clipPath id="p1_s50"><path d="M114.4990,192.4498 L125.5510,192.4498 L125.5510,181.4018 L114.4990,181.4018 L114.4990,192.4498 Z"/></clipPath><clipPath id="p1_s52"><path d="M114.4990,192.4498 L125.5510,192.4498 L125.5510,181.4018 L114.4990,181.4018 L114.4990,192.4498 Z"/></clipPath><clipPath id="p1_s54"><path d="M114.4990,192.4498 L125.5510,192.4498 L125.5510,181.4018 L114.4990,181.4018 L114.4990,192.4498 Z"/></clipPath><clipPath id="p1_s56"><path d="M114.4990,192.4498 L125.5510,192.4498 L125.5510,181.4018 L114.4990,181.4018 L114.4990,192.4498 Z"/></clipPath><clipPath id="p1_s58"><path d="M114.4990,192.4498 L125.5510,192.4498 L125.5510,181.4018 L114.4990,181.4018 L114.4990,192.4498 Z"/></clipPath><clipPath id="p1_s60"><path d="M114.4990,192.4498 L125.5510,192.4498 L125.5510,181.4018 L114.4990,181.4018 L114.4990,192.4498 Z"/></clipPath><clipPath id="p1_s62"><path d="M114.4990,192.4498 L125.5510,192.4498 L125.5510,181.4018 L114.4990,181.4018 L114.4990,192.4498 Z"/></clipPath><clipPath id="p1_s64"><path d="M114.4990,192.4498 L125.5510,192.4498 L125.5510,181.4018 L114.4990,181.4018 L114.4990,192.4498 Z"/></clipPath><clipPath id="p1_s66"><path d="M114.4990,192.4498 L125.5510,192.4498 L125.5510,181.4018 L114.4990,181.4018 L114.4990,192.4498 Z"/></clipPath><clipPath id="p1_s68"><path d="M114.4990,192.4498 L125.5510,192.4498 L125.5510,181.4018 L114.4990,181.4018 L114.4990,192.4498 Z"/></clipPath><clipPath id="p1_s70"><path d="M114.4990,192.4498 L125.5510,192.4498 L125.5510,181.4018 L114.4990,181.4018 L114.4990,192.4498 Z"/></clipPath><clipPath id="p1_s72"><path d="M114.4990,192.4498 L125.5510,192.4498 L125.5510,181.4018 L114.4990,181.4018 L114.4990,192.4498 Z"/></clipPath><clipPath id="p1_s74"><path d="M114.4990,192.4498 L125.5510,192.4498 L125.5510,181.4018 L114.4990,181.4018 L114.4990,192.4498 Z"/></clipPath><clipPath id="p1_s76"><path d="M114.4990,192.4498 L125.5510,192.4498 L125.5510,181.4018 L114.4990,181.4018 L114.4990,192.4498 Z"/></clipPath><clipPath id="p1_s78"><path d="M114.4990,192.4498 L125.5510,192.4498 L125.5510,181.4018 L114.4990,181.4018 L114.4990,192.4498 Z"/></clipPath><clipPath id="p1_s80"><path d="M114.4990,192.4498 L125.5510,192.4498 L125.5510,181.4018 L114.4990,181.4018 L114.4990,192.4498 Z"/></clipPath><clipPath id="p1_s82"><path d="M114.4990,192.4498 L125.5510,192.4498 L125.5510,181.4018 L114.4990,181.4018 L114.4990,192.4498 Z"/></clipPath><clipPath id="p1_s84"><path d="M114.4990,192.4498 L125.5510,192.4498 L125.5510,181.4018 L114.4990,181.4018 L114.4990,192.4498 Z"/></clipPath><clipPath id="p1_s86"><path d="M114.4990,192.4498 L125.5510,192.4498 L125.5510,181.4018 L114.4990,181.4018 L114.4990,192.4498 Z"/></clipPath><clipPath id="p1_s88"><path d="M114.4990,192.4498 L125.5510,192.4498 L125.5510,181.4018 L114.4990,181.4018 L114.4990,192.4498 Z"/></clipPath><clipPath id="p1_s90"><path d="M114.4990,192.4498 L125.5510,192.4498 L125.5510,181.4018 L114.4990,181.4018 L114.4990,192.4498 Z"/></clipPath><clipPath id="p1_s92"><path d="M114.4990,192.4498 L125.5510,192.4498 L125.5510,181.4018 L114.4990,181.4018 L114.4990,192.4498 Z"/></clipPath><clipPath id="p1_s94"><path d="M114.4990,192.4498 L125.5510,192.4498 L125.5510,181.4018 L114.4990,181.4018 L114.4990,192.4498 Z"/></clipPath><clipPath id="p1_s96"><path d="M114.4990,192.4498 L125.5510,192.4498 L125.5510,181.4018 L114.4990,181.4018 L114.4990,192.4498 Z"/></clipPath><clipPath id="p1_s98"><path d="M114.4990,192.4498 L125.5510,192.4498 L125.5510,181.4018 L114.4990,181.4018 L114.4990,192.4498 Z"/></clipPath><clipPath id="p1_s100"><path d="M114.4990,192.4498 L125.5510,192.4498 L125.5510,181.4018 L114.4990,181.4018 L114.4990,192.4498 Z"/></clipPath><clipPath id="p1_s102"><path d="M114.4990,192.4498 L125.5510,192.4498 L125.5510,181.4018 L114.4990,181.4018 L114.4990,192.4498 Z"/></clipPath><clipPath id="p1_s104"><path d="M114.4990,192.4498 L125.5510,192.4498 L125.5510,181.4018 L114.4990,181.4018 L114.4990,192.4498 Z"/></clipPath><clipPath id="p1_s106"><path d="M114.4990,192.4498 L125.5510,192.4498 L125.5510,181.4018 L114.4990,181.4018 L114.4990,192.4498 Z"/></clipPath><clipPath id="p1_s108"><path d="M114.4990,192.4498 L125.5510,192.4498 L125.5510,181.4018 L114.4990,181.4018 L114.4990,192.4498 Z"/></clipPath><clipPath id="p1_s110"><path d="M114.4990,192.4498 L125.5510,192.4498 L125.5510,181.4018 L114.4990,181.4018 L114.4990,192.4498 Z"/></clipPath><clipPath id="p1_s112"><path d="M114.4990,192.4498 L125.5510,192.4498 L125.5510,181.4018 L114.4990,181.4018 L114.4990,192.4498 Z"/></clipPath><clipPath id="p1_s114"><path d="M114.4990,192.4498 L125.5510,192.4498 L125.5510,181.4018 L114.4990,181.4018 L114.4990,192.4498 Z"/></clipPath><clipPath id="p1_s116"><path d="M114.4990,192.4498 L125.5510,192.4498 L125.5510,181.4018 L114.4990,181.4018 L114.4990,192.4498 Z"/></clipPath><clipPath id="p1_s118"><path d="M114.4990,192.4498 L125.5510,192.4498 L125.5510,181.4018 L114.4990,181.4018 L114.4990,192.4498 Z"/></clipPath><clipPath id="p1_s120"><path d="M114.4990,192.4498 L125.5510,192.4498 L125.5510,181.4018 L114.4990,181.4018 L114.4990,192.4498 Z"/></clipPath><clipPath id="p1_s122"><path d="M114.4990,192.4498 L125.5510,192.4498 L125.5510,181.4018 L114.4990,181.4018 L114.4990,192.4498 Z"/></clipPath><clipPath id="p1_s124"><path d="M114.4990,192.4498 L125.5510,192.4498 L125.5510,181.4018 L114.4990,181.4018 L114.4990,192.4498 Z"/></clipPath><clipPath id="p1_s126"><path d="M114.4990,192.4498 L125.5510,192.4498 L125.5510,181.4018 L114.4990,181.4018 L114.4990,192.4498 Z"/></clipPath><clipPath id="p1_s128"><path d="M114.4990,192.4498 L125.5510,192.4498 L125.5510,181.4018 L114.4990,181.4018 L114.4990,192.4498 Z"/></clipPath><clipPath id="p1_s130"><path d="M114.4990,192.4498 L125.5510,192.4498 L125.5510,181.4018 L114.4990,181.4018 L114.4990,192.4498 Z"/></clipPath><clipPath id="p1_s132"><path d="M114.4990,192.4498 L125.5510,192.4498 L125.5510,181.4018 L114.4990,181.4018 L114.4990,192.4498 Z"/></clipPath><clipPath id="p1_s134"><path d="M114.4990,192.4498 L125.5510,192.4498 L125.5510,181.4018 L114.4990,181.4018 L114.4990,192.4498 Z"/></clipPath><clipPath id="p1_s136"><path d="M114.4990,192.4498 L125.5510,192.4498 L125.5510,181.4018 L114.4990,181.4018 L114.4990,192.4498 Z"/></clipPath><clipPath id="p1_s138"><path d="M114.4990,192.4498 L125.5510,192.4498 L125.5510,181.4018 L114.4990,181.4018 L114.4990,192.4498 Z"/></clipPath><clipPath id="p1_s140"><path d="M114.4990,192.4498 L125.5510,192.4498 L125.5510,181.4018 L114.4990,181.4018 L114.4990,192.4498 Z"/></clipPath><clipPath id="p1_s142"><path d="M114.4990,192.4498 L125.5510,192.4498 L125.5510,181.4018 L114.4990,181.4018 L114.4990,192.4498 Z"/></clipPath><clipPath id="p1_s144"><path d="M114.4990,192.4498 L125.5510,192.4498 L125.5510,181.4018 L114.4990,181.4018 L114.4990,192.4498 Z"/></clipPath><clipPath id="p1_s146"><path d="M114.4990,192.4498 L125.5510,192.4498 L125.5510,181.4018 L114.4990,181.4018 L114.4990,192.4498 Z"/></clipPath><clipPath id="p1_s148"><path d="M114.4990,192.4498 L125.5510,192.4498 L125.5510,181.4018 L114.4990,181.4018 L114.4990,192.4498 Z"/></clipPath><clipPath id="p1_s150"><path d="M114.4990,192.4498 L125.5510,192.4498 L125.5510,181.4018 L114.4990,181.4018 L114.4990,192.4498 Z"/></clipPath><clipPath id="p1_s152"><path d="M114.4990,192.4498 L125.5510,192.4498 L125.5510,181.4018 L114.4990,181.4018 L114.4990,192.4498 Z"/></clipPath><clipPath id="p1_s154"><path d="M114.4990,192.4498 L125.5510,192.4498 L125.5510,181.4018 L114.4990,181.4018 L114.4990,192.4498 Z"/></clipPath><clipPath id="p1_s156"><path d="M114.4990,192.4498 L125.5510,192.4498 L125.5510,181.4018 L114.4990,181.4018 L114.4990,192.4498 Z"/></clipPath><clipPath id="p1_s158"><path d="M114.4990,192.4498 L125.5510,192.4498 L125.5510,181.4018 L114.4990,181.4018 L114.4990,192.4498 Z"/></clipPath><clipPath id="p1_s160"><path d="M114.4990,192.4498 L125.5510,192.4498 L125.5510,181.4018 L114.4990,181.4018 L114.4990,192.4498 Z"/></clipPath><clipPath id="p1_s162"><path d="M114.4990,192.4498 L125.5510,192.4498 L125.5510,181.4018 L114.4990,181.4018 L114.4990,192.4498 Z"/></clipPath><clipPath id="p1_s164"><path d="M114.4990,192.4498 L125.5510,192.4498 L125.5510,181.4018 L114.4990,181.4018 L114.4990,192.4498 Z"/></clipPath><clipPath id="p1_s166"><path d="M114.4990,192.4498 L125.5510,192.4498 L125.5510,181.4018 L114.4990,181.4018 L114.4990,192.4498 Z"/></clipPath><clipPath id="p1_s168"><path d="M114.4990,192.4498 L125.5510,192.4498 L125.5510,181.4018 L114.4990,181.4018 L114.4990,192.4498 Z"/></clipPath><clipPath id="p1_s170"><path d="M114.4990,192.4498 L125.5510,192.4498 L125.5510,181.4018 L114.4990,181.4018 L114.4990,192.4498 Z"/></clipPath><clipPath id="p1_s172"><path d="M114.4990,192.4498 L125.5510,192.4498 L125.5510,181.4018 L114.4990,181.4018 L114.4990,192.4498 Z"/></clipPath><clipPath id="p1_s174"><path d="M114.4990,192.4498 L125.5510,192.4498 L125.5510,181.4018 L114.4990,181.4018 L114.4990,192.4498 Z"/></clipPath><clipPath id="p1_s176"><path d="M114.4990,192.4498 L125.5510,192.4498 L125.5510,181.4018 L114.4990,181.4018 L114.4990,192.4498 Z"/></clipPath><clipPath id="p1_s178"><path d="M114.4990,192.4498 L125.5510,192.4498 L125.5510,181.4018 L114.4990,181.4018 L114.4990,192.4498 Z"/></clipPath><clipPath id="p1_s180"><path d="M114.4990,192.4498 L125.5510,192.4498 L125.5510,181.4018 L114.4990,181.4018 L114.4990,192.4498 Z"/></clipPath><clipPath id="p1_s182"><path d="M114.4990,192.4498 L125.5510,192.4498 L125.5510,181.4018 L114.4990,181.4018 L114.4990,192.4498 Z"/></clipPath><clipPath id="p1_s184"><path d="M114.4990,192.4498 L125.5510,192.4498 L125.5510,181.4018 L114.4990,181.4018 L114.4990,192.4498 Z"/></clipPath><clipPath id="p1_s186"><path d="M114.4990,192.4498 L125.5510,192.4498 L125.5510,181.4018 L114.4990,181.4018 L114.4990,192.4498 Z"/></clipPath><clipPath id="p1_s188"><path d="M114.4990,192.4498 L125.5510,192.4498 L125.5510,181.4018 L114.4990,181.4018 L114.4990,192.4498 Z"/></clipPath><clipPath id="p1_s190"><path d="M114.4990,192.4498 L125.5510,192.4498 L125.5510,181.4018 L114.4990,181.4018 L114.4990,192.4498 Z"/></clipPath><clipPath id="p1_s192"><path d="M114.4990,192.4498 L125.5510,192.4498 L125.5510,181.4018 L114.4990,181.4018 L114.4990,192.4498 Z"/></clipPath><clipPath id="p1_s194"><path d="M114.4990,192.4498 L125.5510,192.4498 L125.5510,181.4018 L114.4990,181.4018 L114.4990,192.4498 Z"/></clipPath><clipPath id="p1_s196"><path d="M114.4990,192.4498 L125.5510,192.4498 L125.5510,181.4018 L114.4990,181.4018 L114.4990,192.4498 Z"/></clipPath><clipPath id="p1_s198"><path d="M114.4990,192.4498 L125.5510,192.4498 L125.5510,181.4018 L114.4990,181.4018 L114.4990,192.4498 Z"/></clipPath><clipPath id="p1_s200"><path d="M114.4990,192.4498 L125.5510,192.4498 L125.5510,181.4018 L114.4990,181.4018 L114.4990,192.4498 Z"/></clipPath><clipPath id="p1_s202"><path d="M114.4990,192.4498 L125.5510,192.4498 L125.5510,181.4018 L114.4990,181.4018 L114.4990,192.4498 Z"/></clipPath><clipPath id="p1_s204"><path d="M114.4990,192.4498 L125.5510,192.4498 L125.5510,181.4018 L114.4990,181.4018 L114.4990,192.4498 Z"/></clipPath><clipPath id="p1_s206"><path d="M114.4990,192.4498 L125.5510,192.4498 L125.5510,181.4018 L114.4990,181.4018 L114.4990,192.4498 Z"/></clipPath><clipPath id="p1_s208"><path d="M114.4990,192.4498 L125.5510,192.4498 L125.5510,181.4018 L114.4990,181.4018 L114.4990,192.4498 Z"/></clipPath><clipPath id="p1_s210"><path d="M114.4990,192.4498 L125.5510,192.4498 L125.5510,181.4018 L114.4990,181.4018 L114.4990,192.4498 Z"/></clipPath><clipPath id="p1_s212"><path d="M114.4990,192.4498 L125.5510,192.4498 L125.5510,181.4018 L114.4990,181.4018 L114.4990,192.4498 Z"/></clipPath><clipPath id="p1_s214"><path d="M114.4990,192.4498 L125.5510,192.4498 L125.5510,181.4018 L114.4990,181.4018 L114.4990,192.4498 Z"/></clipPath><clipPath id="p1_s216"><path d="M114.4990,192.4498 L125.5510,192.4498 L125.5510,181.4018 L114.4990,181.4018 L114.4990,192.4498 Z"/></clipPath><clipPath id="p1_s218"><path d="M114.4990,192.4498 L125.5510,192.4498 L125.5510,181.4018 L114.4990,181.4018 L114.4990,192.4498 Z"/></clipPath><clipPath id="p1_s220"><path d="M114.4990,192.4498 L125.5510,192.4498 L125.5510,181.4018 L114.4990,181.4018 L114.4990,192.4498 Z"/></clipPath><clipPath id="p1_s222"><path d="M114.4990,192.4498 L125.5510,192.4498 L125.5510,181.4018 L114.4990,181.4018 L114.4990,192.4498 Z"/></clipPath><clipPath id="p1_s224"><path d="M114.4990,192.4498 L125.5510,192.4498 L125.5510,181.4018 L114.4990,181.4018 L114.4990,192.4498 Z"/></clipPath><clipPath id="p1_s226"><path d="M114.4990,192.4498 L125.5510,192.4498 L125.5510,181.4018 L114.4990,181.4018 L114.4990,192.4498 Z"/></clipPath><clipPath id="p1_s228"><path d="M114.4990,192.4498 L125.5510,192.4498 L125.5510,181.4018 L114.4990,181.4018 L114.4990,192.4498 Z"/></clipPath><clipPath id="p1_s230"><path d="M114.4990,192.4498 L125.5510,192.4498 L125.5510,181.4018 L114.4990,181.4018 L114.4990,192.4498 Z"/></clipPath><clipPath id="p1_s232"><path d="M114.4990,192.4498 L125.5510,192.4498 L125.5510,181.4018 L114.4990,181.4018 L114.4990,192.4498 Z"/></clipPath><clipPath id="p1_s234"><path d="M114.4990,192.4498 L125.5510,192.4498 L125.5510,181.4018 L114.4990,181.4018 L114.4990,192.4498 Z"/></clipPath><clipPath id="p1_s236"><path d="M114.4990,192.4498 L125.5510,192.4498 L125.5510,181.4018 L114.4990,181.4018 L114.4990,192.4498 Z"/></clipPath><clipPath id="p1_s238"><path d="M114.4990,192.4498 L125.5510,192.4498 L125.5510,181.4018 L114.4990,181.4018 L114.4990,192.4498 Z"/></clipPath><clipPath id="p1_s240"><path d="M114.4990,192.4498 L125.5510,192.4498 L125.5510,181.4018 L114.4990,181.4018 L114.4990,192.4498 Z"/></clipPath><clipPath id="p1_s242"><path d="M114.4990,192.4498 L125.5510,192.4498 L125.5510,181.4018 L114.4990,181.4018 L114.4990,192.4498 Z"/></clipPath><clipPath id="p1_s244"><path d="M114.4990,192.4498 L125.5510,192.4498 L125.5510,181.4018 L114.4990,181.4018 L114.4990,192.4498 Z"/></clipPath><clipPath id="p1_s246"><path d="M114.4990,192.4498 L125.5510,192.4498 L125.5510,181.4018 L114.4990,181.4018 L114.4990,192.4498 Z"/></clipPath><clipPath id="p1_s248"><path d="M114.4990,192.4498 L125.5510,192.4498 L125.5510,181.4018 L114.4990,181.4018 L114.4990,192.4498 Z"/></clipPath><clipPath id="p1_s250"><path d="M114.4990,192.4498 L125.5510,192.4498 L125.5510,181.4018 L114.4990,181.4018 L114.4990,192.4498 Z"/></clipPath><clipPath id="p1_s252"><path d="M114.4990,192.4498 L125.5510,192.4498 L125.5510,181.4018 L114.4990,181.4018 L114.4990,192.4498 Z"/></clipPath><clipPath id="p1_s254"><path d="M114.4990,192.4498 L125.5510,192.4498 L125.5510,181.4018 L114.4990,181.4018 L114.4990,192.4498 Z"/></clipPath><clipPath id="p1_s256"><path d="M114.4990,192.4498 L125.5510,192.4498 L125.5510,181.4018 L114.4990,181.4018 L114.4990,192.4498 Z"/></clipPath><clipPath id="p1_s258"><path d="M114.4990,192.4498 L125.5510,192.4498 L125.5510,181.4018 L114.4990,181.4018 L114.4990,192.4498 Z"/></clipPath><clipPath id="p1_s260"><path d="M114.4990,192.4498 L125.5510,192.4498 L125.5510,181.4018 L114.4990,181.4018 L114.4990,192.4498 Z"/></clipPath><clipPath id="p1_s262"><path d="M114.4990,192.4498 L125.5510,192.4498 L125.5510,181.4018 L114.4990,181.4018 L114.4990,192.4498 Z"/></clipPath><clipPath id="p1_s264"><path d="M114.4990,192.4498 L125.5510,192.4498 L125.5510,181.4018 L114.4990,181.4018 L114.4990,192.4498 Z"/></clipPath><clipPath id="p1_s266"><path d="M114.4990,192.4498 L125.5510,192.4498 L125.5510,181.4018 L114.4990,181.4018 L114.4990,192.4498 Z"/></clipPath><clipPath id="p1_s268"><path d="M114.4990,192.4498 L125.5510,192.4498 L125.5510,181.4018 L114.4990,181.4018 L114.4990,192.4498 Z"/></clipPath><clipPath id="p1_s270"><path d="M114.4990,192.4498 L125.5510,192.4498 L125.5510,181.4018 L114.4990,181.4018 L114.4990,192.4498 Z"/></clipPath><clipPath id="p1_s272"><path d="M114.4990,192.4498 L125.5510,192.4498 L125.5510,181.4018 L114.4990,181.4018 L114.4990,192.4498 Z"/></clipPath><clipPath id="p1_s274"><path d="M114.4990,192.4498 L125.5510,192.4498 L125.5510,181.4018 L114.4990,181.4018 L114.4990,192.4498 Z"/></clipPath><clipPath id="p1_s276"><path d="M114.4990,192.4498 L125.5510,192.4498 L125.5510,181.4018 L114.4990,181.4018 L114.4990,192.4498 Z"/></clipPath><clipPath id="p1_s278"><path d="M114.4990,192.4498 L125.5510,192.4498 L125.5510,181.4018 L114.4990,181.4018 L114.4990,192.4498 Z"/></clipPath><clipPath id="p1_s280"><path d="M114.4990,192.4498 L125.5510,192.4498 L125.5510,181.4018 L114.4990,181.4018 L114.4990,192.4498 Z"/></clipPath><clipPath id="p1_s282"><path d="M114.4990,192.4498 L125.5510,192.4498 L125.5510,181.4018 L114.4990,181.4018 L114.4990,192.4498 Z"/></clipPath><clipPath id="p1_s284"><path d="M114.4990,192.4498 L125.5510,192.4498 L125.5510,181.4018 L114.4990,181.4018 L114.4990,192.4498 Z"/></clipPath><clipPath id="p1_s286"><path d="M114.4990,192.4498 L125.5510,192.4498 L125.5510,181.4018 L114.4990,181.4018 L114.4990,192.4498 Z"/></clipPath><clipPath id="p1_s288"><path d="M114.4990,192.4498 L125.5510,192.4498 L125.5510,181.4018 L114.4990,181.4018 L114.4990,192.4498 Z"/></clipPath><clipPath id="p1_s290"><path d="M114.4990,192.4498 L125.5510,192.4498 L125.5510,181.4018 L114.4990,181.4018 L114.4990,192.4498 Z"/></clipPath><clipPath id="p1_s292"><path d="M114.4990,192.4498 L125.5510,192.4498 L125.5510,181.4018 L114.4990,181.4018 L114.4990,192.4498 Z"/></clipPath><clipPath id="p1_s294"><path d="M114.4990,192.4498 L125.5510,192.4498 L125.5510,181.4018 L114.4990,181.4018 L114.4990,192.4498 Z"/></clipPath><clipPath id="p1_s296"><path d="M114.4990,192.4498 L125.5510,192.4498 L125.5510,181.4018 L114.4990,181.4018 L114.4990,192.4498 Z"/></clipPath><clipPath id="p1_s298"><path d="M114.4990,192.4498 L125.5510,192.4498 L125.5510,181.4018 L114.4990,181.4018 L114.4990,192.4498 Z"/></clipPath><clipPath id="p1_s300"><path d="M114.4990,192.4498 L125.5510,192.4498 L125.5510,181.4018 L114.4990,181.4018 L114.4990,192.4498 Z"/></clipPath><clipPath id="p1_s302"><path d="M114.4990,192.4498 L125.5510,192.4498 L125.5510,181.4018 L114.4990,181.4018 L114.4990,192.4498 Z"/></clipPath><clipPath id="p1_s304"><path d="M114.4990,192.4498 L125.5510,192.4498 L125.5510,181.4018 L114.4990,181.4018 L114.4990,192.4498 Z"/></clipPath><clipPath id="p1_s306"><path d="M114.4990,192.4498 L125.5510,192.4498 L125.5510,181.4018 L114.4990,181.4018 L114.4990,192.4498 Z"/></clipPath><clipPath id="p1_s308"><path d="M114.4990,192.4498 L125.5510,192.4498 L125.5510,181.4018 L114.4990,181.4018 L114.4990,192.4498 Z"/></clipPath><clipPath id="p1_s310"><path d="M114.4990,192.4498 L125.5510,192.4498 L125.5510,181.4018 L114.4990,181.4018 L114.4990,192.4498 Z"/></clipPath><clipPath id="p1_s312"><path d="M114.4990,192.4498 L125.5510,192.4498 L125.5510,181.4018 L114.4990,181.4018 L114.4990,192.4498 Z"/></clipPath><clipPath id="p1_s314"><path d="M114.4990,192.4498 L125.5510,192.4498 L125.5510,181.4018 L114.4990,181.4018 L114.4990,192.4498 Z"/></clipPath><clipPath id="p1_s316"><path d="M114.4990,192.4498 L125.5510,192.4498 L125.5510,181.4018 L114.4990,181.4018 L114.4990,192.4498 Z"/></clipPath><clipPath id="p1_s318"><path d="M114.4990,192.4498 L125.5510,192.4498 L125.5510,181.4018 L114.4990,181.4018 L114.4990,192.4498 Z"/></clipPath><clipPath id="p1_s320"><path d="M114.4990,192.4498 L125.5510,192.4498 L125.5510,181.4018 L114.4990,181.4018 L114.4990,192.4498 Z"/></clipPath><clipPath id="p1_s322"><path d="M114.4990,192.4498 L125.5510,192.4498 L125.5510,181.4018 L114.4990,181.4018 L114.4990,192.4498 Z"/></clipPath><clipPath id="p1_s324"><path d="M114.4990,192.4498 L125.5510,192.4498 L125.5510,181.4018 L114.4990,181.4018 L114.4990,192.4498 Z"/></clipPath><clipPath id="p1_s326"><path d="M114.4990,192.4498 L125.5510,192.4498 L125.5510,181.4018 L114.4990,181.4018 L114.4990,192.4498 Z"/></clipPath><clipPath id="p1_s328"><path d="M114.4990,192.4498 L125.5510,192.4498 L125.5510,181.4018 L114.4990,181.4018 L114.4990,192.4498 Z"/></clipPath><clipPath id="p1_s330"><path d="M114.4990,192.4498 L125.5510,192.4498 L125.5510,181.4018 L114.4990,181.4018 L114.4990,192.4498 Z"/></clipPath><clipPath id="p1_s332"><path d="M114.4990,192.4498 L125.5510,192.4498 L125.5510,181.4018 L114.4990,181.4018 L114.4990,192.4498 Z"/></clipPath><clipPath id="p1_s334"><path d="M114.4990,192.4498 L125.5510,192.4498 L125.5510,181.4018 L114.4990,181.4018 L114.4990,192.4498 Z"/></clipPath><clipPath id="p1_s336"><path d="M114.4990,192.4498 L125.5510,192.4498 L125.5510,181.4018 L114.4990,181.4018 L114.4990,192.4498 Z"/></clipPath><clipPath id="p1_s338"><path d="M114.4990,192.4498 L125.5510,192.4498 L125.5510,181.4018 L114.4990,181.4018 L114.4990,192.4498 Z"/></clipPath><clipPath id="p1_s340"><path d="M114.4990,192.4498 L125.5510,192.4498 L125.5510,181.4018 L114.4990,181.4018 L114.4990,192.4498 Z"/></clipPath><clipPath id="p1_s342"><path d="M114.4990,192.4498 L125.5510,192.4498 L125.5510,181.4018 L114.4990,181.4018 L114.4990,192.4498 Z"/></clipPath><clipPath id="p1_s344"><path d="M114.4990,192.4498 L125.5510,192.4498 L125.5510,181.4018 L114.4990,181.4018 L114.4990,192.4498 Z"/></clipPath><clipPath id="p1_s346"><path d="M114.4990,192.4498 L125.5510,192.4498 L125.5510,181.4018 L114.4990,181.4018 L114.4990,192.4498 Z"/></clipPath><clipPath id="p1_s348"><path d="M114.4990,192.4498 L125.5510,192.4498 L125.5510,181.4018 L114.4990,181.4018 L114.4990,192.4498 Z"/></clipPath><clipPath id="p1_s350"><path d="M114.4990,192.4498 L125.5510,192.4498 L125.5510,181.4018 L114.4990,181.4018 L114.4990,192.4498 Z"/></clipPath><clipPath id="p1_s352"><path d="M114.4990,192.4498 L125.5510,192.4498 L125.5510,181.4018 L114.4990,181.4018 L114.4990,192.4498 Z"/></clipPath><clipPath id="p1_s354"><path d="M114.4990,192.4498 L125.5510,192.4498 L125.5510,181.4018 L114.4990,181.4018 L114.4990,192.4498 Z"/></clipPath><clipPath id="p1_s356"><path d="M114.4990,192.4498 L125.5510,192.4498 L125.5510,181.4018 L114.4990,181.4018 L114.4990,192.4498 Z"/></clipPath><clipPath id="p1_s358"><path d="M114.4990,192.4498 L125.5510,192.4498 L125.5510,181.4018 L114.4990,181.4018 L114.4990,192.4498 Z"/></clipPath><clipPath id="p1_s360"><path d="M114.4990,192.4498 L125.5510,192.4498 L125.5510,181.4018 L114.4990,181.4018 L114.4990,192.4498 Z"/></clipPath><clipPath id="p1_s362"><path d="M114.4990,192.4498 L125.5510,192.4498 L125.5510,181.4018 L114.4990,181.4018 L114.4990,192.4498 Z"/></clipPath><clipPath id="p1_s364"><path d="M114.4990,192.4498 L125.5510,192.4498 L125.5510,181.4018 L114.4990,181.4018 L114.4990,192.4498 Z"/></clipPath><clipPath id="p1_s366"><path d="M114.4990,192.4498 L125.5510,192.4498 L125.5510,181.4018 L114.4990,181.4018 L114.4990,192.4498 Z"/></clipPath><clipPath id="p1_s368"><path d="M114.4990,192.4498 L125.5510,192.4498 L125.5510,181.4018 L114.4990,181.4018 L114.4990,192.4498 Z"/></clipPath><clipPath id="p1_s370"><path d="M114.4990,192.4498 L125.5510,192.4498 L125.5510,181.4018 L114.4990,181.4018 L114.4990,192.4498 Z"/></clipPath><clipPath id="p1_s372"><path d="M114.4990,192.4498 L125.5510,192.4498 L125.5510,181.4018 L114.4990,181.4018 L114.4990,192.4498 Z"/></clipPath><clipPath id="p1_s374"><path d="M114.4990,192.4498 L125.5510,192.4498 L125.5510,181.4018 L114.4990,181.4018 L114.4990,192.4498 Z"/></clipPath><clipPath id="p1_s376"><path d="M114.4990,192.4498 L125.5510,192.4498 L125.5510,181.4018 L114.4990,181.4018 L114.4990,192.4498 Z"/></clipPath><clipPath id="p1_s378"><path d="M114.4990,192.4498 L125.5510,192.4498 L125.5510,181.4018 L114.4990,181.4018 L114.4990,192.4498 Z"/></clipPath><clipPath id="p1_s380"><path d="M114.4990,192.4498 L125.5510,192.4498 L125.5510,181.4018 L114.4990,181.4018 L114.4990,192.4498 Z"/></clipPath><clipPath id="p1_s382"><path d="M114.4990,192.4498 L125.5510,192.4498 L125.5510,181.4018 L114.4990,181.4018 L114.4990,192.4498 Z"/></clipPath><clipPath id="p1_s384"><path d="M114.4990,192.4498 L125.5510,192.4498 L125.5510,181.4018 L114.4990,181.4018 L114.4990,192.4498 Z"/></clipPath><clipPath id="p1_s386"><path d="M114.4990,192.4498 L125.5510,192.4498 L125.5510,181.4018 L114.4990,181.4018 L114.4990,192.4498 Z"/></clipPath><clipPath id="p1_s388"><path d="M114.4990,192.4498 L125.5510,192.4498 L125.5510,181.4018 L114.4990,181.4018 L114.4990,192.4498 Z"/></clipPath><clipPath id="p1_s390"><path d="M114.4990,192.4498 L125.5510,192.4498 L125.5510,181.4018 L114.4990,181.4018 L114.4990,192.4498 Z"/></clipPath><clipPath id="p1_s392"><path d="M114.4990,192.4498 L125.5510,192.4498 L125.5510,181.4018 L114.4990,181.4018 L114.4990,192.4498 Z"/></clipPath><clipPath id="p1_s394"><path d="M114.4990,192.4498 L125.5510,192.4498 L125.5510,181.4018 L114.4990,181.4018 L114.4990,192.4498 Z"/></clipPath><clipPath id="p1_s396"><path d="M114.4990,192.4498 L125.5510,192.4498 L125.5510,181.4018 L114.4990,181.4018 L114.4990,192.4498 Z"/></clipPath><clipPath id="p1_s398"><path d="M114.4990,192.4498 L125.5510,192.4498 L125.5510,181.4018 L114.4990,181.4018 L114.4990,192.4498 Z"/></clipPath><clipPath id="p1_s400"><path d="M114.4990,192.4498 L125.5510,192.4498 L125.5510,181.4018 L114.4990,181.4018 L114.4990,192.4498 Z"/></clipPath><clipPath id="p1_s402"><path d="M114.4990,192.4498 L125.5510,192.4498 L125.5510,181.4018 L114.4990,181.4018 L114.4990,192.4498 Z"/></clipPath><clipPath id="p1_s404"><path d="M119.6990,149.2498 L232.5510,149.2498 L232.5510,137.2518 L119.6990,137.2518 L119.6990,149.2498 Z"/></clipPath><clipPath id="p1_s406"><path d="M57.7990,286.2998 L68.8510,286.2998 L68.8510,275.2518 L57.7990,275.2518 L57.7990,286.2998 Z"/></clipPath><clipPath id="p1_s408"><path d="M59.4490,255.9998 L224.3510,255.9998 L224.3510,238.4018 L59.4490,238.4018 L59.4490,255.9998 Z"/></clipPath><clipPath id="p1_s460"><path d="M59.4490,255.9998 L224.3510,255.9998 L224.3510,238.4018 L59.4490,238.4018 L59.4490,255.9998 Z"/></clipPath><clipPath id="p1_s512"><path d="M114.4990,192.4498 L125.5510,192.4498 L125.5510,181.4018 L114.4990,181.4018 L114.4990,192.4498 Z"/></clipPath><clipPath id="p1_s514"><path d="M114.4990,192.4498 L125.5510,192.4498 L125.5510,181.4018 L114.4990,181.4018 L114.4990,192.4498 Z"/></clipPath><clipPath id="p1_s516"><path d="M114.4990,192.4498 L125.5510,192.4498 L125.5510,181.4018 L114.4990,181.4018 L114.4990,192.4498 Z"/></clipPath><clipPath id="p1_s518"><path d="M114.4990,192.4498 L125.5510,192.4498 L125.5510,181.4018 L114.4990,181.4018 L114.4990,192.4498 Z"/></clipPath><clipPath id="p1_s520"><path d="M114.4990,192.4498 L125.5510,192.4498 L125.5510,181.4018 L114.4990,181.4018 L114.4990,192.4498 Z"/></clipPath><clipPath id="p1_s522"><path d="M114.4990,192.4498 L125.5510,192.4498 L125.5510,181.4018 L114.4990,181.4018 L114.4990,192.4498 Z"/></clipPath><clipPath id="p1_s524"><path d="M114.4990,192.4498 L125.5510,192.4498 L125.5510,181.4018 L114.4990,181.4018 L114.4990,192.4498 Z"/></clipPath><clipPath id="p1_s526"><path d="M114.4990,192.4498 L125.5510,192.4498 L125.5510,181.4018 L114.4990,181.4018 L114.4990,192.4498 Z"/></clipPath><clipPath id="p1_s528"><path d="M114.4990,192.4498 L125.5510,192.4498 L125.5510,181.4018 L114.4990,181.4018 L114.4990,192.4498 Z"/></clipPath><clipPath id="p1_s530"><path d="M114.4990,192.4498 L125.5510,192.4498 L125.5510,181.4018 L114.4990,181.4018 L114.4990,192.4498 Z"/></clipPath><clipPath id="p1_s532"><path d="M114.4990,192.4498 L125.5510,192.4498 L125.5510,181.4018 L114.4990,181.4018 L114.4990,192.4498 Z"/></clipPath><clipPath id="p1_s534"><path d="M114.4990,192.4498 L125.5510,192.4498 L125.5510,181.4018 L114.4990,181.4018 L114.4990,192.4498 Z"/></clipPath><clipPath id="p1_s536"><path d="M114.4990,192.4498 L125.5510,192.4498 L125.5510,181.4018 L114.4990,181.4018 L114.4990,192.4498 Z"/></clipPath><clipPath id="p1_s538"><path d="M114.4990,192.4498 L125.5510,192.4498 L125.5510,181.4018 L114.4990,181.4018 L114.4990,192.4498 Z"/></clipPath><clipPath id="p1_s540"><path d="M114.4990,192.4498 L125.5510,192.4498 L125.5510,181.4018 L114.4990,181.4018 L114.4990,192.4498 Z"/></clipPath><clipPath id="p1_s542"><path d="M114.4990,192.4498 L125.5510,192.4498 L125.5510,181.4018 L114.4990,181.4018 L114.4990,192.4498 Z"/></clipPath><clipPath id="p1_s544"><path d="M114.4990,192.4498 L125.5510,192.4498 L125.5510,181.4018 L114.4990,181.4018 L114.4990,192.4498 Z"/></clipPath><clipPath id="p1_s546"><path d="M114.4990,192.4498 L125.5510,192.4498 L125.5510,181.4018 L114.4990,181.4018 L114.4990,192.4498 Z"/></clipPath><clipPath id="p1_s548"><path d="M114.4990,192.4498 L125.5510,192.4498 L125.5510,181.4018 L114.4990,181.4018 L114.4990,192.4498 Z"/></clipPath><clipPath id="p1_s550"><path d="M114.4990,192.4498 L125.5510,192.4498 L125.5510,181.4018 L114.4990,181.4018 L114.4990,192.4498 Z"/></clipPath><clipPath id="p1_s552"><path d="M114.4990,192.4498 L125.5510,192.4498 L125.5510,181.4018 L114.4990,181.4018 L114.4990,192.4498 Z"/></clipPath><clipPath id="p1_s554"><path d="M114.4990,192.4498 L125.5510,192.4498 L125.5510,181.4018 L114.4990,181.4018 L114.4990,192.4498 Z"/></clipPath><clipPath id="p1_s556"><path d="M114.4990,192.4498 L125.5510,192.4498 L125.5510,181.4018 L114.4990,181.4018 L114.4990,192.4498 Z"/></clipPath><clipPath id="p1_s558"><path d="M114.4990,192.4498 L125.5510,192.4498 L125.5510,181.4018 L114.4990,181.4018 L114.4990,192.4498 Z"/></clipPath><clipPath id="p1_s560"><path d="M114.4990,192.4498 L125.5510,192.4498 L125.5510,181.4018 L114.4990,181.4018 L114.4990,192.4498 Z"/></clipPath><clipPath id="p1_s562"><path d="M114.4990,192.4498 L125.5510,192.4498 L125.5510,181.4018 L114.4990,181.4018 L114.4990,192.4498 Z"/></clipPath><clipPath id="p1_s564"><path d="M114.4990,192.4498 L125.5510,192.4498 L125.5510,181.4018 L114.4990,181.4018 L114.4990,192.4498 Z"/></clipPath><clipPath id="p1_s566"><path d="M114.4990,192.4498 L125.5510,192.4498 L125.5510,181.4018 L114.4990,181.4018 L114.4990,192.4498 Z"/></clipPath><clipPath id="p1_s568"><path d="M114.4990,192.4498 L125.5510,192.4498 L125.5510,181.4018 L114.4990,181.4018 L114.4990,192.4498 Z"/></clipPath><clipPath id="p1_s570"><path d="M114.4990,192.4498 L125.5510,192.4498 L125.5510,181.4018 L114.4990,181.4018 L114.4990,192.4498 Z"/></clipPath><clipPath id="p1_s572"><path d="M114.4990,192.4498 L125.5510,192.4498 L125.5510,181.4018 L114.4990,181.4018 L114.4990,192.4498 Z"/></clipPath><clipPath id="p1_s574"><path d="M114.4990,192.4498 L125.5510,192.4498 L125.5510,181.4018 L114.4990,181.4018 L114.4990,192.4498 Z"/></clipPath><clipPath id="p1_s576"><path d="M114.4990,192.4498 L125.5510,192.4498 L125.5510,181.4018 L114.4990,181.4018 L114.4990,192.4498 Z"/></clipPath><clipPath id="p1_s578"><path d="M114.4990,192.4498 L125.5510,192.4498 L125.5510,181.4018 L114.4990,181.4018 L114.4990,192.4498 Z"/></clipPath><clipPath id="p1_s580"><path d="M114.4990,192.4498 L125.5510,192.4498 L125.5510,181.4018 L114.4990,181.4018 L114.4990,192.4498 Z"/></clipPath><clipPath id="p1_s582"><path d="M114.4990,192.4498 L125.5510,192.4498 L125.5510,181.4018 L114.4990,181.4018 L114.4990,192.4498 Z"/></clipPath><clipPath id="p1_s584"><path d="M114.4990,192.4498 L125.5510,192.4498 L125.5510,181.4018 L114.4990,181.4018 L114.4990,192.4498 Z"/></clipPath><clipPath id="p1_s586"><path d="M114.4990,192.4498 L125.5510,192.4498 L125.5510,181.4018 L114.4990,181.4018 L114.4990,192.4498 Z"/></clipPath><clipPath id="p1_s588"><path d="M114.4990,192.4498 L125.5510,192.4498 L125.5510,181.4018 L114.4990,181.4018 L114.4990,192.4498 Z"/></clipPath><clipPath id="p1_s590"><path d="M114.4990,192.4498 L125.5510,192.4498 L125.5510,181.4018 L114.4990,181.4018 L114.4990,192.4498 Z"/></clipPath><clipPath id="p1_s592"><path d="M114.4990,192.4498 L125.5510,192.4498 L125.5510,181.4018 L114.4990,181.4018 L114.4990,192.4498 Z"/></clipPath><clipPath id="p1_s594"><path d="M114.4990,192.4498 L125.5510,192.4498 L125.5510,181.4018 L114.4990,181.4018 L114.4990,192.4498 Z"/></clipPath><clipPath id="p1_s596"><path d="M114.4990,192.4498 L125.5510,192.4498 L125.5510,181.4018 L114.4990,181.4018 L114.4990,192.4498 Z"/></clipPath><clipPath id="p1_s598"><path d="M114.4990,192.4498 L125.5510,192.4498 L125.5510,181.4018 L114.4990,181.4018 L114.4990,192.4498 Z"/></clipPath><clipPath id="p1_s600"><path d="M114.4990,192.4498 L125.5510,192.4498 L125.5510,181.4018 L114.4990,181.4018 L114.4990,192.4498 Z"/></clipPath><clipPath id="p1_s602"><path d="M114.4990,192.4498 L125.5510,192.4498 L125.5510,181.4018 L114.4990,181.4018 L114.4990,192.4498 Z"/></clipPath><clipPath id="p1_s604"><path d="M114.4990,192.4498 L125.5510,192.4498 L125.5510,181.4018 L114.4990,181.4018 L114.4990,192.4498 Z"/></clipPath><clipPath id="p1_s606"><path d="M114.4990,192.4498 L125.5510,192.4498 L125.5510,181.4018 L114.4990,181.4018 L114.4990,192.4498 Z"/></clipPath><clipPath id="p1_s608"><path d="M114.4990,192.4498 L125.5510,192.4498 L125.5510,181.4018 L114.4990,181.4018 L114.4990,192.4498 Z"/></clipPath><clipPath id="p1_s610"><path d="M114.4990,192.4498 L125.5510,192.4498 L125.5510,181.4018 L114.4990,181.4018 L114.4990,192.4498 Z"/></clipPath><clipPath id="p1_s612"><path d="M114.4990,192.4498 L125.5510,192.4498 L125.5510,181.4018 L114.4990,181.4018 L114.4990,192.4498 Z"/></clipPath><clipPath id="p1_s614"><path d="M114.4990,192.4498 L125.5510,192.4498 L125.5510,181.4018 L114.4990,181.4018 L114.4990,192.4498 Z"/></clipPath><clipPath id="p1_s616"><path d="M114.4990,192.4498 L125.5510,192.4498 L125.5510,181.4018 L114.4990,181.4018 L114.4990,192.4498 Z"/></clipPath><clipPath id="p1_s618"><path d="M114.4990,192.4498 L125.5510,192.4498 L125.5510,181.4018 L114.4990,181.4018 L114.4990,192.4498 Z"/></clipPath><clipPath id="p1_s620"><path d="M114.4990,192.4498 L125.5510,192.4498 L125.5510,181.4018 L114.4990,181.4018 L114.4990,192.4498 Z"/></clipPath><clipPath id="p1_s622"><path d="M114.4990,192.4498 L125.5510,192.4498 L125.5510,181.4018 L114.4990,181.4018 L114.4990,192.4498 Z"/></clipPath><clipPath id="p1_s624"><path d="M114.4990,192.4498 L125.5510,192.4498 L125.5510,181.4018 L114.4990,181.4018 L114.4990,192.4498 Z"/></clipPath><clipPath id="p1_s626"><path d="M114.4990,192.4498 L125.5510,192.4498 L125.5510,181.4018 L114.4990,181.4018 L114.4990,192.4498 Z"/></clipPath><clipPath id="p1_s628"><path d="M114.4990,192.4498 L125.5510,192.4498 L125.5510,181.4018 L114.4990,181.4018 L114.4990,192.4498 Z"/></clipPath><clipPath id="p1_s630"><path d="M114.4990,192.4498 L125.5510,192.4498 L125.5510,181.4018 L114.4990,181.4018 L114.4990,192.4498 Z"/></clipPath><clipPath id="p1_s632"><path d="M114.4990,192.4498 L125.5510,192.4498 L125.5510,181.4018 L114.4990,181.4018 L114.4990,192.4498 Z"/></clipPath><clipPath id="p1_s634"><path d="M114.4990,192.4498 L125.5510,192.4498 L125.5510,181.4018 L114.4990,181.4018 L114.4990,192.4498 Z"/></clipPath><clipPath id="p1_s636"><path d="M114.4990,192.4498 L125.5510,192.4498 L125.5510,181.4018 L114.4990,181.4018 L114.4990,192.4498 Z"/></clipPath><clipPath id="p1_s638"><path d="M114.4990,192.4498 L125.5510,192.4498 L125.5510,181.4018 L114.4990,181.4018 L114.4990,192.4498 Z"/></clipPath><clipPath id="p1_s640"><path d="M114.4990,192.4498 L125.5510,192.4498 L125.5510,181.4018 L114.4990,181.4018 L114.4990,192.4498 Z"/></clipPath><clipPath id="p1_s642"><path d="M114.4990,192.4498 L125.5510,192.4498 L125.5510,181.4018 L114.4990,181.4018 L114.4990,192.4498 Z"/></clipPath><clipPath id="p1_s644"><path d="M114.4990,192.4498 L125.5510,192.4498 L125.5510,181.4018 L114.4990,181.4018 L114.4990,192.4498 Z"/></clipPath><clipPath id="p1_s646"><path d="M114.4990,192.4498 L125.5510,192.4498 L125.5510,181.4018 L114.4990,181.4018 L114.4990,192.4498 Z"/></clipPath><clipPath id="p1_s648"><path d="M114.4990,192.4498 L125.5510,192.4498 L125.5510,181.4018 L114.4990,181.4018 L114.4990,192.4498 Z"/></clipPath><clipPath id="p1_s650"><path d="M114.4990,192.4498 L125.5510,192.4498 L125.5510,181.4018 L114.4990,181.4018 L114.4990,192.4498 Z"/></clipPath><clipPath id="p1_s652"><path d="M114.4990,192.4498 L125.5510,192.4498 L125.5510,181.4018 L114.4990,181.4018 L114.4990,192.4498 Z"/></clipPath><clipPath id="p1_s654"><path d="M114.4990,192.4498 L125.5510,192.4498 L125.5510,181.4018 L114.4990,181.4018 L114.4990,192.4498 Z"/></clipPath><clipPath id="p1_s656"><path d="M114.4990,192.4498 L125.5510,192.4498 L125.5510,181.4018 L114.4990,181.4018 L114.4990,192.4498 Z"/></clipPath><clipPath id="p1_s658"><path d="M114.4990,192.4498 L125.5510,192.4498 L125.5510,181.4018 L114.4990,181.4018 L114.4990,192.4498 Z"/></clipPath><clipPath id="p1_s660"><path d="M114.4990,192.4498 L125.5510,192.4498 L125.5510,181.4018 L114.4990,181.4018 L114.4990,192.4498 Z"/></clipPath><clipPath id="p1_s662"><path d="M114.4990,192.4498 L125.5510,192.4498 L125.5510,181.4018 L114.4990,181.4018 L114.4990,192.4498 Z"/></clipPath><clipPath id="p1_s664"><path d="M114.4990,192.4498 L125.5510,192.4498 L125.5510,181.4018 L114.4990,181.4018 L114.4990,192.4498 Z"/></clipPath><clipPath id="p1_s666"><path d="M114.4990,192.4498 L125.5510,192.4498 L125.5510,181.4018 L114.4990,181.4018 L114.4990,192.4498 Z"/></clipPath><clipPath id="p1_s668"><path d="M114.4990,192.4498 L125.5510,192.4498 L125.5510,181.4018 L114.4990,181.4018 L114.4990,192.4498 Z"/></clipPath><clipPath id="p1_s670"><path d="M114.4990,192.4498 L125.5510,192.4498 L125.5510,181.4018 L114.4990,181.4018 L114.4990,192.4498 Z"/></clipPath><clipPath id="p1_s672"><path d="M114.4990,192.4498 L125.5510,192.4498 L125.5510,181.4018 L114.4990,181.4018 L114.4990,192.4498 Z"/></clipPath><clipPath id="p1_s674"><path d="M114.4990,192.4498 L125.5510,192.4498 L125.5510,181.4018 L114.4990,181.4018 L114.4990,192.4498 Z"/></clipPath><clipPath id="p1_s676"><path d="M114.4990,192.4498 L125.5510,192.4498 L125.5510,181.4018 L114.4990,181.4018 L114.4990,192.4498 Z"/></clipPath><clipPath id="p1_s678"><path d="M114.4990,192.4498 L125.5510,192.4498 L125.5510,181.4018 L114.4990,181.4018 L114.4990,192.4498 Z"/></clipPath><clipPath id="p1_s680"><path d="M114.4990,192.4498 L125.5510,192.4498 L125.5510,181.4018 L114.4990,181.4018 L114.4990,192.4498 Z"/></clipPath><clipPath id="p1_s682"><path d="M114.4990,192.4498 L125.5510,192.4498 L125.5510,181.4018 L114.4990,181.4018 L114.4990,192.4498 Z"/></clipPath><clipPath id="p1_s684"><path d="M114.4990,192.4498 L125.5510,192.4498 L125.5510,181.4018 L114.4990,181.4018 L114.4990,192.4498 Z"/></clipPath><clipPath id="p1_s686"><path d="M114.4990,192.4498 L125.5510,192.4498 L125.5510,181.4018 L114.4990,181.4018 L114.4990,192.4498 Z"/></clipPath><clipPath id="p1_s688"><path d="M114.4990,192.4498 L125.5510,192.4498 L125.5510,181.4018 L114.4990,181.4018 L114.4990,192.4498 Z"/></clipPath><clipPath id="p1_s690"><path d="M114.4990,192.4498 L125.5510,192.4498 L125.5510,181.4018 L114.4990,181.4018 L114.4990,192.4498 Z"/></clipPath><clipPath id="p1_s692"><path d="M114.4990,192.4498 L125.5510,192.4498 L125.5510,181.4018 L114.4990,181.4018 L114.4990,192.4498 Z"/></clipPath><clipPath id="p1_s694"><path d="M114.4990,192.4498 L125.5510,192.4498 L125.5510,181.4018 L114.4990,181.4018 L114.4990,192.4498 Z"/></clipPath><clipPath id="p1_s696"><path d="M114.4990,192.4498 L125.5510,192.4498 L125.5510,181.4018 L114.4990,181.4018 L114.4990,192.4498 Z"/></clipPath><clipPath id="p1_s698"><path d="M114.4990,192.4498 L125.5510,192.4498 L125.5510,181.4018 L114.4990,181.4018 L114.4990,192.4498 Z"/></clipPath><clipPath id="p1_s700"><path d="M114.4990,192.4498 L125.5510,192.4498 L125.5510,181.4018 L114.4990,181.4018 L114.4990,192.4498 Z"/></clipPath><clipPath id="p1_s702"><path d="M114.4990,192.4498 L125.5510,192.4498 L125.5510,181.4018 L114.4990,181.4018 L114.4990,192.4498 Z"/></clipPath><clipPath id="p1_s704"><path d="M114.4990,192.4498 L125.5510,192.4498 L125.5510,181.4018 L114.4990,181.4018 L114.4990,192.4498 Z"/></clipPath><clipPath id="p1_s706"><path d="M114.4990,192.4498 L125.5510,192.4498 L125.5510,181.4018 L114.4990,181.4018 L114.4990,192.4498 Z"/></clipPath><clipPath id="p1_s708"><path d="M114.4990,192.4498 L125.5510,192.4498 L125.5510,181.4018 L114.4990,181.4018 L114.4990,192.4498 Z"/></clipPath><clipPath id="p1_s710"><path d="M114.4990,192.4498 L125.5510,192.4498 L125.5510,181.4018 L114.4990,181.4018 L114.4990,192.4498 Z"/></clipPath><clipPath id="p1_s712"><path d="M114.4990,192.4498 L125.5510,192.4498 L125.5510,181.4018 L114.4990,181.4018 L114.4990,192.4498 Z"/></clipPath><clipPath id="p1_s714"><path d="M114.4990,192.4498 L125.5510,192.4498 L125.5510,181.4018 L114.4990,181.4018 L114.4990,192.4498 Z"/></clipPath><clipPath id="p1_s716"><path d="M114.4990,192.4498 L125.5510,192.4498 L125.5510,181.4018 L114.4990,181.4018 L114.4990,192.4498 Z"/></clipPath><clipPath id="p1_s718"><path d="M114.4990,192.4498 L125.5510,192.4498 L125.5510,181.4018 L114.4990,181.4018 L114.4990,192.4498 Z"/></clipPath><clipPath id="p1_s720"><path d="M114.4990,192.4498 L125.5510,192.4498 L125.5510,181.4018 L114.4990,181.4018 L114.4990,192.4498 Z"/></clipPath><clipPath id="p1_s722"><path d="M114.4990,192.4498 L125.5510,192.4498 L125.5510,181.4018 L114.4990,181.4018 L114.4990,192.4498 Z"/></clipPath><clipPath id="p1_s724"><path d="M114.4990,192.4498 L125.5510,192.4498 L125.5510,181.4018 L114.4990,181.4018 L114.4990,192.4498 Z"/></clipPath><clipPath id="p1_s726"><path d="M114.4990,192.4498 L125.5510,192.4498 L125.5510,181.4018 L114.4990,181.4018 L114.4990,192.4498 Z"/></clipPath><clipPath id="p1_s728"><path d="M114.4990,192.4498 L125.5510,192.4498 L125.5510,181.4018 L114.4990,181.4018 L114.4990,192.4498 Z"/></clipPath><clipPath id="p1_s730"><path d="M114.4990,192.4498 L125.5510,192.4498 L125.5510,181.4018 L114.4990,181.4018 L114.4990,192.4498 Z"/></clipPath><clipPath id="p1_s732"><path d="M114.4990,192.4498 L125.5510,192.4498 L125.5510,181.4018 L114.4990,181.4018 L114.4990,192.4498 Z"/></clipPath><clipPath id="p1_s734"><path d="M114.4990,192.4498 L125.5510,192.4498 L125.5510,181.4018 L114.4990,181.4018 L114.4990,192.4498 Z"/></clipPath><clipPath id="p1_s736"><path d="M114.4990,192.4498 L125.5510,192.4498 L125.5510,181.4018 L114.4990,181.4018 L114.4990,192.4498 Z"/></clipPath><clipPath id="p1_s738"><path d="M114.4990,192.4498 L125.5510,192.4498 L125.5510,181.4018 L114.4990,181.4018 L114.4990,192.4498 Z"/></clipPath><clipPath id="p1_s740"><path d="M114.4990,192.4498 L125.5510,192.4498 L125.5510,181.4018 L114.4990,181.4018 L114.4990,192.4498 Z"/></clipPath><clipPath id="p1_s742"><path d="M114.4990,192.4498 L125.5510,192.4498 L125.5510,181.4018 L114.4990,181.4018 L114.4990,192.4498 Z"/></clipPath><clipPath id="p1_s744"><path d="M114.4990,192.4498 L125.5510,192.4498 L125.5510,181.4018 L114.4990,181.4018 L114.4990,192.4498 Z"/></clipPath><clipPath id="p1_s746"><path d="M114.4990,192.4498 L125.5510,192.4498 L125.5510,181.4018 L114.4990,181.4018 L114.4990,192.4498 Z"/></clipPath><clipPath id="p1_s748"><path d="M114.4990,192.4498 L125.5510,192.4498 L125.5510,181.4018 L114.4990,181.4018 L114.4990,192.4498 Z"/></clipPath><clipPath id="p1_s750"><path d="M114.4990,192.4498 L125.5510,192.4498 L125.5510,181.4018 L114.4990,181.4018 L114.4990,192.4498 Z"/></clipPath><clipPath id="p1_s752"><path d="M114.4990,192.4498 L125.5510,192.4498 L125.5510,181.4018 L114.4990,181.4018 L114.4990,192.4498 Z"/></clipPath><clipPath id="p1_s754"><path d="M114.4990,192.4498 L125.5510,192.4498 L125.5510,181.4018 L114.4990,181.4018 L114.4990,192.4498 Z"/></clipPath><clipPath id="p1_s756"><path d="M114.4990,192.4498 L125.5510,192.4498 L125.5510,181.4018 L114.4990,181.4018 L114.4990,192.4498 Z"/></clipPath><clipPath id="p1_s758"><path d="M114.4990,192.4498 L125.5510,192.4498 L125.5510,181.4018 L114.4990,181.4018 L114.4990,192.4498 Z"/></clipPath><clipPath id="p1_s760"><path d="M114.4990,192.4498 L125.5510,192.4498 L125.5510,181.4018 L114.4990,181.4018 L114.4990,192.4498 Z"/></clipPath><clipPath id="p1_s762"><path d="M114.4990,192.4498 L125.5510,192.4498 L125.5510,181.4018 L114.4990,181.4018 L114.4990,192.4498 Z"/></clipPath><clipPath id="p1_s764"><path d="M114.4990,192.4498 L125.5510,192.4498 L125.5510,181.4018 L114.4990,181.4018 L114.4990,192.4498 Z"/></clipPath><clipPath id="p1_s766"><path d="M114.4990,192.4498 L125.5510,192.4498 L125.5510,181.4018 L114.4990,181.4018 L114.4990,192.4498 Z"/></clipPath><clipPath id="p1_s768"><path d="M114.4990,192.4498 L125.5510,192.4498 L125.5510,181.4018 L114.4990,181.4018 L114.4990,192.4498 Z"/></clipPath><clipPath id="p1_s770"><path d="M114.4990,192.4498 L125.5510,192.4498 L125.5510,181.4018 L114.4990,181.4018 L114.4990,192.4498 Z"/></clipPath><clipPath id="p1_s772"><path d="M114.4990,192.4498 L125.5510,192.4498 L125.5510,181.4018 L114.4990,181.4018 L114.4990,192.4498 Z"/></clipPath><clipPath id="p1_s774"><path d="M114.4990,192.4498 L125.5510,192.4498 L125.5510,181.4018 L114.4990,181.4018 L114.4990,192.4498 Z"/></clipPath><clipPath id="p1_s776"><path d="M114.4990,192.4498 L125.5510,192.4498 L125.5510,181.4018 L114.4990,181.4018 L114.4990,192.4498 Z"/></clipPath><clipPath id="p1_s778"><path d="M114.4990,192.4498 L125.5510,192.4498 L125.5510,181.4018 L114.4990,181.4018 L114.4990,192.4498 Z"/></clipPath><clipPath id="p1_s780"><path d="M114.4990,192.4498 L125.5510,192.4498 L125.5510,181.4018 L114.4990,181.4018 L114.4990,192.4498 Z"/></clipPath><clipPath id="p1_s782"><path d="M114.4990,192.4498 L125.5510,192.4498 L125.5510,181.4018 L114.4990,181.4018 L114.4990,192.4498 Z"/></clipPath><clipPath id="p1_s784"><path d="M114.4990,192.4498 L125.5510,192.4498 L125.5510,181.4018 L114.4990,181.4018 L114.4990,192.4498 Z"/></clipPath><clipPath id="p1_s786"><path d="M114.4990,192.4498 L125.5510,192.4498 L125.5510,181.4018 L114.4990,181.4018 L114.4990,192.4498 Z"/></clipPath><clipPath id="p1_s788"><path d="M114.4990,192.4498 L125.5510,192.4498 L125.5510,181.4018 L114.4990,181.4018 L114.4990,192.4498 Z"/></clipPath><clipPath id="p1_s790"><path d="M114.4990,192.4498 L125.5510,192.4498 L125.5510,181.4018 L114.4990,181.4018 L114.4990,192.4498 Z"/></clipPath><clipPath id="p1_s792"><path d="M114.4990,192.4498 L125.5510,192.4498 L125.5510,181.4018 L114.4990,181.4018 L114.4990,192.4498 Z"/></clipPath><clipPath id="p1_s794"><path d="M114.4990,192.4498 L125.5510,192.4498 L125.5510,181.4018 L114.4990,181.4018 L114.4990,192.4498 Z"/></clipPath><clipPath id="p1_s796"><path d="M114.4990,192.4498 L125.5510,192.4498 L125.5510,181.4018 L114.4990,181.4018 L114.4990,192.4498 Z"/></clipPath><clipPath id="p1_s798"><path d="M114.4990,192.4498 L125.5510,192.4498 L125.5510,181.4018 L114.4990,181.4018 L114.4990,192.4498 Z"/></clipPath><clipPath id="p1_s800"><path d="M114.4990,192.4498 L125.5510,192.4498 L125.5510,181.4018 L114.4990,181.4018 L114.4990,192.4498 Z"/></clipPath><clipPath id="p1_s802"><path d="M114.4990,192.4498 L125.5510,192.4498 L125.5510,181.4018 L114.4990,181.4018 L114.4990,192.4498 Z"/></clipPath><clipPath id="p1_s804"><path d="M114.4990,192.4498 L125.5510,192.4498 L125.5510,181.4018 L114.4990,181.4018 L114.4990,192.4498 Z"/></clipPath><clipPath id="p1_s806"><path d="M114.4990,192.4498 L125.5510,192.4498 L125.5510,181.4018 L114.4990,181.4018 L114.4990,192.4498 Z"/></clipPath><clipPath id="p1_s808"><path d="M114.4990,192.4498 L125.5510,192.4498 L125.5510,181.4018 L114.4990,181.4018 L114.4990,192.4498 Z"/></clipPath><clipPath id="p1_s810"><path d="M114.4990,192.4498 L125.5510,192.4498 L125.5510,181.4018 L114.4990,181.4018 L114.4990,192.4498 Z"/></clipPath><clipPath id="p1_s812"><path d="M114.4990,192.4498 L125.5510,192.4498 L125.5510,181.4018 L114.4990,181.4018 L114.4990,192.4498 Z"/></clipPath><clipPath id="p1_s814"><path d="M114.4990,192.4498 L125.5510,192.4498 L125.5510,181.4018 L114.4990,181.4018 L114.4990,192.4498 Z"/></clipPath><clipPath id="p1_s816"><path d="M114.4990,192.4498 L125.5510,192.4498 L125.5510,181.4018 L114.4990,181.4018 L114.4990,192.4498 Z"/></clipPath><clipPath id="p1_s818"><path d="M114.4990,192.4498 L125.5510,192.4498 L125.5510,181.4018 L114.4990,181.4018 L114.4990,192.4498 Z"/></clipPath><clipPath id="p1_s820"><path d="M114.4990,192.4498 L125.5510,192.4498 L125.5510,181.4018 L114.4990,181.4018 L114.4990,192.4498 Z"/></clipPath><clipPath id="p1_s822"><path d="M114.4990,192.4498 L125.5510,192.4498 L125.5510,181.4018 L114.4990,181.4018 L114.4990,192.4498 Z"/></clipPath><clipPath id="p1_s824"><path d="M114.4990,192.4498 L125.5510,192.4498 L125.5510,181.4018 L114.4990,181.4018 L114.4990,192.4498 Z"/></clipPath><clipPath id="p1_s826"><path d="M114.4990,192.4498 L125.5510,192.4498 L125.5510,181.4018 L114.4990,181.4018 L114.4990,192.4498 Z"/></clipPath><clipPath id="p1_s828"><path d="M114.4990,192.4498 L125.5510,192.4498 L125.5510,181.4018 L114.4990,181.4018 L114.4990,192.4498 Z"/></clipPath><clipPath id="p1_s830"><path d="M114.4990,192.4498 L125.5510,192.4498 L125.5510,181.4018 L114.4990,181.4018 L114.4990,192.4498 Z"/></clipPath><clipPath id="p1_s832"><path d="M114.4990,192.4498 L125.5510,192.4498 L125.5510,181.4018 L114.4990,181.4018 L114.4990,192.4498 Z"/></clipPath><clipPath id="p1_s834"><path d="M114.4990,192.4498 L125.5510,192.4498 L125.5510,181.4018 L114.4990,181.4018 L114.4990,192.4498 Z"/></clipPath><clipPath id="p1_s836"><path d="M114.4990,192.4498 L125.5510,192.4498 L125.5510,181.4018 L114.4990,181.4018 L114.4990,192.4498 Z"/></clipPath><clipPath id="p1_s838"><path d="M114.4990,192.4498 L125.5510,192.4498 L125.5510,181.4018 L114.4990,181.4018 L114.4990,192.4498 Z"/></clipPath><clipPath id="p1_s840"><path d="M114.4990,192.4498 L125.5510,192.4498 L125.5510,181.4018 L114.4990,181.4018 L114.4990,192.4498 Z"/></clipPath><clipPath id="p1_s842"><path d="M114.4990,192.4498 L125.5510,192.4498 L125.5510,181.4018 L114.4990,181.4018 L114.4990,192.4498 Z"/></clipPath><clipPath id="p1_s844"><path d="M114.4990,192.4498 L125.5510,192.4498 L125.5510,181.4018 L114.4990,181.4018 L114.4990,192.4498 Z"/></clipPath><clipPath id="p1_s846"><path d="M114.4990,192.4498 L125.5510,192.4498 L125.5510,181.4018 L114.4990,181.4018 L114.4990,192.4498 Z"/></clipPath><clipPath id="p1_s848"><path d="M114.4990,192.4498 L125.5510,192.4498 L125.5510,181.4018 L114.4990,181.4018 L114.4990,192.4498 Z"/></clipPath><clipPath id="p1_s850"><path d="M114.4990,192.4498 L125.5510,192.4498 L125.5510,181.4018 L114.4990,181.4018 L114.4990,192.4498 Z"/></clipPath><clipPath id="p1_s852"><path d="M114.4990,192.4498 L125.5510,192.4498 L125.5510,181.4018 L114.4990,181.4018 L114.4990,192.4498 Z"/></clipPath><clipPath id="p1_s854"><path d="M114.4990,192.4498 L125.5510,192.4498 L125.5510,181.4018 L114.4990,181.4018 L114.4990,192.4498 Z"/></clipPath><clipPath id="p1_s856"><path d="M114.4990,192.4498 L125.5510,192.4498 L125.5510,181.4018 L114.4990,181.4018 L114.4990,192.4498 Z"/></clipPath><clipPath id="p1_s858"><path d="M114.4990,192.4498 L125.5510,192.4498 L125.5510,181.4018 L114.4990,181.4018 L114.4990,192.4498 Z"/></clipPath><clipPath id="p1_s860"><path d="M114.4990,192.4498 L125.5510,192.4498 L125.5510,181.4018 L114.4990,181.4018 L114.4990,192.4498 Z"/></clipPath><clipPath id="p1_s862"><path d="M114.4990,192.4498 L125.5510,192.4498 L125.5510,181.4018 L114.4990,181.4018 L114.4990,192.4498 Z"/></clipPath><clipPath id="p1_s864"><path d="M114.4990,192.4498 L125.5510,192.4498 L125.5510,181.4018 L114.4990,181.4018 L114.4990,192.4498 Z"/></clipPath><clipPath id="p1_s866"><path d="M114.4990,192.4498 L125.5510,192.4498 L125.5510,181.4018 L114.4990,181.4018 L114.4990,192.4498 Z"/></clipPath><clipPath id="p1_s868"><path d="M114.4990,192.4498 L125.5510,192.4498 L125.5510,181.4018 L114.4990,181.4018 L114.4990,192.4498 Z"/></clipPath><clipPath id="p1_s870"><path d="M114.4990,192.4498 L125.5510,192.4498 L125.5510,181.4018 L114.4990,181.4018 L114.4990,192.4498 Z"/></clipPath><clipPath id="p1_s872"><path d="M114.4990,192.4498 L125.5510,192.4498 L125.5510,181.4018 L114.4990,181.4018 L114.4990,192.4498 Z"/></clipPath><clipPath id="p1_s874"><path d="M114.4990,192.4498 L125.5510,192.4498 L125.5510,181.4018 L114.4990,181.4018 L114.4990,192.4498 Z"/></clipPath><clipPath id="p1_s876"><path d="M114.4990,192.4498 L125.5510,192.4498 L125.5510,181.4018 L114.4990,181.4018 L114.4990,192.4498 Z"/></clipPath><clipPath id="p1_s878"><path d="M114.4990,192.4498 L125.5510,192.4498 L125.5510,181.4018 L114.4990,181.4018 L114.4990,192.4498 Z"/></clipPath><clipPath id="p1_s880"><path d="M114.4990,192.4498 L125.5510,192.4498 L125.5510,181.4018 L114.4990,181.4018 L114.4990,192.4498 Z"/></clipPath><clipPath id="p1_s882"><path d="M114.4990,192.4498 L125.5510,192.4498 L125.5510,181.4018 L114.4990,181.4018 L114.4990,192.4498 Z"/></clipPath><clipPath id="p1_s884"><path d="M114.4990,192.4498 L125.5510,192.4498 L125.5510,181.4018 L114.4990,181.4018 L114.4990,192.4498 Z"/></clipPath><clipPath id="p1_s886"><path d="M114.4990,192.4498 L125.5510,192.4498 L125.5510,181.4018 L114.4990,181.4018 L114.4990,192.4498 Z"/></clipPath><clipPath id="p1_s888"><path d="M114.4990,192.4498 L125.5510,192.4498 L125.5510,181.4018 L114.4990,181.4018 L114.4990,192.4498 Z"/></clipPath><clipPath id="p1_s890"><path d="M114.4990,192.4498 L125.5510,192.4498 L125.5510,181.4018 L114.4990,181.4018 L114.4990,192.4498 Z"/></clipPath><clipPath id="p1_s892"><path d="M114.4990,192.4498 L125.5510,192.4498 L125.5510,181.4018 L114.4990,181.4018 L114.4990,192.4498 Z"/></clipPath><clipPath id="p1_s894"><path d="M114.4990,192.4498 L125.5510,192.4498 L125.5510,181.4018 L114.4990,181.4018 L114.4990,192.4498 Z"/></clipPath><clipPath id="p1_s896"><path d="M114.4990,192.4498 L125.5510,192.4498 L125.5510,181.4018 L114.4990,181.4018 L114.4990,192.4498 Z"/></clipPath><clipPath id="p1_s898"><path d="M114.4990,192.4498 L125.5510,192.4498 L125.5510,181.4018 L114.4990,181.4018 L114.4990,192.4498 Z"/></clipPath><clipPath id="p1_s900"><path d="M114.4990,192.4498 L125.5510,192.4498 L125.5510,181.4018 L114.4990,181.4018 L114.4990,192.4498 Z"/></clipPath><clipPath id="p1_s902"><path d="M114.4990,192.4498 L125.5510,192.4498 L125.5510,181.4018 L114.4990,181.4018 L114.4990,192.4498 Z"/></clipPath><clipPath id="p1_s904"><path d="M114.4990,192.4498 L125.5510,192.4498 L125.5510,181.4018 L114.4990,181.4018 L114.4990,192.4498 Z"/></clipPath><clipPath id="p1_s906"><path d="M114.4990,192.4498 L125.5510,192.4498 L125.5510,181.4018 L114.4990,181.4018 L114.4990,192.4498 Z"/></clipPath><clipPath id="p1_s908"><path d="M114.4990,192.4498 L125.5510,192.4498 L125.5510,181.4018 L114.4990,181.4018 L114.4990,192.4498 Z"/></clipPath></svg>
