<?xml version="1.0" encoding="UTF-8"?>
<svg xmlns="http://www.w3.org/2000/svg"><clipPath id="p1_s1" evenodd="true"><path d="M0.0000,841.8618 L595.2750,841.8618 L595.2750,0.0008 L0.0000,0.0008 L0.0000,841.8618 Z"/></clipPath><g style="fill: #FFFFFF;fill-rule: evenodd;fill-opacity: 1;" id="p1_s12"><path d="M116.8000,134.2508 L206.6500,134.2508 L206.6500,121.0008 L116.8000,121.0008 L116.8000,134.2508 Z"/></g><g style="stroke: #000000;fill:none;stroke-width: 0.1;stroke-linejoin:miter;stroke-linecap:butt;stroke-miterlimit: 10;" id="p1_s13"><path d="M116.8000,134.2508 L206.6500,134.2508 L206.6500,121.0008 L116.8000,121.0008 L116.8000,134.2508 Z"/></g><g style="fill: #FFFFFF;fill-rule: evenodd;fill-opacity: 1;" id="p1_s14"><path d="M270.6000,132.3008 L359.7500,132.3008 L359.7500,122.9508 L270.6000,122.9508 L270.6000,132.3008 Z"/></g><g style="stroke: #000000;fill:none;stroke-width: 0.1;stroke-linejoin:miter;stroke-linecap:butt;stroke-miterlimit: 10;" id="p1_s15"><path d="M270.6000,132.3008 L359.7500,132.3008 L359.7500,122.9508 L270.6000,122.9508 L270.6000,132.3008 Z"/></g><g style="fill: #FFFFFF;fill-rule: evenodd;fill-opacity: 1;" id="p1_s21"><path d="M56.7000,193.3508 L113.4000,193.3508 L113.4000,180.5008 L56.7000,180.5008 L56.7000,193.3508 Z"/></g><g style="stroke: #000000;fill:none;stroke-width: 1.1;stroke-linejoin:miter;stroke-linecap:butt;stroke-miterlimit: 10;" id="p1_s22"><path d="M63.3000,181.4008 C66.3500,181.4008 68.8500,183.8508 68.8500,186.9008 C68.8500,189.9508 66.3500,192.4508 63.3000,192.4508 C60.2500,192.4508 57.8000,189.9508 57.8000,186.9008 C57.8000,183.8508 60.2500,181.4008 63.3000,181.4008 Z"/></g><clipPath id="p1_s23" evenodd="true"><path d="M73.2500,193.3508 L112.3500,193.3508 L112.3500,180.5008 L73.2500,180.5008 L73.2500,193.3508 Z"/></clipPath><g style="fill: #FFFFFF;fill-rule: evenodd;fill-opacity: 1;" id="p1_s26"><path d="M113.4000,194.2508 L166.9500,194.2508 L166.9500,179.6008 L113.4000,179.6008 L113.4000,194.2508 Z"/></g><g style="stroke: #000000;fill:none;stroke-width: 1.1;stroke-linejoin:miter;stroke-linecap:butt;stroke-miterlimit: 10;" id="p1_s27"><path d="M120.0000,181.4008 C123.0500,181.4008 125.5500,183.8508 125.5500,186.9008 C125.5500,189.9508 123.0500,192.4508 120.0000,192.4508 C116.9500,192.4508 114.5000,189.9508 114.5000,186.9008 C114.5000,183.8508 116.9500,181.4008 120.0000,181.4008 Z"/></g><clipPath id="p1_s28" evenodd="true"><path d="M129.9500,194.2508 L165.9000,194.2508 L165.9000,179.6008 L129.9500,179.6008 L129.9500,194.2508 Z"/></clipPath><clipPath id="p1_s35"><path d="M119.5490,131.4998 L203.9010,131.4998 L203.9010,123.7518 L119.5490,123.7518 L119.5490,131.4998 Z"/></clipPath><clipPath id="p1_s38"><path d="M273.3490,129.5498 L357.0010,129.5498 L357.0010,125.7018 L273.3490,125.7018 L273.3490,129.5498 Z"/></clipPath><clipPath id="p1_s40"><path d="M119.6990,149.2498 L232.5510,149.2498 L232.5510,137.2518 L119.6990,137.2518 L119.6990,149.2498 Z"/></clipPath><clipPath id="p1_s42"><path d="M57.7990,286.2998 L68.8510,286.2998 L68.8510,275.2518 L57.7990,275.2518 L57.7990,286.2998 Z"/></clipPath><clipPath id="p1_s44"><path d="M57.7990,301.9998 L68.8510,301.9998 L68.8510,290.9518 L57.7990,290.9518 L57.7990,301.9998 Z"/></clipPath><clipPath id="p1_s46"><path d="M77.2490,350.8998 L230.8010,350.8998 L230.8010,342.4518 L77.2490,342.4518 L77.2490,350.8998 Z"/></clipPath></svg>
