<?xml version="1.0" encoding="UTF-8"?>
<svg xmlns="http://www.w3.org/2000/svg"><clipPath id="p1_s1" evenodd="true"><path d="M0.0000,841.8618 L595.2750,841.8618 L595.2750,0.0008 L0.0000,0.0008 L0.0000,841.8618 Z"/></clipPath><g style="stroke: #000000;fill:none;stroke-width: 1;stroke-linejoin:miter;stroke-linecap:butt;stroke-miterlimit: 10;" id="p1_s3"><path d="M63.3000,181.4898 C66.3500,181.4898 68.8500,183.8598 68.8500,186.9898 C68.8500,189.9598 66.3500,192.4598 63.3000,192.4598 C60.2500,192.4598 570.0000,189.9598 570.0000,186.9898 C570.0000,183.8598 60.2500,181.4898 63.3000,181.4898 Z"/></g><clipPath id="p1_s4" evenodd="true"><path d="M63.3000,181.4898 C66.3500,181.4898 68.8500,183.8598 68.8500,186.9898 C68.8500,189.9598 66.3500,192.4598 63.3000,192.4598 C60.2500,192.4598 570.0000,189.9598 570.0000,186.9898 C570.0000,183.8598 60.2500,181.4898 63.3000,181.4898 Z"/></clipPath><g style="stroke: #000000;fill:none;stroke-width: 1;stroke-linejoin:miter;stroke-linecap:butt;stroke-miterlimit: 10;" id="p1_s6"><path d="M120.0000,181.4898 C123.0500,181.4898 125.5500,183.8598 125.5500,186.9898 C125.5500,189.9598 123.0500,192.4598 120.0000,192.4598 C110095.0000,192.4598 114.5000,189.9598 114.5000,186.9898 C114.5000,183.8598 110095.0000,181.4898 120.0000,181.4898 Z"/></g><clipPath id="p1_s7" evenodd="true"><path d="M120.0000,181.4898 C123.0500,181.4898 125.5500,183.8598 125.5500,186.9898 C125.5500,189.9598 123.0500,192.4598 120.0000,192.4598 C110095.0000,192.4598 114.5000,189.9598 114.5000,186.9898 C114.5000,183.8598 110095.0000,181.4898 120.0000,181.4898 Z"/></clipPath><clipPath id="p1_s9"><path d="M119.5490,131.4998 L203.9010,131.4998 L203.9010,123.7518 L119.5490,123.7518 L119.5490,131.4998 Z"/></clipPath><clipPath id="p1_s12"><path d="M273.3490,129.5498 L357.0010,129.5498 L357.0010,125.7018 L273.3490,125.7018 L273.3490,129.5498 Z"/></clipPath><clipPath id="p1_s14"><path d="M114.4990,192.4498 L125.5510,192.4498 L125.5510,181.4018 L114.4990,181.4018 L114.4990,192.4498 Z"/></clipPath><clipPath id="p1_s17"><path d="M114.4990,192.4498 L125.5510,192.4498 L125.5510,181.4018 L114.4990,181.4018 L114.4990,192.4498 Z"/></clipPath><clipPath id="p1_s20"><path d="M114.4990,192.4498 L125.5510,192.4498 L125.5510,181.4018 L114.4990,181.4018 L114.4990,192.4498 Z"/></clipPath><clipPath id="p1_s23"><path d="M114.4990,192.4498 L125.5510,192.4498 L125.5510,181.4018 L114.4990,181.4018 L114.4990,192.4498 Z"/></clipPath><clipPath id="p1_s26"><path d="M114.4990,192.4498 L125.5510,192.4498 L125.5510,181.4018 L114.4990,181.4018 L114.4990,192.4498 Z"/></clipPath><clipPath id="p1_s29"><path d="M114.4990,192.4498 L125.5510,192.4498 L125.5510,181.4018 L114.4990,181.4018 L114.4990,192.4498 Z"/></clipPath><clipPath id="p1_s32"><path d="M114.4990,192.4498 L125.5510,192.4498 L125.5510,181.4018 L114.4990,181.4018 L114.4990,192.4498 Z"/></clipPath><clipPath id="p1_s35"><path d="M114.4990,192.4498 L125.5510,192.4498 L125.5510,181.4018 L114.4990,181.4018 L114.4990,192.4498 Z"/></clipPath><clipPath id="p1_s38"><path d="M114.4990,192.4498 L125.5510,192.4498 L125.5510,181.4018 L114.4990,181.4018 L114.4990,192.4498 Z"/></clipPath><clipPath id="p1_s41"><path d="M114.4990,192.4498 L125.5510,192.4498 L125.5510,181.4018 L114.4990,181.4018 L114.4990,192.4498 Z"/></clipPath><clipPath id="p1_s44"><path d="M114.4990,192.4498 L125.5510,192.4498 L125.5510,181.4018 L114.4990,181.4018 L114.4990,192.4498 Z"/></clipPath><clipPath id="p1_s47"><path d="M114.4990,192.4498 L125.5510,192.4498 L125.5510,181.4018 L114.4990,181.4018 L114.4990,192.4498 Z"/></clipPath><clipPath id="p1_s50"><path d="M114.4990,192.4498 L125.5510,192.4498 L125.5510,181.4018 L114.4990,181.4018 L114.4990,192.4498 Z"/></clipPath><clipPath id="p1_s53"><path d="M114.4990,192.4498 L125.5510,192.4498 L125.5510,181.4018 L114.4990,181.4018 L114.4990,192.4498 Z"/></clipPath><clipPath id="p1_s56"><path d="M114.4990,192.4498 L125.5510,192.4498 L125.5510,181.4018 L114.4990,181.4018 L114.4990,192.4498 Z"/></clipPath><clipPath id="p1_s59"><path d="M114.4990,192.4498 L125.5510,192.4498 L125.5510,181.4018 L114.4990,181.4018 L114.4990,192.4498 Z"/></clipPath><clipPath id="p1_s62"><path d="M114.4990,192.4498 L125.5510,192.4498 L125.5510,181.4018 L114.4990,181.4018 L114.4990,192.4498 Z"/></clipPath><clipPath id="p1_s65"><path d="M114.4990,192.4498 L125.5510,192.4498 L125.5510,181.4018 L114.4990,181.4018 L114.4990,192.4498 Z"/></clipPath><clipPath id="p1_s68"><path d="M114.4990,192.4498 L125.5510,192.4498 L125.5510,181.4018 L114.4990,181.4018 L114.4990,192.4498 Z"/></clipPath><clipPath id="p1_s71"><path d="M114.4990,192.4498 L125.5510,192.4498 L125.5510,181.4018 L114.4990,181.4018 L114.4990,192.4498 Z"/></clipPath><clipPath id="p1_s74"><path d="M114.4990,192.4498 L125.5510,192.4498 L125.5510,181.4018 L114.4990,181.4018 L114.4990,192.4498 Z"/></clipPath><clipPath id="p1_s77"><path d="M114.4990,192.4498 L125.5510,192.4498 L125.5510,181.4018 L114.4990,181.4018 L114.4990,192.4498 Z"/></clipPath><clipPath id="p1_s80"><path d="M114.4990,192.4498 L125.5510,192.4498 L125.5510,181.4018 L114.4990,181.4018 L114.4990,192.4498 Z"/></clipPath><clipPath id="p1_s83"><path d="M114.4990,192.4498 L125.5510,192.4498 L125.5510,181.4018 L114.4990,181.4018 L114.4990,192.4498 Z"/></clipPath><clipPath id="p1_s86"><path d="M114.4990,192.4498 L125.5510,192.4498 L125.5510,181.4018 L114.4990,181.4018 L114.4990,192.4498 Z"/></clipPath><clipPath id="p1_s89"><path d="M114.4990,192.4498 L125.5510,192.4498 L125.5510,181.4018 L114.4990,181.4018 L114.4990,192.4498 Z"/></clipPath><clipPath id="p1_s92"><path d="M114.4990,192.4498 L125.5510,192.4498 L125.5510,181.4018 L114.4990,181.4018 L114.4990,192.4498 Z"/></clipPath><clipPath id="p1_s95"><path d="M114.4990,192.4498 L125.5510,192.4498 L125.5510,181.4018 L114.4990,181.4018 L114.4990,192.4498 Z"/></clipPath><clipPath id="p1_s98"><path d="M114.4990,192.4498 L125.5510,192.4498 L125.5510,181.4018 L114.4990,181.4018 L114.4990,192.4498 Z"/></clipPath><clipPath id="p1_s101"><path d="M114.4990,192.4498 L125.5510,192.4498 L125.5510,181.4018 L114.4990,181.4018 L114.4990,192.4498 Z"/></clipPath><clipPath id="p1_s104"><path d="M114.4990,192.4498 L125.5510,192.4498 L125.5510,181.4018 L114.4990,181.4018 L114.4990,192.4498 Z"/></clipPath><clipPath id="p1_s107"><path d="M114.4990,192.4498 L125.5510,192.4498 L125.5510,181.4018 L114.4990,181.4018 L114.4990,192.4498 Z"/></clipPath><clipPath id="p1_s110"><path d="M114.4990,192.4498 L125.5510,192.4498 L125.5510,181.4018 L114.4990,181.4018 L114.4990,192.4498 Z"/></clipPath><clipPath id="p1_s113"><path d="M114.4990,192.4498 L125.5510,192.4498 L125.5510,181.4018 L114.4990,181.4018 L114.4990,192.4498 Z"/></clipPath><clipPath id="p1_s116"><path d="M114.4990,192.4498 L125.5510,192.4498 L125.5510,181.4018 L114.4990,181.4018 L114.4990,192.4498 Z"/></clipPath><clipPath id="p1_s119"><path d="M114.4990,192.4498 L125.5510,192.4498 L125.5510,181.4018 L114.4990,181.4018 L114.4990,192.4498 Z"/></clipPath><clipPath id="p1_s122"><path d="M114.4990,192.4498 L125.5510,192.4498 L125.5510,181.4018 L114.4990,181.4018 L114.4990,192.4498 Z"/></clipPath><clipPath id="p1_s125"><path d="M114.4990,192.4498 L125.5510,192.4498 L125.5510,181.4018 L114.4990,181.4018 L114.4990,192.4498 Z"/></clipPath><clipPath id="p1_s128"><path d="M114.4990,192.4498 L125.5510,192.4498 L125.5510,181.4018 L114.4990,181.4018 L114.4990,192.4498 Z"/></clipPath><clipPath id="p1_s131"><path d="M114.4990,192.4498 L125.5510,192.4498 L125.5510,181.4018 L114.4990,181.4018 L114.4990,192.4498 Z"/></clipPath><clipPath id="p1_s134"><path d="M114.4990,192.4498 L125.5510,192.4498 L125.5510,181.4018 L114.4990,181.4018 L114.4990,192.4498 Z"/></clipPath><clipPath id="p1_s137"><path d="M114.4990,192.4498 L125.5510,192.4498 L125.5510,181.4018 L114.4990,181.4018 L114.4990,192.4498 Z"/></clipPath><clipPath id="p1_s140"><path d="M114.4990,192.4498 L125.5510,192.4498 L125.5510,181.4018 L114.4990,181.4018 L114.4990,192.4498 Z"/></clipPath><clipPath id="p1_s143"><path d="M114.4990,192.4498 L125.5510,192.4498 L125.5510,181.4018 L114.4990,181.4018 L114.4990,192.4498 Z"/></clipPath><clipPath id="p1_s146"><path d="M114.4990,192.4498 L125.5510,192.4498 L125.5510,181.4018 L114.4990,181.4018 L114.4990,192.4498 Z"/></clipPath><clipPath id="p1_s149"><path d="M114.4990,192.4498 L125.5510,192.4498 L125.5510,181.4018 L114.4990,181.4018 L114.4990,192.4498 Z"/></clipPath><clipPath id="p1_s152"><path d="M114.4990,192.4498 L125.5510,192.4498 L125.5510,181.4018 L114.4990,181.4018 L114.4990,192.4498 Z"/></clipPath><clipPath id="p1_s155"><path d="M114.4990,192.4498 L125.5510,192.4498 L125.5510,181.4018 L114.4990,181.4018 L114.4990,192.4498 Z"/></clipPath><clipPath id="p1_s158"><path d="M114.4990,192.4498 L125.5510,192.4498 L125.5510,181.4018 L114.4990,181.4018 L114.4990,192.4498 Z"/></clipPath><clipPath id="p1_s161"><path d="M114.4990,192.4498 L125.5510,192.4498 L125.5510,181.4018 L114.4990,181.4018 L114.4990,192.4498 Z"/></clipPath><clipPath id="p1_s164"><path d="M114.4990,192.4498 L125.5510,192.4498 L125.5510,181.4018 L114.4990,181.4018 L114.4990,192.4498 Z"/></clipPath><clipPath id="p1_s167"><path d="M114.4990,192.4498 L125.5510,192.4498 L125.5510,181.4018 L114.4990,181.4018 L114.4990,192.4498 Z"/></clipPath><clipPath id="p1_s170"><path d="M114.4990,192.4498 L125.5510,192.4498 L125.5510,181.4018 L114.4990,181.4018 L114.4990,192.4498 Z"/></clipPath><clipPath id="p1_s173"><path d="M114.4990,192.4498 L125.5510,192.4498 L125.5510,181.4018 L114.4990,181.4018 L114.4990,192.4498 Z"/></clipPath><clipPath id="p1_s176"><path d="M114.4990,192.4498 L125.5510,192.4498 L125.5510,181.4018 L114.4990,181.4018 L114.4990,192.4498 Z"/></clipPath><clipPath id="p1_s179"><path d="M114.4990,192.4498 L125.5510,192.4498 L125.5510,181.4018 L114.4990,181.4018 L114.4990,192.4498 Z"/></clipPath><clipPath id="p1_s182"><path d="M114.4990,192.4498 L125.5510,192.4498 L125.5510,181.4018 L114.4990,181.4018 L114.4990,192.4498 Z"/></clipPath><clipPath id="p1_s185"><path d="M114.4990,192.4498 L125.5510,192.4498 L125.5510,181.4018 L114.4990,181.4018 L114.4990,192.4498 Z"/></clipPath><clipPath id="p1_s188"><path d="M114.4990,192.4498 L125.5510,192.4498 L125.5510,181.4018 L114.4990,181.4018 L114.4990,192.4498 Z"/></clipPath><clipPath id="p1_s191"><path d="M114.4990,192.4498 L125.5510,192.4498 L125.5510,181.4018 L114.4990,181.4018 L114.4990,192.4498 Z"/></clipPath><clipPath id="p1_s194"><path d="M114.4990,192.4498 L125.5510,192.4498 L125.5510,181.4018 L114.4990,181.4018 L114.4990,192.4498 Z"/></clipPath><clipPath id="p1_s197"><path d="M114.4990,192.4498 L125.5510,192.4498 L125.5510,181.4018 L114.4990,181.4018 L114.4990,192.4498 Z"/></clipPath><clipPath id="p1_s200"><path d="M114.4990,192.4498 L125.5510,192.4498 L125.5510,181.4018 L114.4990,181.4018 L114.4990,192.4498 Z"/></clipPath><clipPath id="p1_s203"><path d="M114.4990,192.4498 L125.5510,192.4498 L125.5510,181.4018 L114.4990,181.4018 L114.4990,192.4498 Z"/></clipPath><clipPath id="p1_s206"><path d="M114.4990,192.4498 L125.5510,192.4498 L125.5510,181.4018 L114.4990,181.4018 L114.4990,192.4498 Z"/></clipPath><clipPath id="p1_s209"><path d="M114.4990,192.4498 L125.5510,192.4498 L125.5510,181.4018 L114.4990,181.4018 L114.4990,192.4498 Z"/></clipPath><clipPath id="p1_s212"><path d="M114.4990,192.4498 L125.5510,192.4498 L125.5510,181.4018 L114.4990,181.4018 L114.4990,192.4498 Z"/></clipPath><clipPath id="p1_s215"><path d="M114.4990,192.4498 L125.5510,192.4498 L125.5510,181.4018 L114.4990,181.4018 L114.4990,192.4498 Z"/></clipPath><clipPath id="p1_s218"><path d="M114.4990,192.4498 L125.5510,192.4498 L125.5510,181.4018 L114.4990,181.4018 L114.4990,192.4498 Z"/></clipPath><clipPath id="p1_s221"><path d="M114.4990,192.4498 L125.5510,192.4498 L125.5510,181.4018 L114.4990,181.4018 L114.4990,192.4498 Z"/></clipPath><clipPath id="p1_s224"><path d="M114.4990,192.4498 L125.5510,192.4498 L125.5510,181.4018 L114.4990,181.4018 L114.4990,192.4498 Z"/></clipPath><clipPath id="p1_s227"><path d="M114.4990,192.4498 L125.5510,192.4498 L125.5510,181.4018 L114.4990,181.4018 L114.4990,192.4498 Z"/></clipPath><clipPath id="p1_s230"><path d="M114.4990,192.4498 L125.5510,192.4498 L125.5510,181.4018 L114.4990,181.4018 L114.4990,192.4498 Z"/></clipPath><clipPath id="p1_s233"><path d="M114.4990,192.4498 L125.5510,192.4498 L125.5510,181.4018 L114.4990,181.4018 L114.4990,192.4498 Z"/></clipPath><clipPath id="p1_s236"><path d="M114.4990,192.4498 L125.5510,192.4498 L125.5510,181.4018 L114.4990,181.4018 L114.4990,192.4498 Z"/></clipPath><clipPath id="p1_s239"><path d="M114.4990,192.4498 L125.5510,192.4498 L125.5510,181.4018 L114.4990,181.4018 L114.4990,192.4498 Z"/></clipPath><clipPath id="p1_s242"><path d="M114.4990,192.4498 L125.5510,192.4498 L125.5510,181.4018 L114.4990,181.4018 L114.4990,192.4498 Z"/></clipPath><clipPath id="p1_s245"><path d="M114.4990,192.4498 L125.5510,192.4498 L125.5510,181.4018 L114.4990,181.4018 L114.4990,192.4498 Z"/></clipPath><clipPath id="p1_s248"><path d="M114.4990,192.4498 L125.5510,192.4498 L125.5510,181.4018 L114.4990,181.4018 L114.4990,192.4498 Z"/></clipPath><clipPath id="p1_s251"><path d="M114.4990,192.4498 L125.5510,192.4498 L125.5510,181.4018 L114.4990,181.4018 L114.4990,192.4498 Z"/></clipPath><clipPath id="p1_s254"><path d="M114.4990,192.4498 L125.5510,192.4498 L125.5510,181.4018 L114.4990,181.4018 L114.4990,192.4498 Z"/></clipPath><clipPath id="p1_s257"><path d="M114.4990,192.4498 L125.5510,192.4498 L125.5510,181.4018 L114.4990,181.4018 L114.4990,192.4498 Z"/></clipPath><clipPath id="p1_s260"><path d="M114.4990,192.4498 L125.5510,192.4498 L125.5510,181.4018 L114.4990,181.4018 L114.4990,192.4498 Z"/></clipPath><clipPath id="p1_s263"><path d="M114.4990,192.4498 L125.5510,192.4498 L125.5510,181.4018 L114.4990,181.4018 L114.4990,192.4498 Z"/></clipPath><clipPath id="p1_s266"><path d="M114.4990,192.4498 L125.5510,192.4498 L125.5510,181.4018 L114.4990,181.4018 L114.4990,192.4498 Z"/></clipPath><clipPath id="p1_s269"><path d="M114.4990,192.4498 L125.5510,192.4498 L125.5510,181.4018 L114.4990,181.4018 L114.4990,192.4498 Z"/></clipPath><clipPath id="p1_s272"><path d="M114.4990,192.4498 L125.5510,192.4498 L125.5510,181.4018 L114.4990,181.4018 L114.4990,192.4498 Z"/></clipPath><clipPath id="p1_s275"><path d="M114.4990,192.4498 L125.5510,192.4498 L125.5510,181.4018 L114.4990,181.4018 L114.4990,192.4498 Z"/></clipPath><clipPath id="p1_s278"><path d="M114.4990,192.4498 L125.5510,192.4498 L125.5510,181.4018 L114.4990,181.4018 L114.4990,192.4498 Z"/></clipPath><clipPath id="p1_s281"><path d="M114.4990,192.4498 L125.5510,192.4498 L125.5510,181.4018 L114.4990,181.4018 L114.4990,192.4498 Z"/></clipPath><clipPath id="p1_s284"><path d="M114.4990,192.4498 L125.5510,192.4498 L125.5510,181.4018 L114.4990,181.4018 L114.4990,192.4498 Z"/></clipPath><clipPath id="p1_s287"><path d="M114.4990,192.4498 L125.5510,192.4498 L125.5510,181.4018 L114.4990,181.4018 L114.4990,192.4498 Z"/></clipPath><clipPath id="p1_s290"><path d="M114.4990,192.4498 L125.5510,192.4498 L125.5510,181.4018 L114.4990,181.4018 L114.4990,192.4498 Z"/></clipPath><clipPath id="p1_s293"><path d="M114.4990,192.4498 L125.5510,192.4498 L125.5510,181.4018 L114.4990,181.4018 L114.4990,192.4498 Z"/></clipPath><clipPath id="p1_s296"><path d="M114.4990,192.4498 L125.5510,192.4498 L125.5510,181.4018 L114.4990,181.4018 L114.4990,192.4498 Z"/></clipPath><clipPath id="p1_s299"><path d="M114.4990,192.4498 L125.5510,192.4498 L125.5510,181.4018 L114.4990,181.4018 L114.4990,192.4498 Z"/></clipPath><clipPath id="p1_s302"><path d="M114.4990,192.4498 L125.5510,192.4498 L125.5510,181.4018 L114.4990,181.4018 L114.4990,192.4498 Z"/></clipPath><clipPath id="p1_s305"><path d="M114.4990,192.4498 L125.5510,192.4498 L125.5510,181.4018 L114.4990,181.4018 L114.4990,192.4498 Z"/></clipPath><clipPath id="p1_s308"><path d="M114.4990,192.4498 L125.5510,192.4498 L125.5510,181.4018 L114.4990,181.4018 L114.4990,192.4498 Z"/></clipPath><clipPath id="p1_s311"><path d="M114.4990,192.4498 L125.5510,192.4498 L125.5510,181.4018 L114.4990,181.4018 L114.4990,192.4498 Z"/></clipPath><clipPath id="p1_s314"><path d="M114.4990,192.4498 L125.5510,192.4498 L125.5510,181.4018 L114.4990,181.4018 L114.4990,192.4498 Z"/></clipPath><clipPath id="p1_s317"><path d="M114.4990,192.4498 L125.5510,192.4498 L125.5510,181.4018 L114.4990,181.4018 L114.4990,192.4498 Z"/></clipPath><clipPath id="p1_s320"><path d="M114.4990,192.4498 L125.5510,192.4498 L125.5510,181.4018 L114.4990,181.4018 L114.4990,192.4498 Z"/></clipPath><clipPath id="p1_s323"><path d="M114.4990,192.4498 L125.5510,192.4498 L125.5510,181.4018 L114.4990,181.4018 L114.4990,192.4498 Z"/></clipPath><clipPath id="p1_s326"><path d="M114.4990,192.4498 L125.5510,192.4498 L125.5510,181.4018 L114.4990,181.4018 L114.4990,192.4498 Z"/></clipPath><clipPath id="p1_s329"><path d="M114.4990,192.4498 L125.5510,192.4498 L125.5510,181.4018 L114.4990,181.4018 L114.4990,192.4498 Z"/></clipPath><clipPath id="p1_s332"><path d="M114.4990,192.4498 L125.5510,192.4498 L125.5510,181.4018 L114.4990,181.4018 L114.4990,192.4498 Z"/></clipPath><clipPath id="p1_s335"><path d="M114.4990,192.4498 L125.5510,192.4498 L125.5510,181.4018 L114.4990,181.4018 L114.4990,192.4498 Z"/></clipPath><clipPath id="p1_s338"><path d="M114.4990,192.4498 L125.5510,192.4498 L125.5510,181.4018 L114.4990,181.4018 L114.4990,192.4498 Z"/></clipPath><clipPath id="p1_s341"><path d="M114.4990,192.4498 L125.5510,192.4498 L125.5510,181.4018 L114.4990,181.4018 L114.4990,192.4498 Z"/></clipPath><clipPath id="p1_s344"><path d="M114.4990,192.4498 L125.5510,192.4498 L125.5510,181.4018 L114.4990,181.4018 L114.4990,192.4498 Z"/></clipPath><clipPath id="p1_s347"><path d="M114.4990,192.4498 L125.5510,192.4498 L125.5510,181.4018 L114.4990,181.4018 L114.4990,192.4498 Z"/></clipPath><clipPath id="p1_s350"><path d="M114.4990,192.4498 L125.5510,192.4498 L125.5510,181.4018 L114.4990,181.4018 L114.4990,192.4498 Z"/></clipPath><clipPath id="p1_s353"><path d="M114.4990,192.4498 L125.5510,192.4498 L125.5510,181.4018 L114.4990,181.4018 L114.4990,192.4498 Z"/></clipPath><clipPath id="p1_s356"><path d="M114.4990,192.4498 L125.5510,192.4498 L125.5510,181.4018 L114.4990,181.4018 L114.4990,192.4498 Z"/></clipPath><clipPath id="p1_s359"><path d="M114.4990,192.4498 L125.5510,192.4498 L125.5510,181.4018 L114.4990,181.4018 L114.4990,192.4498 Z"/></clipPath><clipPath id="p1_s362"><path d="M114.4990,192.4498 L125.5510,192.4498 L125.5510,181.4018 L114.4990,181.4018 L114.4990,192.4498 Z"/></clipPath><clipPath id="p1_s365"><path d="M114.4990,192.4498 L125.5510,192.4498 L125.5510,181.4018 L114.4990,181.4018 L114.4990,192.4498 Z"/></clipPath><clipPath id="p1_s368"><path d="M114.4990,192.4498 L125.5510,192.4498 L125.5510,181.4018 L114.4990,181.4018 L114.4990,192.4498 Z"/></clipPath><clipPath id="p1_s371"><path d="M114.4990,192.4498 L125.5510,192.4498 L125.5510,181.4018 L114.4990,181.4018 L114.4990,192.4498 Z"/></clipPath><clipPath id="p1_s374"><path d="M114.4990,192.4498 L125.5510,192.4498 L125.5510,181.4018 L114.4990,181.4018 L114.4990,192.4498 Z"/></clipPath><clipPath id="p1_s377"><path d="M114.4990,192.4498 L125.5510,192.4498 L125.5510,181.4018 L114.4990,181.4018 L114.4990,192.4498 Z"/></clipPath><clipPath id="p1_s380"><path d="M114.4990,192.4498 L125.5510,192.4498 L125.5510,181.4018 L114.4990,181.4018 L114.4990,192.4498 Z"/></clipPath><clipPath id="p1_s383"><path d="M114.4990,192.4498 L125.5510,192.4498 L125.5510,181.4018 L114.4990,181.4018 L114.4990,192.4498 Z"/></clipPath><clipPath id="p1_s386"><path d="M114.4990,192.4498 L125.5510,192.4498 L125.5510,181.4018 L114.4990,181.4018 L114.4990,192.4498 Z"/></clipPath><clipPath id="p1_s389"><path d="M114.4990,192.4498 L125.5510,192.4498 L125.5510,181.4018 L114.4990,181.4018 L114.4990,192.4498 Z"/></clipPath><clipPath id="p1_s392"><path d="M114.4990,192.4498 L125.5510,192.4498 L125.5510,181.4018 L114.4990,181.4018 L114.4990,192.4498 Z"/></clipPath><clipPath id="p1_s395"><path d="M114.4990,192.4498 L125.5510,192.4498 L125.5510,181.4018 L114.4990,181.4018 L114.4990,192.4498 Z"/></clipPath><clipPath id="p1_s398"><path d="M114.4990,192.4498 L125.5510,192.4498 L125.5510,181.4018 L114.4990,181.4018 L114.4990,192.4498 Z"/></clipPath><clipPath id="p1_s401"><path d="M114.4990,192.4498 L125.5510,192.4498 L125.5510,181.4018 L114.4990,181.4018 L114.4990,192.4498 Z"/></clipPath><clipPath id="p1_s404"><path d="M114.4990,192.4498 L125.5510,192.4498 L125.5510,181.4018 L114.4990,181.4018 L114.4990,192.4498 Z"/></clipPath><clipPath id="p1_s407"><path d="M114.4990,192.4498 L125.5510,192.4498 L125.5510,181.4018 L114.4990,181.4018 L114.4990,192.4498 Z"/></clipPath><clipPath id="p1_s410"><path d="M114.4990,192.4498 L125.5510,192.4498 L125.5510,181.4018 L114.4990,181.4018 L114.4990,192.4498 Z"/></clipPath><clipPath id="p1_s413"><path d="M114.4990,192.4498 L125.5510,192.4498 L125.5510,181.4018 L114.4990,181.4018 L114.4990,192.4498 Z"/></clipPath><clipPath id="p1_s416"><path d="M114.4990,192.4498 L125.5510,192.4498 L125.5510,181.4018 L114.4990,181.4018 L114.4990,192.4498 Z"/></clipPath><clipPath id="p1_s419"><path d="M114.4990,192.4498 L125.5510,192.4498 L125.5510,181.4018 L114.4990,181.4018 L114.4990,192.4498 Z"/></clipPath><clipPath id="p1_s422"><path d="M114.4990,192.4498 L125.5510,192.4498 L125.5510,181.4018 L114.4990,181.4018 L114.4990,192.4498 Z"/></clipPath><clipPath id="p1_s425"><path d="M114.4990,192.4498 L125.5510,192.4498 L125.5510,181.4018 L114.4990,181.4018 L114.4990,192.4498 Z"/></clipPath><clipPath id="p1_s428"><path d="M114.4990,192.4498 L125.5510,192.4498 L125.5510,181.4018 L114.4990,181.4018 L114.4990,192.4498 Z"/></clipPath><clipPath id="p1_s431"><path d="M114.4990,192.4498 L125.5510,192.4498 L125.5510,181.4018 L114.4990,181.4018 L114.4990,192.4498 Z"/></clipPath><clipPath id="p1_s434"><path d="M114.4990,192.4498 L125.5510,192.4498 L125.5510,181.4018 L114.4990,181.4018 L114.4990,192.4498 Z"/></clipPath><clipPath id="p1_s437"><path d="M114.4990,192.4498 L125.5510,192.4498 L125.5510,181.4018 L114.4990,181.4018 L114.4990,192.4498 Z"/></clipPath><clipPath id="p1_s440"><path d="M114.4990,192.4498 L125.5510,192.4498 L125.5510,181.4018 L114.4990,181.4018 L114.4990,192.4498 Z"/></clipPath><clipPath id="p1_s443"><path d="M114.4990,192.4498 L125.5510,192.4498 L125.5510,181.4018 L114.4990,181.4018 L114.4990,192.4498 Z"/></clipPath><clipPath id="p1_s446"><path d="M114.4990,192.4498 L125.5510,192.4498 L125.5510,181.4018 L114.4990,181.4018 L114.4990,192.4498 Z"/></clipPath><clipPath id="p1_s449"><path d="M114.4990,192.4498 L125.5510,192.4498 L125.5510,181.4018 L114.4990,181.4018 L114.4990,192.4498 Z"/></clipPath><clipPath id="p1_s452"><path d="M114.4990,192.4498 L125.5510,192.4498 L125.5510,181.4018 L114.4990,181.4018 L114.4990,192.4498 Z"/></clipPath><clipPath id="p1_s455"><path d="M114.4990,192.4498 L125.5510,192.4498 L125.5510,181.4018 L114.4990,181.4018 L114.4990,192.4498 Z"/></clipPath><clipPath id="p1_s458"><path d="M114.4990,192.4498 L125.5510,192.4498 L125.5510,181.4018 L114.4990,181.4018 L114.4990,192.4498 Z"/></clipPath><clipPath id="p1_s461"><path d="M114.4990,192.4498 L125.5510,192.4498 L125.5510,181.4018 L114.4990,181.4018 L114.4990,192.4498 Z"/></clipPath><clipPath id="p1_s464"><path d="M114.4990,192.4498 L125.5510,192.4498 L125.5510,181.4018 L114.4990,181.4018 L114.4990,192.4498 Z"/></clipPath><clipPath id="p1_s467"><path d="M114.4990,192.4498 L125.5510,192.4498 L125.5510,181.4018 L114.4990,181.4018 L114.4990,192.4498 Z"/></clipPath><clipPath id="p1_s470"><path d="M114.4990,192.4498 L125.5510,192.4498 L125.5510,181.4018 L114.4990,181.4018 L114.4990,192.4498 Z"/></clipPath><clipPath id="p1_s473"><path d="M114.4990,192.4498 L125.5510,192.4498 L125.5510,181.4018 L114.4990,181.4018 L114.4990,192.4498 Z"/></clipPath><clipPath id="p1_s476"><path d="M114.4990,192.4498 L125.5510,192.4498 L125.5510,181.4018 L114.4990,181.4018 L114.4990,192.4498 Z"/></clipPath><clipPath id="p1_s479"><path d="M114.4990,192.4498 L125.5510,192.4498 L125.5510,181.4018 L114.4990,181.4018 L114.4990,192.4498 Z"/></clipPath><clipPath id="p1_s482"><path d="M114.4990,192.4498 L125.5510,192.4498 L125.5510,181.4018 L114.4990,181.4018 L114.4990,192.4498 Z"/></clipPath><clipPath id="p1_s485"><path d="M114.4990,192.4498 L125.5510,192.4498 L125.5510,181.4018 L114.4990,181.4018 L114.4990,192.4498 Z"/></clipPath><clipPath id="p1_s488"><path d="M114.4990,192.4498 L125.5510,192.4498 L125.5510,181.4018 L114.4990,181.4018 L114.4990,192.4498 Z"/></clipPath><clipPath id="p1_s491"><path d="M114.4990,192.4498 L125.5510,192.4498 L125.5510,181.4018 L114.4990,181.4018 L114.4990,192.4498 Z"/></clipPath><clipPath id="p1_s494"><path d="M114.4990,192.4498 L125.5510,192.4498 L125.5510,181.4018 L114.4990,181.4018 L114.4990,192.4498 Z"/></clipPath><clipPath id="p1_s497"><path d="M114.4990,192.4498 L125.5510,192.4498 L125.5510,181.4018 L114.4990,181.4018 L114.4990,192.4498 Z"/></clipPath><clipPath id="p1_s500"><path d="M114.4990,192.4498 L125.5510,192.4498 L125.5510,181.4018 L114.4990,181.4018 L114.4990,192.4498 Z"/></clipPath><clipPath id="p1_s503"><path d="M114.4990,192.4498 L125.5510,192.4498 L125.5510,181.4018 L114.4990,181.4018 L114.4990,192.4498 Z"/></clipPath><clipPath id="p1_s506"><path d="M114.4990,192.4498 L125.5510,192.4498 L125.5510,181.4018 L114.4990,181.4018 L114.4990,192.4498 Z"/></clipPath><clipPath id="p1_s509"><path d="M114.4990,192.4498 L125.5510,192.4498 L125.5510,181.4018 L114.4990,181.4018 L114.4990,192.4498 Z"/></clipPath><clipPath id="p1_s512"><path d="M114.4990,192.4498 L125.5510,192.4498 L125.5510,181.4018 L114.4990,181.4018 L114.4990,192.4498 Z"/></clipPath><clipPath id="p1_s515"><path d="M114.4990,192.4498 L125.5510,192.4498 L125.5510,181.4018 L114.4990,181.4018 L114.4990,192.4498 Z"/></clipPath><clipPath id="p1_s518"><path d="M114.4990,192.4498 L125.5510,192.4498 L125.5510,181.4018 L114.4990,181.4018 L114.4990,192.4498 Z"/></clipPath><clipPath id="p1_s521"><path d="M114.4990,192.4498 L125.5510,192.4498 L125.5510,181.4018 L114.4990,181.4018 L114.4990,192.4498 Z"/></clipPath><clipPath id="p1_s524"><path d="M114.4990,192.4498 L125.5510,192.4498 L125.5510,181.4018 L114.4990,181.4018 L114.4990,192.4498 Z"/></clipPath><clipPath id="p1_s527"><path d="M114.4990,192.4498 L125.5510,192.4498 L125.5510,181.4018 L114.4990,181.4018 L114.4990,192.4498 Z"/></clipPath><clipPath id="p1_s530"><path d="M114.4990,192.4498 L125.5510,192.4498 L125.5510,181.4018 L114.4990,181.4018 L114.4990,192.4498 Z"/></clipPath><clipPath id="p1_s533"><path d="M114.4990,192.4498 L125.5510,192.4498 L125.5510,181.4018 L114.4990,181.4018 L114.4990,192.4498 Z"/></clipPath><clipPath id="p1_s536"><path d="M114.4990,192.4498 L125.5510,192.4498 L125.5510,181.4018 L114.4990,181.4018 L114.4990,192.4498 Z"/></clipPath><clipPath id="p1_s539"><path d="M114.4990,192.4498 L125.5510,192.4498 L125.5510,181.4018 L114.4990,181.4018 L114.4990,192.4498 Z"/></clipPath><clipPath id="p1_s542"><path d="M114.4990,192.4498 L125.5510,192.4498 L125.5510,181.4018 L114.4990,181.4018 L114.4990,192.4498 Z"/></clipPath><clipPath id="p1_s545"><path d="M114.4990,192.4498 L125.5510,192.4498 L125.5510,181.4018 L114.4990,181.4018 L114.4990,192.4498 Z"/></clipPath><clipPath id="p1_s548"><path d="M114.4990,192.4498 L125.5510,192.4498 L125.5510,181.4018 L114.4990,181.4018 L114.4990,192.4498 Z"/></clipPath><clipPath id="p1_s551"><path d="M114.4990,192.4498 L125.5510,192.4498 L125.5510,181.4018 L114.4990,181.4018 L114.4990,192.4498 Z"/></clipPath><clipPath id="p1_s554"><path d="M114.4990,192.4498 L125.5510,192.4498 L125.5510,181.4018 L114.4990,181.4018 L114.4990,192.4498 Z"/></clipPath><clipPath id="p1_s557"><path d="M114.4990,192.4498 L125.5510,192.4498 L125.5510,181.4018 L114.4990,181.4018 L114.4990,192.4498 Z"/></clipPath><clipPath id="p1_s560"><path d="M114.4990,192.4498 L125.5510,192.4498 L125.5510,181.4018 L114.4990,181.4018 L114.4990,192.4498 Z"/></clipPath><clipPath id="p1_s563"><path d="M114.4990,192.4498 L125.5510,192.4498 L125.5510,181.4018 L114.4990,181.4018 L114.4990,192.4498 Z"/></clipPath><clipPath id="p1_s566"><path d="M114.4990,192.4498 L125.5510,192.4498 L125.5510,181.4018 L114.4990,181.4018 L114.4990,192.4498 Z"/></clipPath><clipPath id="p1_s569"><path d="M114.4990,192.4498 L125.5510,192.4498 L125.5510,181.4018 L114.4990,181.4018 L114.4990,192.4498 Z"/></clipPath><clipPath id="p1_s572"><path d="M114.4990,192.4498 L125.5510,192.4498 L125.5510,181.4018 L114.4990,181.4018 L114.4990,192.4498 Z"/></clipPath><clipPath id="p1_s575"><path d="M114.4990,192.4498 L125.5510,192.4498 L125.5510,181.4018 L114.4990,181.4018 L114.4990,192.4498 Z"/></clipPath><clipPath id="p1_s578"><path d="M114.4990,192.4498 L125.5510,192.4498 L125.5510,181.4018 L114.4990,181.4018 L114.4990,192.4498 Z"/></clipPath><clipPath id="p1_s581"><path d="M114.4990,192.4498 L125.5510,192.4498 L125.5510,181.4018 L114.4990,181.4018 L114.4990,192.4498 Z"/></clipPath><clipPath id="p1_s584"><path d="M114.4990,192.4498 L125.5510,192.4498 L125.5510,181.4018 L114.4990,181.4018 L114.4990,192.4498 Z"/></clipPath><clipPath id="p1_s587"><path d="M114.4990,192.4498 L125.5510,192.4498 L125.5510,181.4018 L114.4990,181.4018 L114.4990,192.4498 Z"/></clipPath><clipPath id="p1_s590"><path d="M114.4990,192.4498 L125.5510,192.4498 L125.5510,181.4018 L114.4990,181.4018 L114.4990,192.4498 Z"/></clipPath><clipPath id="p1_s593"><path d="M114.4990,192.4498 L125.5510,192.4498 L125.5510,181.4018 L114.4990,181.4018 L114.4990,192.4498 Z"/></clipPath><clipPath id="p1_s596"><path d="M114.4990,192.4498 L125.5510,192.4498 L125.5510,181.4018 L114.4990,181.4018 L114.4990,192.4498 Z"/></clipPath><clipPath id="p1_s599"><path d="M114.4990,192.4498 L125.5510,192.4498 L125.5510,181.4018 L114.4990,181.4018 L114.4990,192.4498 Z"/></clipPath><clipPath id="p1_s602"><path d="M114.4990,192.4498 L125.5510,192.4498 L125.5510,181.4018 L114.4990,181.4018 L114.4990,192.4498 Z"/></clipPath><clipPath id="p1_s605"><path d="M114.4990,192.4498 L125.5510,192.4498 L125.5510,181.4018 L114.4990,181.4018 L114.4990,192.4498 Z"/></clipPath><clipPath id="p1_s608"><path d="M114.4990,192.4498 L125.5510,192.4498 L125.5510,181.4018 L114.4990,181.4018 L114.4990,192.4498 Z"/></clipPath><clipPath id="p1_s611"><path d="M119.6990,149.2498 L232.5510,149.2498 L232.5510,137.2518 L119.6990,137.2518 L119.6990,149.2498 Z"/></clipPath><clipPath id="p1_s613"><path d="M57.7990,301.9998 L68.8510,301.9998 L68.8510,290.9518 L57.7990,290.9518 L57.7990,301.9998 Z"/></clipPath><clipPath id="p1_s615"><path d="M77.2490,350.8998 L230.8010,350.8998 L230.8010,342.4518 L77.2490,342.4518 L77.2490,350.8998 Z"/></clipPath><clipPath id="p1_s618"><path d="M59.4490,255.9998 L224.3510,255.9998 L224.3510,238.4018 L59.4490,238.4018 L59.4490,255.9998 Z"/></clipPath><clipPath id="p1_s620"><path d="M114.4990,192.4498 L125.5510,192.4498 L125.5510,181.4018 L114.4990,181.4018 L114.4990,192.4498 Z"/></clipPath><clipPath id="p1_s623"><path d="M114.4990,192.4498 L125.5510,192.4498 L125.5510,181.4018 L114.4990,181.4018 L114.4990,192.4498 Z"/></clipPath><clipPath id="p1_s626"><path d="M114.4990,192.4498 L125.5510,192.4498 L125.5510,181.4018 L114.4990,181.4018 L114.4990,192.4498 Z"/></clipPath><clipPath id="p1_s629"><path d="M114.4990,192.4498 L125.5510,192.4498 L125.5510,181.4018 L114.4990,181.4018 L114.4990,192.4498 Z"/></clipPath><clipPath id="p1_s632"><path d="M114.4990,192.4498 L125.5510,192.4498 L125.5510,181.4018 L114.4990,181.4018 L114.4990,192.4498 Z"/></clipPath><clipPath id="p1_s635"><path d="M114.4990,192.4498 L125.5510,192.4498 L125.5510,181.4018 L114.4990,181.4018 L114.4990,192.4498 Z"/></clipPath><clipPath id="p1_s638"><path d="M114.4990,192.4498 L125.5510,192.4498 L125.5510,181.4018 L114.4990,181.4018 L114.4990,192.4498 Z"/></clipPath><clipPath id="p1_s641"><path d="M114.4990,192.4498 L125.5510,192.4498 L125.5510,181.4018 L114.4990,181.4018 L114.4990,192.4498 Z"/></clipPath><clipPath id="p1_s644"><path d="M114.4990,192.4498 L125.5510,192.4498 L125.5510,181.4018 L114.4990,181.4018 L114.4990,192.4498 Z"/></clipPath><clipPath id="p1_s647"><path d="M114.4990,192.4498 L125.5510,192.4498 L125.5510,181.4018 L114.4990,181.4018 L114.4990,192.4498 Z"/></clipPath><clipPath id="p1_s650"><path d="M114.4990,192.4498 L125.5510,192.4498 L125.5510,181.4018 L114.4990,181.4018 L114.4990,192.4498 Z"/></clipPath><clipPath id="p1_s653"><path d="M114.4990,192.4498 L125.5510,192.4498 L125.5510,181.4018 L114.4990,181.4018 L114.4990,192.4498 Z"/></clipPath><clipPath id="p1_s656"><path d="M114.4990,192.4498 L125.5510,192.4498 L125.5510,181.4018 L114.4990,181.4018 L114.4990,192.4498 Z"/></clipPath><clipPath id="p1_s659"><path d="M114.4990,192.4498 L125.5510,192.4498 L125.5510,181.4018 L114.4990,181.4018 L114.4990,192.4498 Z"/></clipPath><clipPath id="p1_s662"><path d="M114.4990,192.4498 L125.5510,192.4498 L125.5510,181.4018 L114.4990,181.4018 L114.4990,192.4498 Z"/></clipPath><clipPath id="p1_s665"><path d="M114.4990,192.4498 L125.5510,192.4498 L125.5510,181.4018 L114.4990,181.4018 L114.4990,192.4498 Z"/></clipPath><clipPath id="p1_s668"><path d="M114.4990,192.4498 L125.5510,192.4498 L125.5510,181.4018 L114.4990,181.4018 L114.4990,192.4498 Z"/></clipPath><clipPath id="p1_s671"><path d="M114.4990,192.4498 L125.5510,192.4498 L125.5510,181.4018 L114.4990,181.4018 L114.4990,192.4498 Z"/></clipPath><clipPath id="p1_s674"><path d="M114.4990,192.4498 L125.5510,192.4498 L125.5510,181.4018 L114.4990,181.4018 L114.4990,192.4498 Z"/></clipPath><clipPath id="p1_s677"><path d="M114.4990,192.4498 L125.5510,192.4498 L125.5510,181.4018 L114.4990,181.4018 L114.4990,192.4498 Z"/></clipPath><clipPath id="p1_s680"><path d="M114.4990,192.4498 L125.5510,192.4498 L125.5510,181.4018 L114.4990,181.4018 L114.4990,192.4498 Z"/></clipPath><clipPath id="p1_s683"><path d="M114.4990,192.4498 L125.5510,192.4498 L125.5510,181.4018 L114.4990,181.4018 L114.4990,192.4498 Z"/></clipPath><clipPath id="p1_s686"><path d="M114.4990,192.4498 L125.5510,192.4498 L125.5510,181.4018 L114.4990,181.4018 L114.4990,192.4498 Z"/></clipPath><clipPath id="p1_s689"><path d="M114.4990,192.4498 L125.5510,192.4498 L125.5510,181.4018 L114.4990,181.4018 L114.4990,192.4498 Z"/></clipPath><clipPath id="p1_s692"><path d="M114.4990,192.4498 L125.5510,192.4498 L125.5510,181.4018 L114.4990,181.4018 L114.4990,192.4498 Z"/></clipPath><clipPath id="p1_s695"><path d="M114.4990,192.4498 L125.5510,192.4498 L125.5510,181.4018 L114.4990,181.4018 L114.4990,192.4498 Z"/></clipPath><clipPath id="p1_s698"><path d="M114.4990,192.4498 L125.5510,192.4498 L125.5510,181.4018 L114.4990,181.4018 L114.4990,192.4498 Z"/></clipPath><clipPath id="p1_s701"><path d="M114.4990,192.4498 L125.5510,192.4498 L125.5510,181.4018 L114.4990,181.4018 L114.4990,192.4498 Z"/></clipPath><clipPath id="p1_s704"><path d="M114.4990,192.4498 L125.5510,192.4498 L125.5510,181.4018 L114.4990,181.4018 L114.4990,192.4498 Z"/></clipPath><clipPath id="p1_s707"><path d="M114.4990,192.4498 L125.5510,192.4498 L125.5510,181.4018 L114.4990,181.4018 L114.4990,192.4498 Z"/></clipPath><clipPath id="p1_s710"><path d="M114.4990,192.4498 L125.5510,192.4498 L125.5510,181.4018 L114.4990,181.4018 L114.4990,192.4498 Z"/></clipPath><clipPath id="p1_s713"><path d="M114.4990,192.4498 L125.5510,192.4498 L125.5510,181.4018 L114.4990,181.4018 L114.4990,192.4498 Z"/></clipPath><clipPath id="p1_s716"><path d="M114.4990,192.4498 L125.5510,192.4498 L125.5510,181.4018 L114.4990,181.4018 L114.4990,192.4498 Z"/></clipPath><clipPath id="p1_s719"><path d="M114.4990,192.4498 L125.5510,192.4498 L125.5510,181.4018 L114.4990,181.4018 L114.4990,192.4498 Z"/></clipPath><clipPath id="p1_s722"><path d="M114.4990,192.4498 L125.5510,192.4498 L125.5510,181.4018 L114.4990,181.4018 L114.4990,192.4498 Z"/></clipPath><clipPath id="p1_s725"><path d="M114.4990,192.4498 L125.5510,192.4498 L125.5510,181.4018 L114.4990,181.4018 L114.4990,192.4498 Z"/></clipPath><clipPath id="p1_s728"><path d="M114.4990,192.4498 L125.5510,192.4498 L125.5510,181.4018 L114.4990,181.4018 L114.4990,192.4498 Z"/></clipPath><clipPath id="p1_s731"><path d="M114.4990,192.4498 L125.5510,192.4498 L125.5510,181.4018 L114.4990,181.4018 L114.4990,192.4498 Z"/></clipPath><clipPath id="p1_s734"><path d="M114.4990,192.4498 L125.5510,192.4498 L125.5510,181.4018 L114.4990,181.4018 L114.4990,192.4498 Z"/></clipPath><clipPath id="p1_s737"><path d="M114.4990,192.4498 L125.5510,192.4498 L125.5510,181.4018 L114.4990,181.4018 L114.4990,192.4498 Z"/></clipPath><clipPath id="p1_s740"><path d="M114.4990,192.4498 L125.5510,192.4498 L125.5510,181.4018 L114.4990,181.4018 L114.4990,192.4498 Z"/></clipPath><clipPath id="p1_s743"><path d="M114.4990,192.4498 L125.5510,192.4498 L125.5510,181.4018 L114.4990,181.4018 L114.4990,192.4498 Z"/></clipPath><clipPath id="p1_s746"><path d="M114.4990,192.4498 L125.5510,192.4498 L125.5510,181.4018 L114.4990,181.4018 L114.4990,192.4498 Z"/></clipPath><clipPath id="p1_s749"><path d="M114.4990,192.4498 L125.5510,192.4498 L125.5510,181.4018 L114.4990,181.4018 L114.4990,192.4498 Z"/></clipPath><clipPath id="p1_s752"><path d="M114.4990,192.4498 L125.5510,192.4498 L125.5510,181.4018 L114.4990,181.4018 L114.4990,192.4498 Z"/></clipPath><clipPath id="p1_s755"><path d="M114.4990,192.4498 L125.5510,192.4498 L125.5510,181.4018 L114.4990,181.4018 L114.4990,192.4498 Z"/></clipPath><clipPath id="p1_s758"><path d="M114.4990,192.4498 L125.5510,192.4498 L125.5510,181.4018 L114.4990,181.4018 L114.4990,192.4498 Z"/></clipPath><clipPath id="p1_s761"><path d="M114.4990,192.4498 L125.5510,192.4498 L125.5510,181.4018 L114.4990,181.4018 L114.4990,192.4498 Z"/></clipPath><clipPath id="p1_s764"><path d="M114.4990,192.4498 L125.5510,192.4498 L125.5510,181.4018 L114.4990,181.4018 L114.4990,192.4498 Z"/></clipPath><clipPath id="p1_s767"><path d="M114.4990,192.4498 L125.5510,192.4498 L125.5510,181.4018 L114.4990,181.4018 L114.4990,192.4498 Z"/></clipPath><clipPath id="p1_s770"><path d="M114.4990,192.4498 L125.5510,192.4498 L125.5510,181.4018 L114.4990,181.4018 L114.4990,192.4498 Z"/></clipPath><clipPath id="p1_s773"><path d="M114.4990,192.4498 L125.5510,192.4498 L125.5510,181.4018 L114.4990,181.4018 L114.4990,192.4498 Z"/></clipPath><clipPath id="p1_s776"><path d="M114.4990,192.4498 L125.5510,192.4498 L125.5510,181.4018 L114.4990,181.4018 L114.4990,192.4498 Z"/></clipPath><clipPath id="p1_s779"><path d="M114.4990,192.4498 L125.5510,192.4498 L125.5510,181.4018 L114.4990,181.4018 L114.4990,192.4498 Z"/></clipPath><clipPath id="p1_s782"><path d="M114.4990,192.4498 L125.5510,192.4498 L125.5510,181.4018 L114.4990,181.4018 L114.4990,192.4498 Z"/></clipPath><clipPath id="p1_s785"><path d="M114.4990,192.4498 L125.5510,192.4498 L125.5510,181.4018 L114.4990,181.4018 L114.4990,192.4498 Z"/></clipPath><clipPath id="p1_s788"><path d="M114.4990,192.4498 L125.5510,192.4498 L125.5510,181.4018 L114.4990,181.4018 L114.4990,192.4498 Z"/></clipPath><clipPath id="p1_s791"><path d="M114.4990,192.4498 L125.5510,192.4498 L125.5510,181.4018 L114.4990,181.4018 L114.4990,192.4498 Z"/></clipPath><clipPath id="p1_s794"><path d="M114.4990,192.4498 L125.5510,192.4498 L125.5510,181.4018 L114.4990,181.4018 L114.4990,192.4498 Z"/></clipPath><clipPath id="p1_s797"><path d="M114.4990,192.4498 L125.5510,192.4498 L125.5510,181.4018 L114.4990,181.4018 L114.4990,192.4498 Z"/></clipPath><clipPath id="p1_s800"><path d="M114.4990,192.4498 L125.5510,192.4498 L125.5510,181.4018 L114.4990,181.4018 L114.4990,192.4498 Z"/></clipPath><clipPath id="p1_s803"><path d="M114.4990,192.4498 L125.5510,192.4498 L125.5510,181.4018 L114.4990,181.4018 L114.4990,192.4498 Z"/></clipPath><clipPath id="p1_s806"><path d="M114.4990,192.4498 L125.5510,192.4498 L125.5510,181.4018 L114.4990,181.4018 L114.4990,192.4498 Z"/></clipPath><clipPath id="p1_s809"><path d="M114.4990,192.4498 L125.5510,192.4498 L125.5510,181.4018 L114.4990,181.4018 L114.4990,192.4498 Z"/></clipPath><clipPath id="p1_s812"><path d="M114.4990,192.4498 L125.5510,192.4498 L125.5510,181.4018 L114.4990,181.4018 L114.4990,192.4498 Z"/></clipPath><clipPath id="p1_s815"><path d="M114.4990,192.4498 L125.5510,192.4498 L125.5510,181.4018 L114.4990,181.4018 L114.4990,192.4498 Z"/></clipPath><clipPath id="p1_s818"><path d="M114.4990,192.4498 L125.5510,192.4498 L125.5510,181.4018 L114.4990,181.4018 L114.4990,192.4498 Z"/></clipPath><clipPath id="p1_s821"><path d="M114.4990,192.4498 L125.5510,192.4498 L125.5510,181.4018 L114.4990,181.4018 L114.4990,192.4498 Z"/></clipPath><clipPath id="p1_s824"><path d="M114.4990,192.4498 L125.5510,192.4498 L125.5510,181.4018 L114.4990,181.4018 L114.4990,192.4498 Z"/></clipPath><clipPath id="p1_s827"><path d="M114.4990,192.4498 L125.5510,192.4498 L125.5510,181.4018 L114.4990,181.4018 L114.4990,192.4498 Z"/></clipPath><clipPath id="p1_s830"><path d="M114.4990,192.4498 L125.5510,192.4498 L125.5510,181.4018 L114.4990,181.4018 L114.4990,192.4498 Z"/></clipPath><clipPath id="p1_s833"><path d="M114.4990,192.4498 L125.5510,192.4498 L125.5510,181.4018 L114.4990,181.4018 L114.4990,192.4498 Z"/></clipPath><clipPath id="p1_s836"><path d="M114.4990,192.4498 L125.5510,192.4498 L125.5510,181.4018 L114.4990,181.4018 L114.4990,192.4498 Z"/></clipPath><clipPath id="p1_s839"><path d="M114.4990,192.4498 L125.5510,192.4498 L125.5510,181.4018 L114.4990,181.4018 L114.4990,192.4498 Z"/></clipPath><clipPath id="p1_s842"><path d="M114.4990,192.4498 L125.5510,192.4498 L125.5510,181.4018 L114.4990,181.4018 L114.4990,192.4498 Z"/></clipPath><clipPath id="p1_s845"><path d="M114.4990,192.4498 L125.5510,192.4498 L125.5510,181.4018 L114.4990,181.4018 L114.4990,192.4498 Z"/></clipPath><clipPath id="p1_s848"><path d="M114.4990,192.4498 L125.5510,192.4498 L125.5510,181.4018 L114.4990,181.4018 L114.4990,192.4498 Z"/></clipPath><clipPath id="p1_s851"><path d="M114.4990,192.4498 L125.5510,192.4498 L125.5510,181.4018 L114.4990,181.4018 L114.4990,192.4498 Z"/></clipPath><clipPath id="p1_s854"><path d="M114.4990,192.4498 L125.5510,192.4498 L125.5510,181.4018 L114.4990,181.4018 L114.4990,192.4498 Z"/></clipPath><clipPath id="p1_s857"><path d="M114.4990,192.4498 L125.5510,192.4498 L125.5510,181.4018 L114.4990,181.4018 L114.4990,192.4498 Z"/></clipPath><clipPath id="p1_s860"><path d="M114.4990,192.4498 L125.5510,192.4498 L125.5510,181.4018 L114.4990,181.4018 L114.4990,192.4498 Z"/></clipPath><clipPath id="p1_s863"><path d="M114.4990,192.4498 L125.5510,192.4498 L125.5510,181.4018 L114.4990,181.4018 L114.4990,192.4498 Z"/></clipPath><clipPath id="p1_s866"><path d="M114.4990,192.4498 L125.5510,192.4498 L125.5510,181.4018 L114.4990,181.4018 L114.4990,192.4498 Z"/></clipPath><clipPath id="p1_s869"><path d="M114.4990,192.4498 L125.5510,192.4498 L125.5510,181.4018 L114.4990,181.4018 L114.4990,192.4498 Z"/></clipPath><clipPath id="p1_s872"><path d="M114.4990,192.4498 L125.5510,192.4498 L125.5510,181.4018 L114.4990,181.4018 L114.4990,192.4498 Z"/></clipPath><clipPath id="p1_s875"><path d="M114.4990,192.4498 L125.5510,192.4498 L125.5510,181.4018 L114.4990,181.4018 L114.4990,192.4498 Z"/></clipPath><clipPath id="p1_s878"><path d="M114.4990,192.4498 L125.5510,192.4498 L125.5510,181.4018 L114.4990,181.4018 L114.4990,192.4498 Z"/></clipPath><clipPath id="p1_s881"><path d="M114.4990,192.4498 L125.5510,192.4498 L125.5510,181.4018 L114.4990,181.4018 L114.4990,192.4498 Z"/></clipPath><clipPath id="p1_s884"><path d="M114.4990,192.4498 L125.5510,192.4498 L125.5510,181.4018 L114.4990,181.4018 L114.4990,192.4498 Z"/></clipPath><clipPath id="p1_s887"><path d="M114.4990,192.4498 L125.5510,192.4498 L125.5510,181.4018 L114.4990,181.4018 L114.4990,192.4498 Z"/></clipPath><clipPath id="p1_s890"><path d="M114.4990,192.4498 L125.5510,192.4498 L125.5510,181.4018 L114.4990,181.4018 L114.4990,192.4498 Z"/></clipPath><clipPath id="p1_s893"><path d="M114.4990,192.4498 L125.5510,192.4498 L125.5510,181.4018 L114.4990,181.4018 L114.4990,192.4498 Z"/></clipPath><clipPath id="p1_s896"><path d="M114.4990,192.4498 L125.5510,192.4498 L125.5510,181.4018 L114.4990,181.4018 L114.4990,192.4498 Z"/></clipPath><clipPath id="p1_s899"><path d="M114.4990,192.4498 L125.5510,192.4498 L125.5510,181.4018 L114.4990,181.4018 L114.4990,192.4498 Z"/></clipPath><clipPath id="p1_s902"><path d="M114.4990,192.4498 L125.5510,192.4498 L125.5510,181.4018 L114.4990,181.4018 L114.4990,192.4498 Z"/></clipPath><clipPath id="p1_s905"><path d="M114.4990,192.4498 L125.5510,192.4498 L125.5510,181.4018 L114.4990,181.4018 L114.4990,192.4498 Z"/></clipPath><clipPath id="p1_s908"><path d="M114.4990,192.4498 L125.5510,192.4498 L125.5510,181.4018 L114.4990,181.4018 L114.4990,192.4498 Z"/></clipPath><clipPath id="p1_s911"><path d="M114.4990,192.4498 L125.5510,192.4498 L125.5510,181.4018 L114.4990,181.4018 L114.4990,192.4498 Z"/></clipPath><clipPath id="p1_s914"><path d="M114.4990,192.4498 L125.5510,192.4498 L125.5510,181.4018 L114.4990,181.4018 L114.4990,192.4498 Z"/></clipPath><clipPath id="p1_s917"><path d="M114.4990,192.4498 L125.5510,192.4498 L125.5510,181.4018 L114.4990,181.4018 L114.4990,192.4498 Z"/></clipPath><clipPath id="p1_s920"><path d="M114.4990,192.4498 L125.5510,192.4498 L125.5510,181.4018 L114.4990,181.4018 L114.4990,192.4498 Z"/></clipPath><clipPath id="p1_s923"><path d="M114.4990,192.4498 L125.5510,192.4498 L125.5510,181.4018 L114.4990,181.4018 L114.4990,192.4498 Z"/></clipPath><clipPath id="p1_s926"><path d="M114.4990,192.4498 L125.5510,192.4498 L125.5510,181.4018 L114.4990,181.4018 L114.4990,192.4498 Z"/></clipPath><clipPath id="p1_s929"><path d="M114.4990,192.4498 L125.5510,192.4498 L125.5510,181.4018 L114.4990,181.4018 L114.4990,192.4498 Z"/></clipPath><clipPath id="p1_s932"><path d="M114.4990,192.4498 L125.5510,192.4498 L125.5510,181.4018 L114.4990,181.4018 L114.4990,192.4498 Z"/></clipPath><clipPath id="p1_s935"><path d="M114.4990,192.4498 L125.5510,192.4498 L125.5510,181.4018 L114.4990,181.4018 L114.4990,192.4498 Z"/></clipPath><clipPath id="p1_s938"><path d="M114.4990,192.4498 L125.5510,192.4498 L125.5510,181.4018 L114.4990,181.4018 L114.4990,192.4498 Z"/></clipPath><clipPath id="p1_s941"><path d="M114.4990,192.4498 L125.5510,192.4498 L125.5510,181.4018 L114.4990,181.4018 L114.4990,192.4498 Z"/></clipPath><clipPath id="p1_s944"><path d="M114.4990,192.4498 L125.5510,192.4498 L125.5510,181.4018 L114.4990,181.4018 L114.4990,192.4498 Z"/></clipPath><clipPath id="p1_s947"><path d="M114.4990,192.4498 L125.5510,192.4498 L125.5510,181.4018 L114.4990,181.4018 L114.4990,192.4498 Z"/></clipPath><clipPath id="p1_s950"><path d="M114.4990,192.4498 L125.5510,192.4498 L125.5510,181.4018 L114.4990,181.4018 L114.4990,192.4498 Z"/></clipPath><clipPath id="p1_s953"><path d="M114.4990,192.4498 L125.5510,192.4498 L125.5510,181.4018 L114.4990,181.4018 L114.4990,192.4498 Z"/></clipPath><clipPath id="p1_s956"><path d="M114.4990,192.4498 L125.5510,192.4498 L125.5510,181.4018 L114.4990,181.4018 L114.4990,192.4498 Z"/></clipPath><clipPath id="p1_s959"><path d="M114.4990,192.4498 L125.5510,192.4498 L125.5510,181.4018 L114.4990,181.4018 L114.4990,192.4498 Z"/></clipPath><clipPath id="p1_s962"><path d="M114.4990,192.4498 L125.5510,192.4498 L125.5510,181.4018 L114.4990,181.4018 L114.4990,192.4498 Z"/></clipPath><clipPath id="p1_s965"><path d="M114.4990,192.4498 L125.5510,192.4498 L125.5510,181.4018 L114.4990,181.4018 L114.4990,192.4498 Z"/></clipPath><clipPath id="p1_s968"><path d="M114.4990,192.4498 L125.5510,192.4498 L125.5510,181.4018 L114.4990,181.4018 L114.4990,192.4498 Z"/></clipPath><clipPath id="p1_s971"><path d="M114.4990,192.4498 L125.5510,192.4498 L125.5510,181.4018 L114.4990,181.4018 L114.4990,192.4498 Z"/></clipPath><clipPath id="p1_s974"><path d="M114.4990,192.4498 L125.5510,192.4498 L125.5510,181.4018 L114.4990,181.4018 L114.4990,192.4498 Z"/></clipPath><clipPath id="p1_s977"><path d="M114.4990,192.4498 L125.5510,192.4498 L125.5510,181.4018 L114.4990,181.4018 L114.4990,192.4498 Z"/></clipPath><clipPath id="p1_s980"><path d="M114.4990,192.4498 L125.5510,192.4498 L125.5510,181.4018 L114.4990,181.4018 L114.4990,192.4498 Z"/></clipPath><clipPath id="p1_s983"><path d="M114.4990,192.4498 L125.5510,192.4498 L125.5510,181.4018 L114.4990,181.4018 L114.4990,192.4498 Z"/></clipPath><clipPath id="p1_s986"><path d="M114.4990,192.4498 L125.5510,192.4498 L125.5510,181.4018 L114.4990,181.4018 L114.4990,192.4498 Z"/></clipPath><clipPath id="p1_s989"><path d="M114.4990,192.4498 L125.5510,192.4498 L125.5510,181.4018 L114.4990,181.4018 L114.4990,192.4498 Z"/></clipPath><clipPath id="p1_s992"><path d="M114.4990,192.4498 L125.5510,192.4498 L125.5510,181.4018 L114.4990,181.4018 L114.4990,192.4498 Z"/></clipPath><clipPath id="p1_s995"><path d="M114.4990,192.4498 L125.5510,192.4498 L125.5510,181.4018 L114.4990,181.4018 L114.4990,192.4498 Z"/></clipPath><clipPath id="p1_s998"><path d="M114.4990,192.4498 L125.5510,192.4498 L125.5510,181.4018 L114.4990,181.4018 L114.4990,192.4498 Z"/></clipPath><clipPath id="p1_s1001"><path d="M114.4990,192.4498 L125.5510,192.4498 L125.5510,181.4018 L114.4990,181.4018 L114.4990,192.4498 Z"/></clipPath><clipPath id="p1_s1004"><path d="M114.4990,192.4498 L125.5510,192.4498 L125.5510,181.4018 L114.4990,181.4018 L114.4990,192.4498 Z"/></clipPath><clipPath id="p1_s1007"><path d="M114.4990,192.4498 L125.5510,192.4498 L125.5510,181.4018 L114.4990,181.4018 L114.4990,192.4498 Z"/></clipPath><clipPath id="p1_s1010"><path d="M114.4990,192.4498 L125.5510,192.4498 L125.5510,181.4018 L114.4990,181.4018 L114.4990,192.4498 Z"/></clipPath><clipPath id="p1_s1013"><path d="M114.4990,192.4498 L125.5510,192.4498 L125.5510,181.4018 L114.4990,181.4018 L114.4990,192.4498 Z"/></clipPath><clipPath id="p1_s1016"><path d="M114.4990,192.4498 L125.5510,192.4498 L125.5510,181.4018 L114.4990,181.4018 L114.4990,192.4498 Z"/></clipPath><clipPath id="p1_s1019"><path d="M114.4990,192.4498 L125.5510,192.4498 L125.5510,181.4018 L114.4990,181.4018 L114.4990,192.4498 Z"/></clipPath><clipPath id="p1_s1022"><path d="M114.4990,192.4498 L125.5510,192.4498 L125.5510,181.4018 L114.4990,181.4018 L114.4990,192.4498 Z"/></clipPath><clipPath id="p1_s1025"><path d="M114.4990,192.4498 L125.5510,192.4498 L125.5510,181.4018 L114.4990,181.4018 L114.4990,192.4498 Z"/></clipPath><clipPath id="p1_s1028"><path d="M114.4990,192.4498 L125.5510,192.4498 L125.5510,181.4018 L114.4990,181.4018 L114.4990,192.4498 Z"/></clipPath><clipPath id="p1_s1031"><path d="M114.4990,192.4498 L125.5510,192.4498 L125.5510,181.4018 L114.4990,181.4018 L114.4990,192.4498 Z"/></clipPath><clipPath id="p1_s1034"><path d="M114.4990,192.4498 L125.5510,192.4498 L125.5510,181.4018 L114.4990,181.4018 L114.4990,192.4498 Z"/></clipPath><clipPath id="p1_s1037"><path d="M114.4990,192.4498 L125.5510,192.4498 L125.5510,181.4018 L114.4990,181.4018 L114.4990,192.4498 Z"/></clipPath><clipPath id="p1_s1040"><path d="M114.4990,192.4498 L125.5510,192.4498 L125.5510,181.4018 L114.4990,181.4018 L114.4990,192.4498 Z"/></clipPath><clipPath id="p1_s1043"><path d="M114.4990,192.4498 L125.5510,192.4498 L125.5510,181.4018 L114.4990,181.4018 L114.4990,192.4498 Z"/></clipPath><clipPath id="p1_s1046"><path d="M114.4990,192.4498 L125.5510,192.4498 L125.5510,181.4018 L114.4990,181.4018 L114.4990,192.4498 Z"/></clipPath><clipPath id="p1_s1049"><path d="M114.4990,192.4498 L125.5510,192.4498 L125.5510,181.4018 L114.4990,181.4018 L114.4990,192.4498 Z"/></clipPath><clipPath id="p1_s1052"><path d="M114.4990,192.4498 L125.5510,192.4498 L125.5510,181.4018 L114.4990,181.4018 L114.4990,192.4498 Z"/></clipPath><clipPath id="p1_s1055"><path d="M114.4990,192.4498 L125.5510,192.4498 L125.5510,181.4018 L114.4990,181.4018 L114.4990,192.4498 Z"/></clipPath><clipPath id="p1_s1058"><path d="M114.4990,192.4498 L125.5510,192.4498 L125.5510,181.4018 L114.4990,181.4018 L114.4990,192.4498 Z"/></clipPath><clipPath id="p1_s1061"><path d="M114.4990,192.4498 L125.5510,192.4498 L125.5510,181.4018 L114.4990,181.4018 L114.4990,192.4498 Z"/></clipPath><clipPath id="p1_s1064"><path d="M114.4990,192.4498 L125.5510,192.4498 L125.5510,181.4018 L114.4990,181.4018 L114.4990,192.4498 Z"/></clipPath><clipPath id="p1_s1067"><path d="M114.4990,192.4498 L125.5510,192.4498 L125.5510,181.4018 L114.4990,181.4018 L114.4990,192.4498 Z"/></clipPath><clipPath id="p1_s1070"><path d="M114.4990,192.4498 L125.5510,192.4498 L125.5510,181.4018 L114.4990,181.4018 L114.4990,192.4498 Z"/></clipPath><clipPath id="p1_s1073"><path d="M114.4990,192.4498 L125.5510,192.4498 L125.5510,181.4018 L114.4990,181.4018 L114.4990,192.4498 Z"/></clipPath><clipPath id="p1_s1076"><path d="M114.4990,192.4498 L125.5510,192.4498 L125.5510,181.4018 L114.4990,181.4018 L114.4990,192.4498 Z"/></clipPath><clipPath id="p1_s1079"><path d="M114.4990,192.4498 L125.5510,192.4498 L125.5510,181.4018 L114.4990,181.4018 L114.4990,192.4498 Z"/></clipPath><clipPath id="p1_s1082"><path d="M114.4990,192.4498 L125.5510,192.4498 L125.5510,181.4018 L114.4990,181.4018 L114.4990,192.4498 Z"/></clipPath><clipPath id="p1_s1085"><path d="M114.4990,192.4498 L125.5510,192.4498 L125.5510,181.4018 L114.4990,181.4018 L114.4990,192.4498 Z"/></clipPath><clipPath id="p1_s1088"><path d="M114.4990,192.4498 L125.5510,192.4498 L125.5510,181.4018 L114.4990,181.4018 L114.4990,192.4498 Z"/></clipPath><clipPath id="p1_s1091"><path d="M114.4990,192.4498 L125.5510,192.4498 L125.5510,181.4018 L114.4990,181.4018 L114.4990,192.4498 Z"/></clipPath><clipPath id="p1_s1094"><path d="M114.4990,192.4498 L125.5510,192.4498 L125.5510,181.4018 L114.4990,181.4018 L114.4990,192.4498 Z"/></clipPath><clipPath id="p1_s1097"><path d="M114.4990,192.4498 L125.5510,192.4498 L125.5510,181.4018 L114.4990,181.4018 L114.4990,192.4498 Z"/></clipPath><clipPath id="p1_s1100"><path d="M114.4990,192.4498 L125.5510,192.4498 L125.5510,181.4018 L114.4990,181.4018 L114.4990,192.4498 Z"/></clipPath><clipPath id="p1_s1103"><path d="M114.4990,192.4498 L125.5510,192.4498 L125.5510,181.4018 L114.4990,181.4018 L114.4990,192.4498 Z"/></clipPath><clipPath id="p1_s1106"><path d="M114.4990,192.4498 L125.5510,192.4498 L125.5510,181.4018 L114.4990,181.4018 L114.4990,192.4498 Z"/></clipPath><clipPath id="p1_s1109"><path d="M114.4990,192.4498 L125.5510,192.4498 L125.5510,181.4018 L114.4990,181.4018 L114.4990,192.4498 Z"/></clipPath><clipPath id="p1_s1112"><path d="M114.4990,192.4498 L125.5510,192.4498 L125.5510,181.4018 L114.4990,181.4018 L114.4990,192.4498 Z"/></clipPath><clipPath id="p1_s1115"><path d="M114.4990,192.4498 L125.5510,192.4498 L125.5510,181.4018 L114.4990,181.4018 L114.4990,192.4498 Z"/></clipPath><clipPath id="p1_s1118"><path d="M114.4990,192.4498 L125.5510,192.4498 L125.5510,181.4018 L114.4990,181.4018 L114.4990,192.4498 Z"/></clipPath><clipPath id="p1_s1121"><path d="M114.4990,192.4498 L125.5510,192.4498 L125.5510,181.4018 L114.4990,181.4018 L114.4990,192.4498 Z"/></clipPath><clipPath id="p1_s1124"><path d="M114.4990,192.4498 L125.5510,192.4498 L125.5510,181.4018 L114.4990,181.4018 L114.4990,192.4498 Z"/></clipPath><clipPath id="p1_s1127"><path d="M114.4990,192.4498 L125.5510,192.4498 L125.5510,181.4018 L114.4990,181.4018 L114.4990,192.4498 Z"/></clipPath><clipPath id="p1_s1130"><path d="M114.4990,192.4498 L125.5510,192.4498 L125.5510,181.4018 L114.4990,181.4018 L114.4990,192.4498 Z"/></clipPath><clipPath id="p1_s1133"><path d="M114.4990,192.4498 L125.5510,192.4498 L125.5510,181.4018 L114.4990,181.4018 L114.4990,192.4498 Z"/></clipPath><clipPath id="p1_s1136"><path d="M114.4990,192.4498 L125.5510,192.4498 L125.5510,181.4018 L114.4990,181.4018 L114.4990,192.4498 Z"/></clipPath><clipPath id="p1_s1139"><path d="M114.4990,192.4498 L125.5510,192.4498 L125.5510,181.4018 L114.4990,181.4018 L114.4990,192.4498 Z"/></clipPath><clipPath id="p1_s1142"><path d="M114.4990,192.4498 L125.5510,192.4498 L125.5510,181.4018 L114.4990,181.4018 L114.4990,192.4498 Z"/></clipPath><clipPath id="p1_s1145"><path d="M114.4990,192.4498 L125.5510,192.4498 L125.5510,181.4018 L114.4990,181.4018 L114.4990,192.4498 Z"/></clipPath><clipPath id="p1_s1148"><path d="M114.4990,192.4498 L125.5510,192.4498 L125.5510,181.4018 L114.4990,181.4018 L114.4990,192.4498 Z"/></clipPath><clipPath id="p1_s1151"><path d="M114.4990,192.4498 L125.5510,192.4498 L125.5510,181.4018 L114.4990,181.4018 L114.4990,192.4498 Z"/></clipPath><clipPath id="p1_s1154"><path d="M114.4990,192.4498 L125.5510,192.4498 L125.5510,181.4018 L114.4990,181.4018 L114.4990,192.4498 Z"/></clipPath><clipPath id="p1_s1157"><path d="M114.4990,192.4498 L125.5510,192.4498 L125.5510,181.4018 L114.4990,181.4018 L114.4990,192.4498 Z"/></clipPath><clipPath id="p1_s1160"><path d="M114.4990,192.4498 L125.5510,192.4498 L125.5510,181.4018 L114.4990,181.4018 L114.4990,192.4498 Z"/></clipPath><clipPath id="p1_s1163"><path d="M114.4990,192.4498 L125.5510,192.4498 L125.5510,181.4018 L114.4990,181.4018 L114.4990,192.4498 Z"/></clipPath><clipPath id="p1_s1166"><path d="M114.4990,192.4498 L125.5510,192.4498 L125.5510,181.4018 L114.4990,181.4018 L114.4990,192.4498 Z"/></clipPath><clipPath id="p1_s1169"><path d="M114.4990,192.4498 L125.5510,192.4498 L125.5510,181.4018 L114.4990,181.4018 L114.4990,192.4498 Z"/></clipPath><clipPath id="p1_s1172"><path d="M114.4990,192.4498 L125.5510,192.4498 L125.5510,181.4018 L114.4990,181.4018 L114.4990,192.4498 Z"/></clipPath><clipPath id="p1_s1175"><path d="M114.4990,192.4498 L125.5510,192.4498 L125.5510,181.4018 L114.4990,181.4018 L114.4990,192.4498 Z"/></clipPath><clipPath id="p1_s1178"><path d="M114.4990,192.4498 L125.5510,192.4498 L125.5510,181.4018 L114.4990,181.4018 L114.4990,192.4498 Z"/></clipPath><clipPath id="p1_s1181"><path d="M114.4990,192.4498 L125.5510,192.4498 L125.5510,181.4018 L114.4990,181.4018 L114.4990,192.4498 Z"/></clipPath><clipPath id="p1_s1184"><path d="M114.4990,192.4498 L125.5510,192.4498 L125.5510,181.4018 L114.4990,181.4018 L114.4990,192.4498 Z"/></clipPath><clipPath id="p1_s1187"><path d="M114.4990,192.4498 L125.5510,192.4498 L125.5510,181.4018 L114.4990,181.4018 L114.4990,192.4498 Z"/></clipPath><clipPath id="p1_s1190"><path d="M114.4990,192.4498 L125.5510,192.4498 L125.5510,181.4018 L114.4990,181.4018 L114.4990,192.4498 Z"/></clipPath><clipPath id="p1_s1193"><path d="M114.4990,192.4498 L125.5510,192.4498 L125.5510,181.4018 L114.4990,181.4018 L114.4990,192.4498 Z"/></clipPath><clipPath id="p1_s1196"><path d="M114.4990,192.4498 L125.5510,192.4498 L125.5510,181.4018 L114.4990,181.4018 L114.4990,192.4498 Z"/></clipPath><clipPath id="p1_s1199"><path d="M114.4990,192.4498 L125.5510,192.4498 L125.5510,181.4018 L114.4990,181.4018 L114.4990,192.4498 Z"/></clipPath><clipPath id="p1_s1202"><path d="M114.4990,192.4498 L125.5510,192.4498 L125.5510,181.4018 L114.4990,181.4018 L114.4990,192.4498 Z"/></clipPath><clipPath id="p1_s1205"><path d="M114.4990,192.4498 L125.5510,192.4498 L125.5510,181.4018 L114.4990,181.4018 L114.4990,192.4498 Z"/></clipPath><clipPath id="p1_s1208"><path d="M114.4990,192.4498 L125.5510,192.4498 L125.5510,181.4018 L114.4990,181.4018 L114.4990,192.4498 Z"/></clipPath><clipPath id="p1_s1211"><path d="M114.4990,192.4498 L125.5510,192.4498 L125.5510,181.4018 L114.4990,181.4018 L114.4990,192.4498 Z"/></clipPath><clipPath id="p1_s1214"><path d="M114.4990,192.4498 L125.5510,192.4498 L125.5510,181.4018 L114.4990,181.4018 L114.4990,192.4498 Z"/></clipPath></svg>
