<?xml version="1.0" encoding="UTF-8"?>
<svg xmlns="http://www.w3.org/2000/svg"><clipPath id="p1_s1" evenodd="true"><path d="M0.0000,841.8618 L595.2750,841.8618 L595.2750,0.0008 L0.0000,0.0008 L0.0000,841.8618 Z"/></clipPath><g style="fill: #FFFFFF;fill-rule: evenodd;fill-opacity: 1;" id="p1_s9"><path d="M116.8000,134.2508 L206.6500,134.2508 L206.6500,121.0008 L116.8000,121.0008 L116.8000,134.2508 Z"/></g><g style="stroke: #000000;fill:none;stroke-width: 0.1;stroke-linejoin:miter;stroke-linecap:butt;stroke-miterlimit: 10;" id="p1_s10"><path d="M116.8000,134.2508 L206.6500,134.2508 L206.6500,121.0008 L116.8000,121.0008 L116.8000,134.2508 Z"/></g><g style="fill: #FFFFFF;fill-rule: evenodd;fill-opacity: 1;" id="p1_s11"><path d="M270.6000,132.3008 L359.7500,132.3008 L359.7500,122.9508 L270.6000,122.9508 L270.6000,132.3008 Z"/></g><g style="stroke: #000000;fill:none;stroke-width: 0.1;stroke-linejoin:miter;stroke-linecap:butt;stroke-miterlimit: 10;" id="p1_s12"><path d="M270.6000,132.3008 L359.7500,132.3008 L359.7500,122.9508 L270.6000,122.9508 L270.6000,132.3008 Z"/></g><g style="fill: #FFFFFF;fill-rule: evenodd;fill-opacity: 1;" id="p1_s18"><path d="M56.7000,193.3508 L113.4000,193.3508 L113.4000,180.5008 L56.7000,180.5008 L56.7000,193.3508 Z"/></g><g style="stroke: #000000;fill:none;stroke-width: 1.1;stroke-linejoin:miter;stroke-linecap:butt;stroke-miterlimit: 10;" id="p1_s19"><path d="M63.3000,181.4008 C66.3500,181.4008 68.8500,183.8508 68.8500,186.9008 C68.8500,189.9508 66.3500,192.4508 63.3000,192.4508 C60.2500,192.4508 57.8000,189.9508 57.8000,186.9008 C57.8000,183.8508 60.2500,181.4008 63.3000,181.4008 Z"/></g><clipPath id="p1_s20" evenodd="true"><path d="M73.2500,193.3508 L112.3500,193.3508 L112.3500,180.5008 L73.2500,180.5008 L73.2500,193.3508 Z"/></clipPath><g style="fill: #FFFFFF;fill-rule: evenodd;fill-opacity: 1;" id="p1_s23"><path d="M113.4000,194.2508 L166.9500,194.2508 L166.9500,179.6008 L113.4000,179.6008 L113.4000,194.2508 Z"/></g><g style="stroke: #000000;fill:none;stroke-width: 1.1;stroke-linejoin:miter;stroke-linecap:butt;stroke-miterlimit: 10;" id="p1_s24"><path d="M120.0000,181.4008 C123.0500,181.4008 125.5500,183.8508 125.5500,186.9008 C125.5500,189.9508 123.0500,192.4508 120.0000,192.4508 C116.9500,192.4508 114.5000,189.9508 114.5000,186.9008 C114.5000,183.8508 116.9500,181.4008 120.0000,181.4008 Z"/></g><clipPath id="p1_s25" evenodd="true"><path d="M129.9500,194.2508 L165.9000,194.2508 L165.9000,179.6008 L129.9500,179.6008 L129.9500,194.2508 Z"/></clipPath><g style="fill: #FFFFFF;fill-rule: evenodd;fill-opacity: 1;" id="p1_s28"><path d="M116.9500,152.0008 L235.3000,152.0008 L235.3000,134.5008 L116.9500,134.5008 L116.9500,152.0008 Z"/></g><g style="stroke: #000000;fill:none;stroke-width: 0.1;stroke-linejoin:miter;stroke-linecap:butt;stroke-miterlimit: 10;" id="p1_s29"><path d="M116.9500,152.0008 L235.3000,152.0008 L235.3000,134.5008 L116.9500,134.5008 L116.9500,152.0008 Z"/></g><g style="fill: #FFFFFF;fill-rule: evenodd;fill-opacity: 1;" id="p1_s30"><path d="M56.7000,288.8008 L217.8500,288.8008 L217.8500,272.7008 L56.7000,272.7008 L56.7000,288.8008 Z"/></g><g style="stroke: #000000;fill:none;stroke-width: 1.1;stroke-linejoin:miter;stroke-linecap:butt;stroke-miterlimit: 10;" id="p1_s31"><path d="M57.8000,286.3008 L68.8500,286.3008 L68.8500,275.2508 L57.8000,275.2508 L57.8000,286.3008 Z"/></g><clipPath id="p1_s32" evenodd="true"><path d="M73.2500,288.8008 L216.8000,288.8008 L216.8000,272.7008 L73.2500,272.7008 L73.2500,288.8008 Z"/></clipPath><g style="fill: #FFFFFF;fill-rule: evenodd;fill-opacity: 1;" id="p1_s38"><path d="M56.7000,304.1508 L123.7500,304.1508 L123.7500,288.8008 L56.7000,288.8008 L56.7000,304.1508 Z"/></g><g style="stroke: #000000;fill:none;stroke-width: 1.1;stroke-linejoin:miter;stroke-linecap:butt;stroke-miterlimit: 10;" id="p1_s39"><path d="M57.8000,302.0008 L68.8500,302.0008 L68.8500,290.9508 L57.8000,290.9508 L57.8000,302.0008 Z"/></g><clipPath id="p1_s40" evenodd="true"><path d="M73.2500,304.1508 L122.7000,304.1508 L122.7000,288.8008 L73.2500,288.8008 L73.2500,304.1508 Z"/></clipPath><g style="fill: #FFFFFF;fill-rule: evenodd;fill-opacity: 1;" id="p1_s43"><path d="M74.5000,353.6508 L233.5500,353.6508 L233.5500,339.7008 L74.5000,339.7008 L74.5000,353.6508 Z"/></g><g style="stroke: #000000;fill:none;stroke-width: 0.1;stroke-linejoin:miter;stroke-linecap:butt;stroke-miterlimit: 10;" id="p1_s44"><path d="M74.5000,353.6508 L233.5500,353.6508 L233.5500,339.7008 L74.5000,339.7008 L74.5000,353.6508 Z"/></g><g style="fill: #FFFFFF;fill-rule: evenodd;fill-opacity: 1;" id="p1_s45"><path d="M56.7000,258.7508 L227.1000,258.7508 L227.1000,235.6508 L56.7000,235.6508 L56.7000,258.7508 Z"/></g><g style="stroke: #000000;fill:none;stroke-width: 0.1;stroke-linejoin:miter;stroke-linecap:butt;stroke-miterlimit: 10;" id="p1_s46"><path d="M56.7000,258.7508 L227.1000,258.7508 L227.1000,235.6508 L56.7000,235.6508 L56.7000,258.7508 Z"/></g><clipPath id="p1_s47"><path d="M273.3490,129.5498 L357.0010,129.5498 L357.0010,125.7018 L273.3490,125.7018 L273.3490,129.5498 Z"/></clipPath><clipPath id="p1_s49"><path d="M114.4990,192.4498 L125.5510,192.4498 L125.5510,181.4018 L114.4990,181.4018 L114.4990,192.4498 Z"/></clipPath><clipPath id="p1_s52"><path d="M114.4990,192.4498 L125.5510,192.4498 L125.5510,181.4018 L114.4990,181.4018 L114.4990,192.4498 Z"/></clipPath><clipPath id="p1_s55"><path d="M114.4990,192.4498 L125.5510,192.4498 L125.5510,181.4018 L114.4990,181.4018 L114.4990,192.4498 Z"/></clipPath><clipPath id="p1_s58"><path d="M114.4990,192.4498 L125.5510,192.4498 L125.5510,181.4018 L114.4990,181.4018 L114.4990,192.4498 Z"/></clipPath><clipPath id="p1_s61"><path d="M114.4990,192.4498 L125.5510,192.4498 L125.5510,181.4018 L114.4990,181.4018 L114.4990,192.4498 Z"/></clipPath><clipPath id="p1_s64"><path d="M114.4990,192.4498 L125.5510,192.4498 L125.5510,181.4018 L114.4990,181.4018 L114.4990,192.4498 Z"/></clipPath><clipPath id="p1_s67"><path d="M114.4990,192.4498 L125.5510,192.4498 L125.5510,181.4018 L114.4990,181.4018 L114.4990,192.4498 Z"/></clipPath><clipPath id="p1_s70"><path d="M114.4990,192.4498 L125.5510,192.4498 L125.5510,181.4018 L114.4990,181.4018 L114.4990,192.4498 Z"/></clipPath><clipPath id="p1_s73"><path d="M114.4990,192.4498 L125.5510,192.4498 L125.5510,181.4018 L114.4990,181.4018 L114.4990,192.4498 Z"/></clipPath><clipPath id="p1_s76"><path d="M114.4990,192.4498 L125.5510,192.4498 L125.5510,181.4018 L114.4990,181.4018 L114.4990,192.4498 Z"/></clipPath><clipPath id="p1_s79"><path d="M114.4990,192.4498 L125.5510,192.4498 L125.5510,181.4018 L114.4990,181.4018 L114.4990,192.4498 Z"/></clipPath><clipPath id="p1_s82"><path d="M114.4990,192.4498 L125.5510,192.4498 L125.5510,181.4018 L114.4990,181.4018 L114.4990,192.4498 Z"/></clipPath><clipPath id="p1_s85"><path d="M114.4990,192.4498 L125.5510,192.4498 L125.5510,181.4018 L114.4990,181.4018 L114.4990,192.4498 Z"/></clipPath><clipPath id="p1_s88"><path d="M114.4990,192.4498 L125.5510,192.4498 L125.5510,181.4018 L114.4990,181.4018 L114.4990,192.4498 Z"/></clipPath><clipPath id="p1_s91"><path d="M114.4990,192.4498 L125.5510,192.4498 L125.5510,181.4018 L114.4990,181.4018 L114.4990,192.4498 Z"/></clipPath><clipPath id="p1_s94"><path d="M114.4990,192.4498 L125.5510,192.4498 L125.5510,181.4018 L114.4990,181.4018 L114.4990,192.4498 Z"/></clipPath><clipPath id="p1_s97"><path d="M114.4990,192.4498 L125.5510,192.4498 L125.5510,181.4018 L114.4990,181.4018 L114.4990,192.4498 Z"/></clipPath><clipPath id="p1_s100"><path d="M114.4990,192.4498 L125.5510,192.4498 L125.5510,181.4018 L114.4990,181.4018 L114.4990,192.4498 Z"/></clipPath><clipPath id="p1_s103"><path d="M114.4990,192.4498 L125.5510,192.4498 L125.5510,181.4018 L114.4990,181.4018 L114.4990,192.4498 Z"/></clipPath><clipPath id="p1_s106"><path d="M114.4990,192.4498 L125.5510,192.4498 L125.5510,181.4018 L114.4990,181.4018 L114.4990,192.4498 Z"/></clipPath><clipPath id="p1_s109"><path d="M114.4990,192.4498 L125.5510,192.4498 L125.5510,181.4018 L114.4990,181.4018 L114.4990,192.4498 Z"/></clipPath><clipPath id="p1_s112"><path d="M114.4990,192.4498 L125.5510,192.4498 L125.5510,181.4018 L114.4990,181.4018 L114.4990,192.4498 Z"/></clipPath><clipPath id="p1_s115"><path d="M114.4990,192.4498 L125.5510,192.4498 L125.5510,181.4018 L114.4990,181.4018 L114.4990,192.4498 Z"/></clipPath><clipPath id="p1_s118"><path d="M114.4990,192.4498 L125.5510,192.4498 L125.5510,181.4018 L114.4990,181.4018 L114.4990,192.4498 Z"/></clipPath><clipPath id="p1_s121"><path d="M114.4990,192.4498 L125.5510,192.4498 L125.5510,181.4018 L114.4990,181.4018 L114.4990,192.4498 Z"/></clipPath><clipPath id="p1_s124"><path d="M114.4990,192.4498 L125.5510,192.4498 L125.5510,181.4018 L114.4990,181.4018 L114.4990,192.4498 Z"/></clipPath><clipPath id="p1_s127"><path d="M114.4990,192.4498 L125.5510,192.4498 L125.5510,181.4018 L114.4990,181.4018 L114.4990,192.4498 Z"/></clipPath><clipPath id="p1_s130"><path d="M114.4990,192.4498 L125.5510,192.4498 L125.5510,181.4018 L114.4990,181.4018 L114.4990,192.4498 Z"/></clipPath><clipPath id="p1_s133"><path d="M114.4990,192.4498 L125.5510,192.4498 L125.5510,181.4018 L114.4990,181.4018 L114.4990,192.4498 Z"/></clipPath><clipPath id="p1_s136"><path d="M114.4990,192.4498 L125.5510,192.4498 L125.5510,181.4018 L114.4990,181.4018 L114.4990,192.4498 Z"/></clipPath><clipPath id="p1_s139"><path d="M114.4990,192.4498 L125.5510,192.4498 L125.5510,181.4018 L114.4990,181.4018 L114.4990,192.4498 Z"/></clipPath><clipPath id="p1_s142"><path d="M114.4990,192.4498 L125.5510,192.4498 L125.5510,181.4018 L114.4990,181.4018 L114.4990,192.4498 Z"/></clipPath><clipPath id="p1_s145"><path d="M114.4990,192.4498 L125.5510,192.4498 L125.5510,181.4018 L114.4990,181.4018 L114.4990,192.4498 Z"/></clipPath><clipPath id="p1_s148"><path d="M114.4990,192.4498 L125.5510,192.4498 L125.5510,181.4018 L114.4990,181.4018 L114.4990,192.4498 Z"/></clipPath><clipPath id="p1_s151"><path d="M114.4990,192.4498 L125.5510,192.4498 L125.5510,181.4018 L114.4990,181.4018 L114.4990,192.4498 Z"/></clipPath><clipPath id="p1_s154"><path d="M114.4990,192.4498 L125.5510,192.4498 L125.5510,181.4018 L114.4990,181.4018 L114.4990,192.4498 Z"/></clipPath><clipPath id="p1_s157"><path d="M114.4990,192.4498 L125.5510,192.4498 L125.5510,181.4018 L114.4990,181.4018 L114.4990,192.4498 Z"/></clipPath><clipPath id="p1_s160"><path d="M114.4990,192.4498 L125.5510,192.4498 L125.5510,181.4018 L114.4990,181.4018 L114.4990,192.4498 Z"/></clipPath><clipPath id="p1_s163"><path d="M114.4990,192.4498 L125.5510,192.4498 L125.5510,181.4018 L114.4990,181.4018 L114.4990,192.4498 Z"/></clipPath><clipPath id="p1_s166"><path d="M114.4990,192.4498 L125.5510,192.4498 L125.5510,181.4018 L114.4990,181.4018 L114.4990,192.4498 Z"/></clipPath><clipPath id="p1_s169"><path d="M114.4990,192.4498 L125.5510,192.4498 L125.5510,181.4018 L114.4990,181.4018 L114.4990,192.4498 Z"/></clipPath><clipPath id="p1_s172"><path d="M114.4990,192.4498 L125.5510,192.4498 L125.5510,181.4018 L114.4990,181.4018 L114.4990,192.4498 Z"/></clipPath><clipPath id="p1_s175"><path d="M114.4990,192.4498 L125.5510,192.4498 L125.5510,181.4018 L114.4990,181.4018 L114.4990,192.4498 Z"/></clipPath><clipPath id="p1_s178"><path d="M114.4990,192.4498 L125.5510,192.4498 L125.5510,181.4018 L114.4990,181.4018 L114.4990,192.4498 Z"/></clipPath><clipPath id="p1_s181"><path d="M114.4990,192.4498 L125.5510,192.4498 L125.5510,181.4018 L114.4990,181.4018 L114.4990,192.4498 Z"/></clipPath><clipPath id="p1_s184"><path d="M114.4990,192.4498 L125.5510,192.4498 L125.5510,181.4018 L114.4990,181.4018 L114.4990,192.4498 Z"/></clipPath><clipPath id="p1_s187"><path d="M114.4990,192.4498 L125.5510,192.4498 L125.5510,181.4018 L114.4990,181.4018 L114.4990,192.4498 Z"/></clipPath><clipPath id="p1_s190"><path d="M114.4990,192.4498 L125.5510,192.4498 L125.5510,181.4018 L114.4990,181.4018 L114.4990,192.4498 Z"/></clipPath><clipPath id="p1_s193"><path d="M114.4990,192.4498 L125.5510,192.4498 L125.5510,181.4018 L114.4990,181.4018 L114.4990,192.4498 Z"/></clipPath><clipPath id="p1_s196"><path d="M114.4990,192.4498 L125.5510,192.4498 L125.5510,181.4018 L114.4990,181.4018 L114.4990,192.4498 Z"/></clipPath><clipPath id="p1_s199"><path d="M114.4990,192.4498 L125.5510,192.4498 L125.5510,181.4018 L114.4990,181.4018 L114.4990,192.4498 Z"/></clipPath><clipPath id="p1_s202"><path d="M114.4990,192.4498 L125.5510,192.4498 L125.5510,181.4018 L114.4990,181.4018 L114.4990,192.4498 Z"/></clipPath><clipPath id="p1_s205"><path d="M114.4990,192.4498 L125.5510,192.4498 L125.5510,181.4018 L114.4990,181.4018 L114.4990,192.4498 Z"/></clipPath><clipPath id="p1_s208"><path d="M114.4990,192.4498 L125.5510,192.4498 L125.5510,181.4018 L114.4990,181.4018 L114.4990,192.4498 Z"/></clipPath><clipPath id="p1_s211"><path d="M114.4990,192.4498 L125.5510,192.4498 L125.5510,181.4018 L114.4990,181.4018 L114.4990,192.4498 Z"/></clipPath><clipPath id="p1_s214"><path d="M114.4990,192.4498 L125.5510,192.4498 L125.5510,181.4018 L114.4990,181.4018 L114.4990,192.4498 Z"/></clipPath><clipPath id="p1_s217"><path d="M114.4990,192.4498 L125.5510,192.4498 L125.5510,181.4018 L114.4990,181.4018 L114.4990,192.4498 Z"/></clipPath><clipPath id="p1_s220"><path d="M114.4990,192.4498 L125.5510,192.4498 L125.5510,181.4018 L114.4990,181.4018 L114.4990,192.4498 Z"/></clipPath><clipPath id="p1_s223"><path d="M114.4990,192.4498 L125.5510,192.4498 L125.5510,181.4018 L114.4990,181.4018 L114.4990,192.4498 Z"/></clipPath><clipPath id="p1_s226"><path d="M114.4990,192.4498 L125.5510,192.4498 L125.5510,181.4018 L114.4990,181.4018 L114.4990,192.4498 Z"/></clipPath><clipPath id="p1_s229"><path d="M114.4990,192.4498 L125.5510,192.4498 L125.5510,181.4018 L114.4990,181.4018 L114.4990,192.4498 Z"/></clipPath><clipPath id="p1_s232"><path d="M114.4990,192.4498 L125.5510,192.4498 L125.5510,181.4018 L114.4990,181.4018 L114.4990,192.4498 Z"/></clipPath><clipPath id="p1_s235"><path d="M114.4990,192.4498 L125.5510,192.4498 L125.5510,181.4018 L114.4990,181.4018 L114.4990,192.4498 Z"/></clipPath><clipPath id="p1_s238"><path d="M114.4990,192.4498 L125.5510,192.4498 L125.5510,181.4018 L114.4990,181.4018 L114.4990,192.4498 Z"/></clipPath><clipPath id="p1_s241"><path d="M114.4990,192.4498 L125.5510,192.4498 L125.5510,181.4018 L114.4990,181.4018 L114.4990,192.4498 Z"/></clipPath><clipPath id="p1_s244"><path d="M114.4990,192.4498 L125.5510,192.4498 L125.5510,181.4018 L114.4990,181.4018 L114.4990,192.4498 Z"/></clipPath><clipPath id="p1_s247"><path d="M114.4990,192.4498 L125.5510,192.4498 L125.5510,181.4018 L114.4990,181.4018 L114.4990,192.4498 Z"/></clipPath><clipPath id="p1_s250"><path d="M114.4990,192.4498 L125.5510,192.4498 L125.5510,181.4018 L114.4990,181.4018 L114.4990,192.4498 Z"/></clipPath><clipPath id="p1_s253"><path d="M114.4990,192.4498 L125.5510,192.4498 L125.5510,181.4018 L114.4990,181.4018 L114.4990,192.4498 Z"/></clipPath><clipPath id="p1_s256"><path d="M114.4990,192.4498 L125.5510,192.4498 L125.5510,181.4018 L114.4990,181.4018 L114.4990,192.4498 Z"/></clipPath><clipPath id="p1_s259"><path d="M114.4990,192.4498 L125.5510,192.4498 L125.5510,181.4018 L114.4990,181.4018 L114.4990,192.4498 Z"/></clipPath><clipPath id="p1_s262"><path d="M114.4990,192.4498 L125.5510,192.4498 L125.5510,181.4018 L114.4990,181.4018 L114.4990,192.4498 Z"/></clipPath><clipPath id="p1_s265"><path d="M114.4990,192.4498 L125.5510,192.4498 L125.5510,181.4018 L114.4990,181.4018 L114.4990,192.4498 Z"/></clipPath><clipPath id="p1_s268"><path d="M114.4990,192.4498 L125.5510,192.4498 L125.5510,181.4018 L114.4990,181.4018 L114.4990,192.4498 Z"/></clipPath><clipPath id="p1_s271"><path d="M114.4990,192.4498 L125.5510,192.4498 L125.5510,181.4018 L114.4990,181.4018 L114.4990,192.4498 Z"/></clipPath><clipPath id="p1_s274"><path d="M114.4990,192.4498 L125.5510,192.4498 L125.5510,181.4018 L114.4990,181.4018 L114.4990,192.4498 Z"/></clipPath><clipPath id="p1_s277"><path d="M114.4990,192.4498 L125.5510,192.4498 L125.5510,181.4018 L114.4990,181.4018 L114.4990,192.4498 Z"/></clipPath><clipPath id="p1_s280"><path d="M114.4990,192.4498 L125.5510,192.4498 L125.5510,181.4018 L114.4990,181.4018 L114.4990,192.4498 Z"/></clipPath><clipPath id="p1_s283"><path d="M114.4990,192.4498 L125.5510,192.4498 L125.5510,181.4018 L114.4990,181.4018 L114.4990,192.4498 Z"/></clipPath><clipPath id="p1_s286"><path d="M114.4990,192.4498 L125.5510,192.4498 L125.5510,181.4018 L114.4990,181.4018 L114.4990,192.4498 Z"/></clipPath><clipPath id="p1_s289"><path d="M114.4990,192.4498 L125.5510,192.4498 L125.5510,181.4018 L114.4990,181.4018 L114.4990,192.4498 Z"/></clipPath><clipPath id="p1_s292"><path d="M114.4990,192.4498 L125.5510,192.4498 L125.5510,181.4018 L114.4990,181.4018 L114.4990,192.4498 Z"/></clipPath><clipPath id="p1_s295"><path d="M114.4990,192.4498 L125.5510,192.4498 L125.5510,181.4018 L114.4990,181.4018 L114.4990,192.4498 Z"/></clipPath><clipPath id="p1_s298"><path d="M114.4990,192.4498 L125.5510,192.4498 L125.5510,181.4018 L114.4990,181.4018 L114.4990,192.4498 Z"/></clipPath><clipPath id="p1_s301"><path d="M114.4990,192.4498 L125.5510,192.4498 L125.5510,181.4018 L114.4990,181.4018 L114.4990,192.4498 Z"/></clipPath><clipPath id="p1_s304"><path d="M114.4990,192.4498 L125.5510,192.4498 L125.5510,181.4018 L114.4990,181.4018 L114.4990,192.4498 Z"/></clipPath><clipPath id="p1_s307"><path d="M114.4990,192.4498 L125.5510,192.4498 L125.5510,181.4018 L114.4990,181.4018 L114.4990,192.4498 Z"/></clipPath><clipPath id="p1_s310"><path d="M114.4990,192.4498 L125.5510,192.4498 L125.5510,181.4018 L114.4990,181.4018 L114.4990,192.4498 Z"/></clipPath><clipPath id="p1_s313"><path d="M114.4990,192.4498 L125.5510,192.4498 L125.5510,181.4018 L114.4990,181.4018 L114.4990,192.4498 Z"/></clipPath><clipPath id="p1_s316"><path d="M114.4990,192.4498 L125.5510,192.4498 L125.5510,181.4018 L114.4990,181.4018 L114.4990,192.4498 Z"/></clipPath><clipPath id="p1_s319"><path d="M114.4990,192.4498 L125.5510,192.4498 L125.5510,181.4018 L114.4990,181.4018 L114.4990,192.4498 Z"/></clipPath><clipPath id="p1_s322"><path d="M114.4990,192.4498 L125.5510,192.4498 L125.5510,181.4018 L114.4990,181.4018 L114.4990,192.4498 Z"/></clipPath><clipPath id="p1_s325"><path d="M114.4990,192.4498 L125.5510,192.4498 L125.5510,181.4018 L114.4990,181.4018 L114.4990,192.4498 Z"/></clipPath><clipPath id="p1_s328"><path d="M114.4990,192.4498 L125.5510,192.4498 L125.5510,181.4018 L114.4990,181.4018 L114.4990,192.4498 Z"/></clipPath><clipPath id="p1_s331"><path d="M114.4990,192.4498 L125.5510,192.4498 L125.5510,181.4018 L114.4990,181.4018 L114.4990,192.4498 Z"/></clipPath><clipPath id="p1_s334"><path d="M114.4990,192.4498 L125.5510,192.4498 L125.5510,181.4018 L114.4990,181.4018 L114.4990,192.4498 Z"/></clipPath><clipPath id="p1_s337"><path d="M114.4990,192.4498 L125.5510,192.4498 L125.5510,181.4018 L114.4990,181.4018 L114.4990,192.4498 Z"/></clipPath><clipPath id="p1_s340"><path d="M114.4990,192.4498 L125.5510,192.4498 L125.5510,181.4018 L114.4990,181.4018 L114.4990,192.4498 Z"/></clipPath><clipPath id="p1_s343"><path d="M114.4990,192.4498 L125.5510,192.4498 L125.5510,181.4018 L114.4990,181.4018 L114.4990,192.4498 Z"/></clipPath><clipPath id="p1_s346"><path d="M114.4990,192.4498 L125.5510,192.4498 L125.5510,181.4018 L114.4990,181.4018 L114.4990,192.4498 Z"/></clipPath><clipPath id="p1_s349"><path d="M114.4990,192.4498 L125.5510,192.4498 L125.5510,181.4018 L114.4990,181.4018 L114.4990,192.4498 Z"/></clipPath><clipPath id="p1_s352"><path d="M114.4990,192.4498 L125.5510,192.4498 L125.5510,181.4018 L114.4990,181.4018 L114.4990,192.4498 Z"/></clipPath><clipPath id="p1_s355"><path d="M114.4990,192.4498 L125.5510,192.4498 L125.5510,181.4018 L114.4990,181.4018 L114.4990,192.4498 Z"/></clipPath><clipPath id="p1_s358"><path d="M114.4990,192.4498 L125.5510,192.4498 L125.5510,181.4018 L114.4990,181.4018 L114.4990,192.4498 Z"/></clipPath><clipPath id="p1_s361"><path d="M114.4990,192.4498 L125.5510,192.4498 L125.5510,181.4018 L114.4990,181.4018 L114.4990,192.4498 Z"/></clipPath><clipPath id="p1_s364"><path d="M114.4990,192.4498 L125.5510,192.4498 L125.5510,181.4018 L114.4990,181.4018 L114.4990,192.4498 Z"/></clipPath><clipPath id="p1_s367"><path d="M114.4990,192.4498 L125.5510,192.4498 L125.5510,181.4018 L114.4990,181.4018 L114.4990,192.4498 Z"/></clipPath><clipPath id="p1_s370"><path d="M114.4990,192.4498 L125.5510,192.4498 L125.5510,181.4018 L114.4990,181.4018 L114.4990,192.4498 Z"/></clipPath><clipPath id="p1_s373"><path d="M114.4990,192.4498 L125.5510,192.4498 L125.5510,181.4018 L114.4990,181.4018 L114.4990,192.4498 Z"/></clipPath><clipPath id="p1_s376"><path d="M114.4990,192.4498 L125.5510,192.4498 L125.5510,181.4018 L114.4990,181.4018 L114.4990,192.4498 Z"/></clipPath><clipPath id="p1_s379"><path d="M114.4990,192.4498 L125.5510,192.4498 L125.5510,181.4018 L114.4990,181.4018 L114.4990,192.4498 Z"/></clipPath><clipPath id="p1_s382"><path d="M114.4990,192.4498 L125.5510,192.4498 L125.5510,181.4018 L114.4990,181.4018 L114.4990,192.4498 Z"/></clipPath><clipPath id="p1_s385"><path d="M114.4990,192.4498 L125.5510,192.4498 L125.5510,181.4018 L114.4990,181.4018 L114.4990,192.4498 Z"/></clipPath><clipPath id="p1_s388"><path d="M114.4990,192.4498 L125.5510,192.4498 L125.5510,181.4018 L114.4990,181.4018 L114.4990,192.4498 Z"/></clipPath><clipPath id="p1_s391"><path d="M114.4990,192.4498 L125.5510,192.4498 L125.5510,181.4018 L114.4990,181.4018 L114.4990,192.4498 Z"/></clipPath><clipPath id="p1_s394"><path d="M114.4990,192.4498 L125.5510,192.4498 L125.5510,181.4018 L114.4990,181.4018 L114.4990,192.4498 Z"/></clipPath><clipPath id="p1_s397"><path d="M114.4990,192.4498 L125.5510,192.4498 L125.5510,181.4018 L114.4990,181.4018 L114.4990,192.4498 Z"/></clipPath><clipPath id="p1_s400"><path d="M114.4990,192.4498 L125.5510,192.4498 L125.5510,181.4018 L114.4990,181.4018 L114.4990,192.4498 Z"/></clipPath><clipPath id="p1_s403"><path d="M114.4990,192.4498 L125.5510,192.4498 L125.5510,181.4018 L114.4990,181.4018 L114.4990,192.4498 Z"/></clipPath><clipPath id="p1_s406"><path d="M114.4990,192.4498 L125.5510,192.4498 L125.5510,181.4018 L114.4990,181.4018 L114.4990,192.4498 Z"/></clipPath><clipPath id="p1_s409"><path d="M114.4990,192.4498 L125.5510,192.4498 L125.5510,181.4018 L114.4990,181.4018 L114.4990,192.4498 Z"/></clipPath><clipPath id="p1_s412"><path d="M114.4990,192.4498 L125.5510,192.4498 L125.5510,181.4018 L114.4990,181.4018 L114.4990,192.4498 Z"/></clipPath><clipPath id="p1_s415"><path d="M114.4990,192.4498 L125.5510,192.4498 L125.5510,181.4018 L114.4990,181.4018 L114.4990,192.4498 Z"/></clipPath><clipPath id="p1_s418"><path d="M114.4990,192.4498 L125.5510,192.4498 L125.5510,181.4018 L114.4990,181.4018 L114.4990,192.4498 Z"/></clipPath><clipPath id="p1_s421"><path d="M114.4990,192.4498 L125.5510,192.4498 L125.5510,181.4018 L114.4990,181.4018 L114.4990,192.4498 Z"/></clipPath><clipPath id="p1_s424"><path d="M114.4990,192.4498 L125.5510,192.4498 L125.5510,181.4018 L114.4990,181.4018 L114.4990,192.4498 Z"/></clipPath><clipPath id="p1_s427"><path d="M114.4990,192.4498 L125.5510,192.4498 L125.5510,181.4018 L114.4990,181.4018 L114.4990,192.4498 Z"/></clipPath><clipPath id="p1_s430"><path d="M114.4990,192.4498 L125.5510,192.4498 L125.5510,181.4018 L114.4990,181.4018 L114.4990,192.4498 Z"/></clipPath><clipPath id="p1_s433"><path d="M114.4990,192.4498 L125.5510,192.4498 L125.5510,181.4018 L114.4990,181.4018 L114.4990,192.4498 Z"/></clipPath><clipPath id="p1_s436"><path d="M114.4990,192.4498 L125.5510,192.4498 L125.5510,181.4018 L114.4990,181.4018 L114.4990,192.4498 Z"/></clipPath><clipPath id="p1_s439"><path d="M114.4990,192.4498 L125.5510,192.4498 L125.5510,181.4018 L114.4990,181.4018 L114.4990,192.4498 Z"/></clipPath><clipPath id="p1_s442"><path d="M114.4990,192.4498 L125.5510,192.4498 L125.5510,181.4018 L114.4990,181.4018 L114.4990,192.4498 Z"/></clipPath><clipPath id="p1_s445"><path d="M114.4990,192.4498 L125.5510,192.4498 L125.5510,181.4018 L114.4990,181.4018 L114.4990,192.4498 Z"/></clipPath><clipPath id="p1_s448"><path d="M114.4990,192.4498 L125.5510,192.4498 L125.5510,181.4018 L114.4990,181.4018 L114.4990,192.4498 Z"/></clipPath><clipPath id="p1_s451"><path d="M114.4990,192.4498 L125.5510,192.4498 L125.5510,181.4018 L114.4990,181.4018 L114.4990,192.4498 Z"/></clipPath><clipPath id="p1_s454"><path d="M114.4990,192.4498 L125.5510,192.4498 L125.5510,181.4018 L114.4990,181.4018 L114.4990,192.4498 Z"/></clipPath><clipPath id="p1_s457"><path d="M114.4990,192.4498 L125.5510,192.4498 L125.5510,181.4018 L114.4990,181.4018 L114.4990,192.4498 Z"/></clipPath><clipPath id="p1_s460"><path d="M114.4990,192.4498 L125.5510,192.4498 L125.5510,181.4018 L114.4990,181.4018 L114.4990,192.4498 Z"/></clipPath><clipPath id="p1_s463"><path d="M114.4990,192.4498 L125.5510,192.4498 L125.5510,181.4018 L114.4990,181.4018 L114.4990,192.4498 Z"/></clipPath><clipPath id="p1_s466"><path d="M114.4990,192.4498 L125.5510,192.4498 L125.5510,181.4018 L114.4990,181.4018 L114.4990,192.4498 Z"/></clipPath><clipPath id="p1_s469"><path d="M114.4990,192.4498 L125.5510,192.4498 L125.5510,181.4018 L114.4990,181.4018 L114.4990,192.4498 Z"/></clipPath><clipPath id="p1_s472"><path d="M114.4990,192.4498 L125.5510,192.4498 L125.5510,181.4018 L114.4990,181.4018 L114.4990,192.4498 Z"/></clipPath><clipPath id="p1_s475"><path d="M114.4990,192.4498 L125.5510,192.4498 L125.5510,181.4018 L114.4990,181.4018 L114.4990,192.4498 Z"/></clipPath><clipPath id="p1_s478"><path d="M114.4990,192.4498 L125.5510,192.4498 L125.5510,181.4018 L114.4990,181.4018 L114.4990,192.4498 Z"/></clipPath><clipPath id="p1_s481"><path d="M114.4990,192.4498 L125.5510,192.4498 L125.5510,181.4018 L114.4990,181.4018 L114.4990,192.4498 Z"/></clipPath><clipPath id="p1_s484"><path d="M114.4990,192.4498 L125.5510,192.4498 L125.5510,181.4018 L114.4990,181.4018 L114.4990,192.4498 Z"/></clipPath><clipPath id="p1_s487"><path d="M114.4990,192.4498 L125.5510,192.4498 L125.5510,181.4018 L114.4990,181.4018 L114.4990,192.4498 Z"/></clipPath><clipPath id="p1_s490"><path d="M114.4990,192.4498 L125.5510,192.4498 L125.5510,181.4018 L114.4990,181.4018 L114.4990,192.4498 Z"/></clipPath><clipPath id="p1_s493"><path d="M114.4990,192.4498 L125.5510,192.4498 L125.5510,181.4018 L114.4990,181.4018 L114.4990,192.4498 Z"/></clipPath><clipPath id="p1_s496"><path d="M114.4990,192.4498 L125.5510,192.4498 L125.5510,181.4018 L114.4990,181.4018 L114.4990,192.4498 Z"/></clipPath><clipPath id="p1_s499"><path d="M114.4990,192.4498 L125.5510,192.4498 L125.5510,181.4018 L114.4990,181.4018 L114.4990,192.4498 Z"/></clipPath><clipPath id="p1_s502"><path d="M114.4990,192.4498 L125.5510,192.4498 L125.5510,181.4018 L114.4990,181.4018 L114.4990,192.4498 Z"/></clipPath><clipPath id="p1_s505"><path d="M114.4990,192.4498 L125.5510,192.4498 L125.5510,181.4018 L114.4990,181.4018 L114.4990,192.4498 Z"/></clipPath><clipPath id="p1_s508"><path d="M114.4990,192.4498 L125.5510,192.4498 L125.5510,181.4018 L114.4990,181.4018 L114.4990,192.4498 Z"/></clipPath><clipPath id="p1_s511"><path d="M114.4990,192.4498 L125.5510,192.4498 L125.5510,181.4018 L114.4990,181.4018 L114.4990,192.4498 Z"/></clipPath><clipPath id="p1_s514"><path d="M114.4990,192.4498 L125.5510,192.4498 L125.5510,181.4018 L114.4990,181.4018 L114.4990,192.4498 Z"/></clipPath><clipPath id="p1_s517"><path d="M114.4990,192.4498 L125.5510,192.4498 L125.5510,181.4018 L114.4990,181.4018 L114.4990,192.4498 Z"/></clipPath><clipPath id="p1_s520"><path d="M114.4990,192.4498 L125.5510,192.4498 L125.5510,181.4018 L114.4990,181.4018 L114.4990,192.4498 Z"/></clipPath><clipPath id="p1_s523"><path d="M114.4990,192.4498 L125.5510,192.4498 L125.5510,181.4018 L114.4990,181.4018 L114.4990,192.4498 Z"/></clipPath><clipPath id="p1_s526"><path d="M114.4990,192.4498 L125.5510,192.4498 L125.5510,181.4018 L114.4990,181.4018 L114.4990,192.4498 Z"/></clipPath><clipPath id="p1_s529"><path d="M114.4990,192.4498 L125.5510,192.4498 L125.5510,181.4018 L114.4990,181.4018 L114.4990,192.4498 Z"/></clipPath><clipPath id="p1_s532"><path d="M114.4990,192.4498 L125.5510,192.4498 L125.5510,181.4018 L114.4990,181.4018 L114.4990,192.4498 Z"/></clipPath><clipPath id="p1_s535"><path d="M114.4990,192.4498 L125.5510,192.4498 L125.5510,181.4018 L114.4990,181.4018 L114.4990,192.4498 Z"/></clipPath><clipPath id="p1_s538"><path d="M114.4990,192.4498 L125.5510,192.4498 L125.5510,181.4018 L114.4990,181.4018 L114.4990,192.4498 Z"/></clipPath><clipPath id="p1_s541"><path d="M114.4990,192.4498 L125.5510,192.4498 L125.5510,181.4018 L114.4990,181.4018 L114.4990,192.4498 Z"/></clipPath><clipPath id="p1_s544"><path d="M114.4990,192.4498 L125.5510,192.4498 L125.5510,181.4018 L114.4990,181.4018 L114.4990,192.4498 Z"/></clipPath><clipPath id="p1_s547"><path d="M114.4990,192.4498 L125.5510,192.4498 L125.5510,181.4018 L114.4990,181.4018 L114.4990,192.4498 Z"/></clipPath><clipPath id="p1_s550"><path d="M114.4990,192.4498 L125.5510,192.4498 L125.5510,181.4018 L114.4990,181.4018 L114.4990,192.4498 Z"/></clipPath><clipPath id="p1_s553"><path d="M114.4990,192.4498 L125.5510,192.4498 L125.5510,181.4018 L114.4990,181.4018 L114.4990,192.4498 Z"/></clipPath><clipPath id="p1_s556"><path d="M114.4990,192.4498 L125.5510,192.4498 L125.5510,181.4018 L114.4990,181.4018 L114.4990,192.4498 Z"/></clipPath><clipPath id="p1_s559"><path d="M114.4990,192.4498 L125.5510,192.4498 L125.5510,181.4018 L114.4990,181.4018 L114.4990,192.4498 Z"/></clipPath><clipPath id="p1_s562"><path d="M114.4990,192.4498 L125.5510,192.4498 L125.5510,181.4018 L114.4990,181.4018 L114.4990,192.4498 Z"/></clipPath><clipPath id="p1_s565"><path d="M114.4990,192.4498 L125.5510,192.4498 L125.5510,181.4018 L114.4990,181.4018 L114.4990,192.4498 Z"/></clipPath><clipPath id="p1_s568"><path d="M114.4990,192.4498 L125.5510,192.4498 L125.5510,181.4018 L114.4990,181.4018 L114.4990,192.4498 Z"/></clipPath><clipPath id="p1_s571"><path d="M114.4990,192.4498 L125.5510,192.4498 L125.5510,181.4018 L114.4990,181.4018 L114.4990,192.4498 Z"/></clipPath><clipPath id="p1_s574"><path d="M114.4990,192.4498 L125.5510,192.4498 L125.5510,181.4018 L114.4990,181.4018 L114.4990,192.4498 Z"/></clipPath><clipPath id="p1_s577"><path d="M114.4990,192.4498 L125.5510,192.4498 L125.5510,181.4018 L114.4990,181.4018 L114.4990,192.4498 Z"/></clipPath><clipPath id="p1_s580"><path d="M114.4990,192.4498 L125.5510,192.4498 L125.5510,181.4018 L114.4990,181.4018 L114.4990,192.4498 Z"/></clipPath><clipPath id="p1_s583"><path d="M114.4990,192.4498 L125.5510,192.4498 L125.5510,181.4018 L114.4990,181.4018 L114.4990,192.4498 Z"/></clipPath><clipPath id="p1_s586"><path d="M114.4990,192.4498 L125.5510,192.4498 L125.5510,181.4018 L114.4990,181.4018 L114.4990,192.4498 Z"/></clipPath><clipPath id="p1_s589"><path d="M114.4990,192.4498 L125.5510,192.4498 L125.5510,181.4018 L114.4990,181.4018 L114.4990,192.4498 Z"/></clipPath><clipPath id="p1_s592"><path d="M114.4990,192.4498 L125.5510,192.4498 L125.5510,181.4018 L114.4990,181.4018 L114.4990,192.4498 Z"/></clipPath><clipPath id="p1_s595"><path d="M114.4990,192.4498 L125.5510,192.4498 L125.5510,181.4018 L114.4990,181.4018 L114.4990,192.4498 Z"/></clipPath><clipPath id="p1_s598"><path d="M114.4990,192.4498 L125.5510,192.4498 L125.5510,181.4018 L114.4990,181.4018 L114.4990,192.4498 Z"/></clipPath><clipPath id="p1_s601"><path d="M114.4990,192.4498 L125.5510,192.4498 L125.5510,181.4018 L114.4990,181.4018 L114.4990,192.4498 Z"/></clipPath><clipPath id="p1_s604"><path d="M114.4990,192.4498 L125.5510,192.4498 L125.5510,181.4018 L114.4990,181.4018 L114.4990,192.4498 Z"/></clipPath><clipPath id="p1_s607"><path d="M114.4990,192.4498 L125.5510,192.4498 L125.5510,181.4018 L114.4990,181.4018 L114.4990,192.4498 Z"/></clipPath><clipPath id="p1_s610"><path d="M114.4990,192.4498 L125.5510,192.4498 L125.5510,181.4018 L114.4990,181.4018 L114.4990,192.4498 Z"/></clipPath><clipPath id="p1_s613"><path d="M114.4990,192.4498 L125.5510,192.4498 L125.5510,181.4018 L114.4990,181.4018 L114.4990,192.4498 Z"/></clipPath><clipPath id="p1_s616"><path d="M114.4990,192.4498 L125.5510,192.4498 L125.5510,181.4018 L114.4990,181.4018 L114.4990,192.4498 Z"/></clipPath><clipPath id="p1_s619"><path d="M114.4990,192.4498 L125.5510,192.4498 L125.5510,181.4018 L114.4990,181.4018 L114.4990,192.4498 Z"/></clipPath><clipPath id="p1_s622"><path d="M114.4990,192.4498 L125.5510,192.4498 L125.5510,181.4018 L114.4990,181.4018 L114.4990,192.4498 Z"/></clipPath><clipPath id="p1_s625"><path d="M114.4990,192.4498 L125.5510,192.4498 L125.5510,181.4018 L114.4990,181.4018 L114.4990,192.4498 Z"/></clipPath><clipPath id="p1_s628"><path d="M114.4990,192.4498 L125.5510,192.4498 L125.5510,181.4018 L114.4990,181.4018 L114.4990,192.4498 Z"/></clipPath><clipPath id="p1_s631"><path d="M114.4990,192.4498 L125.5510,192.4498 L125.5510,181.4018 L114.4990,181.4018 L114.4990,192.4498 Z"/></clipPath><clipPath id="p1_s634"><path d="M114.4990,192.4498 L125.5510,192.4498 L125.5510,181.4018 L114.4990,181.4018 L114.4990,192.4498 Z"/></clipPath><clipPath id="p1_s637"><path d="M114.4990,192.4498 L125.5510,192.4498 L125.5510,181.4018 L114.4990,181.4018 L114.4990,192.4498 Z"/></clipPath><clipPath id="p1_s640"><path d="M114.4990,192.4498 L125.5510,192.4498 L125.5510,181.4018 L114.4990,181.4018 L114.4990,192.4498 Z"/></clipPath><clipPath id="p1_s643"><path d="M114.4990,192.4498 L125.5510,192.4498 L125.5510,181.4018 L114.4990,181.4018 L114.4990,192.4498 Z"/></clipPath><clipPath id="p1_s646"><path d="M119.6990,149.2498 L232.5510,149.2498 L232.5510,137.2518 L119.6990,137.2518 L119.6990,149.2498 Z"/></clipPath><clipPath id="p1_s648"><path d="M57.7990,286.2998 L68.8510,286.2998 L68.8510,275.2518 L57.7990,275.2518 L57.7990,286.2998 Z"/></clipPath><clipPath id="p1_s650"><path d="M57.7990,301.9998 L68.8510,301.9998 L68.8510,290.9518 L57.7990,290.9518 L57.7990,301.9998 Z"/></clipPath><clipPath id="p1_s652"><path d="M77.2490,350.8998 L230.8010,350.8998 L230.8010,342.4518 L77.2490,342.4518 L77.2490,350.8998 Z"/></clipPath><clipPath id="p1_s655"><path d="M59.4490,255.9998 L224.3510,255.9998 L224.3510,238.4018 L59.4490,238.4018 L59.4490,255.9998 Z"/></clipPath><clipPath id="p1_s657"><path d="M119.5490,131.4998 L203.9010,131.4998 L203.9010,123.7518 L119.5490,123.7518 L119.5490,131.4998 Z"/></clipPath><clipPath id="p1_s660"><path d="M114.4990,192.4498 L125.5510,192.4498 L125.5510,181.4018 L114.4990,181.4018 L114.4990,192.4498 Z"/></clipPath><clipPath id="p1_s663"><path d="M114.4990,192.4498 L125.5510,192.4498 L125.5510,181.4018 L114.4990,181.4018 L114.4990,192.4498 Z"/></clipPath><clipPath id="p1_s666"><path d="M114.4990,192.4498 L125.5510,192.4498 L125.5510,181.4018 L114.4990,181.4018 L114.4990,192.4498 Z"/></clipPath><clipPath id="p1_s669"><path d="M114.4990,192.4498 L125.5510,192.4498 L125.5510,181.4018 L114.4990,181.4018 L114.4990,192.4498 Z"/></clipPath><clipPath id="p1_s672"><path d="M114.4990,192.4498 L125.5510,192.4498 L125.5510,181.4018 L114.4990,181.4018 L114.4990,192.4498 Z"/></clipPath><clipPath id="p1_s675"><path d="M114.4990,192.4498 L125.5510,192.4498 L125.5510,181.4018 L114.4990,181.4018 L114.4990,192.4498 Z"/></clipPath><clipPath id="p1_s678"><path d="M114.4990,192.4498 L125.5510,192.4498 L125.5510,181.4018 L114.4990,181.4018 L114.4990,192.4498 Z"/></clipPath><clipPath id="p1_s681"><path d="M114.4990,192.4498 L125.5510,192.4498 L125.5510,181.4018 L114.4990,181.4018 L114.4990,192.4498 Z"/></clipPath><clipPath id="p1_s684"><path d="M114.4990,192.4498 L125.5510,192.4498 L125.5510,181.4018 L114.4990,181.4018 L114.4990,192.4498 Z"/></clipPath><clipPath id="p1_s687"><path d="M114.4990,192.4498 L125.5510,192.4498 L125.5510,181.4018 L114.4990,181.4018 L114.4990,192.4498 Z"/></clipPath><clipPath id="p1_s690"><path d="M114.4990,192.4498 L125.5510,192.4498 L125.5510,181.4018 L114.4990,181.4018 L114.4990,192.4498 Z"/></clipPath><clipPath id="p1_s693"><path d="M114.4990,192.4498 L125.5510,192.4498 L125.5510,181.4018 L114.4990,181.4018 L114.4990,192.4498 Z"/></clipPath><clipPath id="p1_s696"><path d="M114.4990,192.4498 L125.5510,192.4498 L125.5510,181.4018 L114.4990,181.4018 L114.4990,192.4498 Z"/></clipPath><clipPath id="p1_s699"><path d="M114.4990,192.4498 L125.5510,192.4498 L125.5510,181.4018 L114.4990,181.4018 L114.4990,192.4498 Z"/></clipPath><clipPath id="p1_s702"><path d="M114.4990,192.4498 L125.5510,192.4498 L125.5510,181.4018 L114.4990,181.4018 L114.4990,192.4498 Z"/></clipPath><clipPath id="p1_s705"><path d="M114.4990,192.4498 L125.5510,192.4498 L125.5510,181.4018 L114.4990,181.4018 L114.4990,192.4498 Z"/></clipPath><clipPath id="p1_s708"><path d="M114.4990,192.4498 L125.5510,192.4498 L125.5510,181.4018 L114.4990,181.4018 L114.4990,192.4498 Z"/></clipPath><clipPath id="p1_s711"><path d="M114.4990,192.4498 L125.5510,192.4498 L125.5510,181.4018 L114.4990,181.4018 L114.4990,192.4498 Z"/></clipPath><clipPath id="p1_s714"><path d="M114.4990,192.4498 L125.5510,192.4498 L125.5510,181.4018 L114.4990,181.4018 L114.4990,192.4498 Z"/></clipPath><clipPath id="p1_s717"><path d="M114.4990,192.4498 L125.5510,192.4498 L125.5510,181.4018 L114.4990,181.4018 L114.4990,192.4498 Z"/></clipPath><clipPath id="p1_s720"><path d="M114.4990,192.4498 L125.5510,192.4498 L125.5510,181.4018 L114.4990,181.4018 L114.4990,192.4498 Z"/></clipPath><clipPath id="p1_s723"><path d="M114.4990,192.4498 L125.5510,192.4498 L125.5510,181.4018 L114.4990,181.4018 L114.4990,192.4498 Z"/></clipPath><clipPath id="p1_s726"><path d="M114.4990,192.4498 L125.5510,192.4498 L125.5510,181.4018 L114.4990,181.4018 L114.4990,192.4498 Z"/></clipPath><clipPath id="p1_s729"><path d="M114.4990,192.4498 L125.5510,192.4498 L125.5510,181.4018 L114.4990,181.4018 L114.4990,192.4498 Z"/></clipPath><clipPath id="p1_s732"><path d="M114.4990,192.4498 L125.5510,192.4498 L125.5510,181.4018 L114.4990,181.4018 L114.4990,192.4498 Z"/></clipPath><clipPath id="p1_s735"><path d="M114.4990,192.4498 L125.5510,192.4498 L125.5510,181.4018 L114.4990,181.4018 L114.4990,192.4498 Z"/></clipPath><clipPath id="p1_s738"><path d="M114.4990,192.4498 L125.5510,192.4498 L125.5510,181.4018 L114.4990,181.4018 L114.4990,192.4498 Z"/></clipPath><clipPath id="p1_s741"><path d="M114.4990,192.4498 L125.5510,192.4498 L125.5510,181.4018 L114.4990,181.4018 L114.4990,192.4498 Z"/></clipPath><clipPath id="p1_s744"><path d="M114.4990,192.4498 L125.5510,192.4498 L125.5510,181.4018 L114.4990,181.4018 L114.4990,192.4498 Z"/></clipPath><clipPath id="p1_s747"><path d="M114.4990,192.4498 L125.5510,192.4498 L125.5510,181.4018 L114.4990,181.4018 L114.4990,192.4498 Z"/></clipPath><clipPath id="p1_s750"><path d="M114.4990,192.4498 L125.5510,192.4498 L125.5510,181.4018 L114.4990,181.4018 L114.4990,192.4498 Z"/></clipPath><clipPath id="p1_s753"><path d="M114.4990,192.4498 L125.5510,192.4498 L125.5510,181.4018 L114.4990,181.4018 L114.4990,192.4498 Z"/></clipPath><clipPath id="p1_s756"><path d="M114.4990,192.4498 L125.5510,192.4498 L125.5510,181.4018 L114.4990,181.4018 L114.4990,192.4498 Z"/></clipPath><clipPath id="p1_s759"><path d="M114.4990,192.4498 L125.5510,192.4498 L125.5510,181.4018 L114.4990,181.4018 L114.4990,192.4498 Z"/></clipPath><clipPath id="p1_s762"><path d="M114.4990,192.4498 L125.5510,192.4498 L125.5510,181.4018 L114.4990,181.4018 L114.4990,192.4498 Z"/></clipPath><clipPath id="p1_s765"><path d="M114.4990,192.4498 L125.5510,192.4498 L125.5510,181.4018 L114.4990,181.4018 L114.4990,192.4498 Z"/></clipPath><clipPath id="p1_s768"><path d="M114.4990,192.4498 L125.5510,192.4498 L125.5510,181.4018 L114.4990,181.4018 L114.4990,192.4498 Z"/></clipPath><clipPath id="p1_s771"><path d="M114.4990,192.4498 L125.5510,192.4498 L125.5510,181.4018 L114.4990,181.4018 L114.4990,192.4498 Z"/></clipPath><clipPath id="p1_s774"><path d="M114.4990,192.4498 L125.5510,192.4498 L125.5510,181.4018 L114.4990,181.4018 L114.4990,192.4498 Z"/></clipPath><clipPath id="p1_s777"><path d="M114.4990,192.4498 L125.5510,192.4498 L125.5510,181.4018 L114.4990,181.4018 L114.4990,192.4498 Z"/></clipPath><clipPath id="p1_s780"><path d="M114.4990,192.4498 L125.5510,192.4498 L125.5510,181.4018 L114.4990,181.4018 L114.4990,192.4498 Z"/></clipPath><clipPath id="p1_s783"><path d="M114.4990,192.4498 L125.5510,192.4498 L125.5510,181.4018 L114.4990,181.4018 L114.4990,192.4498 Z"/></clipPath><clipPath id="p1_s786"><path d="M114.4990,192.4498 L125.5510,192.4498 L125.5510,181.4018 L114.4990,181.4018 L114.4990,192.4498 Z"/></clipPath><clipPath id="p1_s789"><path d="M114.4990,192.4498 L125.5510,192.4498 L125.5510,181.4018 L114.4990,181.4018 L114.4990,192.4498 Z"/></clipPath><clipPath id="p1_s792"><path d="M114.4990,192.4498 L125.5510,192.4498 L125.5510,181.4018 L114.4990,181.4018 L114.4990,192.4498 Z"/></clipPath><clipPath id="p1_s795"><path d="M114.4990,192.4498 L125.5510,192.4498 L125.5510,181.4018 L114.4990,181.4018 L114.4990,192.4498 Z"/></clipPath><clipPath id="p1_s798"><path d="M114.4990,192.4498 L125.5510,192.4498 L125.5510,181.4018 L114.4990,181.4018 L114.4990,192.4498 Z"/></clipPath><clipPath id="p1_s801"><path d="M114.4990,192.4498 L125.5510,192.4498 L125.5510,181.4018 L114.4990,181.4018 L114.4990,192.4498 Z"/></clipPath><clipPath id="p1_s804"><path d="M114.4990,192.4498 L125.5510,192.4498 L125.5510,181.4018 L114.4990,181.4018 L114.4990,192.4498 Z"/></clipPath><clipPath id="p1_s807"><path d="M114.4990,192.4498 L125.5510,192.4498 L125.5510,181.4018 L114.4990,181.4018 L114.4990,192.4498 Z"/></clipPath><clipPath id="p1_s810"><path d="M114.4990,192.4498 L125.5510,192.4498 L125.5510,181.4018 L114.4990,181.4018 L114.4990,192.4498 Z"/></clipPath><clipPath id="p1_s813"><path d="M114.4990,192.4498 L125.5510,192.4498 L125.5510,181.4018 L114.4990,181.4018 L114.4990,192.4498 Z"/></clipPath><clipPath id="p1_s816"><path d="M114.4990,192.4498 L125.5510,192.4498 L125.5510,181.4018 L114.4990,181.4018 L114.4990,192.4498 Z"/></clipPath><clipPath id="p1_s819"><path d="M114.4990,192.4498 L125.5510,192.4498 L125.5510,181.4018 L114.4990,181.4018 L114.4990,192.4498 Z"/></clipPath><clipPath id="p1_s822"><path d="M114.4990,192.4498 L125.5510,192.4498 L125.5510,181.4018 L114.4990,181.4018 L114.4990,192.4498 Z"/></clipPath><clipPath id="p1_s825"><path d="M114.4990,192.4498 L125.5510,192.4498 L125.5510,181.4018 L114.4990,181.4018 L114.4990,192.4498 Z"/></clipPath><clipPath id="p1_s828"><path d="M114.4990,192.4498 L125.5510,192.4498 L125.5510,181.4018 L114.4990,181.4018 L114.4990,192.4498 Z"/></clipPath><clipPath id="p1_s831"><path d="M114.4990,192.4498 L125.5510,192.4498 L125.5510,181.4018 L114.4990,181.4018 L114.4990,192.4498 Z"/></clipPath><clipPath id="p1_s834"><path d="M114.4990,192.4498 L125.5510,192.4498 L125.5510,181.4018 L114.4990,181.4018 L114.4990,192.4498 Z"/></clipPath><clipPath id="p1_s837"><path d="M114.4990,192.4498 L125.5510,192.4498 L125.5510,181.4018 L114.4990,181.4018 L114.4990,192.4498 Z"/></clipPath><clipPath id="p1_s840"><path d="M114.4990,192.4498 L125.5510,192.4498 L125.5510,181.4018 L114.4990,181.4018 L114.4990,192.4498 Z"/></clipPath><clipPath id="p1_s843"><path d="M114.4990,192.4498 L125.5510,192.4498 L125.5510,181.4018 L114.4990,181.4018 L114.4990,192.4498 Z"/></clipPath><clipPath id="p1_s846"><path d="M114.4990,192.4498 L125.5510,192.4498 L125.5510,181.4018 L114.4990,181.4018 L114.4990,192.4498 Z"/></clipPath><clipPath id="p1_s849"><path d="M114.4990,192.4498 L125.5510,192.4498 L125.5510,181.4018 L114.4990,181.4018 L114.4990,192.4498 Z"/></clipPath><clipPath id="p1_s852"><path d="M114.4990,192.4498 L125.5510,192.4498 L125.5510,181.4018 L114.4990,181.4018 L114.4990,192.4498 Z"/></clipPath><clipPath id="p1_s855"><path d="M114.4990,192.4498 L125.5510,192.4498 L125.5510,181.4018 L114.4990,181.4018 L114.4990,192.4498 Z"/></clipPath><clipPath id="p1_s858"><path d="M114.4990,192.4498 L125.5510,192.4498 L125.5510,181.4018 L114.4990,181.4018 L114.4990,192.4498 Z"/></clipPath><clipPath id="p1_s861"><path d="M114.4990,192.4498 L125.5510,192.4498 L125.5510,181.4018 L114.4990,181.4018 L114.4990,192.4498 Z"/></clipPath><clipPath id="p1_s864"><path d="M114.4990,192.4498 L125.5510,192.4498 L125.5510,181.4018 L114.4990,181.4018 L114.4990,192.4498 Z"/></clipPath><clipPath id="p1_s867"><path d="M114.4990,192.4498 L125.5510,192.4498 L125.5510,181.4018 L114.4990,181.4018 L114.4990,192.4498 Z"/></clipPath><clipPath id="p1_s870"><path d="M114.4990,192.4498 L125.5510,192.4498 L125.5510,181.4018 L114.4990,181.4018 L114.4990,192.4498 Z"/></clipPath><clipPath id="p1_s873"><path d="M114.4990,192.4498 L125.5510,192.4498 L125.5510,181.4018 L114.4990,181.4018 L114.4990,192.4498 Z"/></clipPath><clipPath id="p1_s876"><path d="M114.4990,192.4498 L125.5510,192.4498 L125.5510,181.4018 L114.4990,181.4018 L114.4990,192.4498 Z"/></clipPath><clipPath id="p1_s879"><path d="M114.4990,192.4498 L125.5510,192.4498 L125.5510,181.4018 L114.4990,181.4018 L114.4990,192.4498 Z"/></clipPath><clipPath id="p1_s882"><path d="M114.4990,192.4498 L125.5510,192.4498 L125.5510,181.4018 L114.4990,181.4018 L114.4990,192.4498 Z"/></clipPath><clipPath id="p1_s885"><path d="M114.4990,192.4498 L125.5510,192.4498 L125.5510,181.4018 L114.4990,181.4018 L114.4990,192.4498 Z"/></clipPath><clipPath id="p1_s888"><path d="M114.4990,192.4498 L125.5510,192.4498 L125.5510,181.4018 L114.4990,181.4018 L114.4990,192.4498 Z"/></clipPath><clipPath id="p1_s891"><path d="M114.4990,192.4498 L125.5510,192.4498 L125.5510,181.4018 L114.4990,181.4018 L114.4990,192.4498 Z"/></clipPath><clipPath id="p1_s894"><path d="M114.4990,192.4498 L125.5510,192.4498 L125.5510,181.4018 L114.4990,181.4018 L114.4990,192.4498 Z"/></clipPath><clipPath id="p1_s897"><path d="M114.4990,192.4498 L125.5510,192.4498 L125.5510,181.4018 L114.4990,181.4018 L114.4990,192.4498 Z"/></clipPath><clipPath id="p1_s900"><path d="M114.4990,192.4498 L125.5510,192.4498 L125.5510,181.4018 L114.4990,181.4018 L114.4990,192.4498 Z"/></clipPath><clipPath id="p1_s903"><path d="M114.4990,192.4498 L125.5510,192.4498 L125.5510,181.4018 L114.4990,181.4018 L114.4990,192.4498 Z"/></clipPath><clipPath id="p1_s906"><path d="M114.4990,192.4498 L125.5510,192.4498 L125.5510,181.4018 L114.4990,181.4018 L114.4990,192.4498 Z"/></clipPath><clipPath id="p1_s909"><path d="M114.4990,192.4498 L125.5510,192.4498 L125.5510,181.4018 L114.4990,181.4018 L114.4990,192.4498 Z"/></clipPath><clipPath id="p1_s912"><path d="M114.4990,192.4498 L125.5510,192.4498 L125.5510,181.4018 L114.4990,181.4018 L114.4990,192.4498 Z"/></clipPath><clipPath id="p1_s915"><path d="M114.4990,192.4498 L125.5510,192.4498 L125.5510,181.4018 L114.4990,181.4018 L114.4990,192.4498 Z"/></clipPath><clipPath id="p1_s918"><path d="M114.4990,192.4498 L125.5510,192.4498 L125.5510,181.4018 L114.4990,181.4018 L114.4990,192.4498 Z"/></clipPath><clipPath id="p1_s921"><path d="M114.4990,192.4498 L125.5510,192.4498 L125.5510,181.4018 L114.4990,181.4018 L114.4990,192.4498 Z"/></clipPath><clipPath id="p1_s924"><path d="M114.4990,192.4498 L125.5510,192.4498 L125.5510,181.4018 L114.4990,181.4018 L114.4990,192.4498 Z"/></clipPath><clipPath id="p1_s927"><path d="M114.4990,192.4498 L125.5510,192.4498 L125.5510,181.4018 L114.4990,181.4018 L114.4990,192.4498 Z"/></clipPath><clipPath id="p1_s930"><path d="M114.4990,192.4498 L125.5510,192.4498 L125.5510,181.4018 L114.4990,181.4018 L114.4990,192.4498 Z"/></clipPath><clipPath id="p1_s933"><path d="M114.4990,192.4498 L125.5510,192.4498 L125.5510,181.4018 L114.4990,181.4018 L114.4990,192.4498 Z"/></clipPath><clipPath id="p1_s936"><path d="M114.4990,192.4498 L125.5510,192.4498 L125.5510,181.4018 L114.4990,181.4018 L114.4990,192.4498 Z"/></clipPath><clipPath id="p1_s939"><path d="M114.4990,192.4498 L125.5510,192.4498 L125.5510,181.4018 L114.4990,181.4018 L114.4990,192.4498 Z"/></clipPath><clipPath id="p1_s942"><path d="M114.4990,192.4498 L125.5510,192.4498 L125.5510,181.4018 L114.4990,181.4018 L114.4990,192.4498 Z"/></clipPath><clipPath id="p1_s945"><path d="M114.4990,192.4498 L125.5510,192.4498 L125.5510,181.4018 L114.4990,181.4018 L114.4990,192.4498 Z"/></clipPath><clipPath id="p1_s948"><path d="M114.4990,192.4498 L125.5510,192.4498 L125.5510,181.4018 L114.4990,181.4018 L114.4990,192.4498 Z"/></clipPath><clipPath id="p1_s951"><path d="M114.4990,192.4498 L125.5510,192.4498 L125.5510,181.4018 L114.4990,181.4018 L114.4990,192.4498 Z"/></clipPath><clipPath id="p1_s954"><path d="M114.4990,192.4498 L125.5510,192.4498 L125.5510,181.4018 L114.4990,181.4018 L114.4990,192.4498 Z"/></clipPath><clipPath id="p1_s957"><path d="M114.4990,192.4498 L125.5510,192.4498 L125.5510,181.4018 L114.4990,181.4018 L114.4990,192.4498 Z"/></clipPath><clipPath id="p1_s960"><path d="M114.4990,192.4498 L125.5510,192.4498 L125.5510,181.4018 L114.4990,181.4018 L114.4990,192.4498 Z"/></clipPath><clipPath id="p1_s963"><path d="M114.4990,192.4498 L125.5510,192.4498 L125.5510,181.4018 L114.4990,181.4018 L114.4990,192.4498 Z"/></clipPath><clipPath id="p1_s966"><path d="M114.4990,192.4498 L125.5510,192.4498 L125.5510,181.4018 L114.4990,181.4018 L114.4990,192.4498 Z"/></clipPath><clipPath id="p1_s969"><path d="M114.4990,192.4498 L125.5510,192.4498 L125.5510,181.4018 L114.4990,181.4018 L114.4990,192.4498 Z"/></clipPath><clipPath id="p1_s972"><path d="M114.4990,192.4498 L125.5510,192.4498 L125.5510,181.4018 L114.4990,181.4018 L114.4990,192.4498 Z"/></clipPath><clipPath id="p1_s975"><path d="M114.4990,192.4498 L125.5510,192.4498 L125.5510,181.4018 L114.4990,181.4018 L114.4990,192.4498 Z"/></clipPath><clipPath id="p1_s978"><path d="M114.4990,192.4498 L125.5510,192.4498 L125.5510,181.4018 L114.4990,181.4018 L114.4990,192.4498 Z"/></clipPath><clipPath id="p1_s981"><path d="M114.4990,192.4498 L125.5510,192.4498 L125.5510,181.4018 L114.4990,181.4018 L114.4990,192.4498 Z"/></clipPath><clipPath id="p1_s984"><path d="M114.4990,192.4498 L125.5510,192.4498 L125.5510,181.4018 L114.4990,181.4018 L114.4990,192.4498 Z"/></clipPath><clipPath id="p1_s987"><path d="M114.4990,192.4498 L125.5510,192.4498 L125.5510,181.4018 L114.4990,181.4018 L114.4990,192.4498 Z"/></clipPath><clipPath id="p1_s990"><path d="M114.4990,192.4498 L125.5510,192.4498 L125.5510,181.4018 L114.4990,181.4018 L114.4990,192.4498 Z"/></clipPath><clipPath id="p1_s993"><path d="M114.4990,192.4498 L125.5510,192.4498 L125.5510,181.4018 L114.4990,181.4018 L114.4990,192.4498 Z"/></clipPath><clipPath id="p1_s996"><path d="M114.4990,192.4498 L125.5510,192.4498 L125.5510,181.4018 L114.4990,181.4018 L114.4990,192.4498 Z"/></clipPath><clipPath id="p1_s999"><path d="M114.4990,192.4498 L125.5510,192.4498 L125.5510,181.4018 L114.4990,181.4018 L114.4990,192.4498 Z"/></clipPath><clipPath id="p1_s1002"><path d="M114.4990,192.4498 L125.5510,192.4498 L125.5510,181.4018 L114.4990,181.4018 L114.4990,192.4498 Z"/></clipPath><clipPath id="p1_s1005"><path d="M114.4990,192.4498 L125.5510,192.4498 L125.5510,181.4018 L114.4990,181.4018 L114.4990,192.4498 Z"/></clipPath><clipPath id="p1_s1008"><path d="M114.4990,192.4498 L125.5510,192.4498 L125.5510,181.4018 L114.4990,181.4018 L114.4990,192.4498 Z"/></clipPath><clipPath id="p1_s1011"><path d="M114.4990,192.4498 L125.5510,192.4498 L125.5510,181.4018 L114.4990,181.4018 L114.4990,192.4498 Z"/></clipPath><clipPath id="p1_s1014"><path d="M114.4990,192.4498 L125.5510,192.4498 L125.5510,181.4018 L114.4990,181.4018 L114.4990,192.4498 Z"/></clipPath><clipPath id="p1_s1017"><path d="M114.4990,192.4498 L125.5510,192.4498 L125.5510,181.4018 L114.4990,181.4018 L114.4990,192.4498 Z"/></clipPath><clipPath id="p1_s1020"><path d="M114.4990,192.4498 L125.5510,192.4498 L125.5510,181.4018 L114.4990,181.4018 L114.4990,192.4498 Z"/></clipPath><clipPath id="p1_s1023"><path d="M114.4990,192.4498 L125.5510,192.4498 L125.5510,181.4018 L114.4990,181.4018 L114.4990,192.4498 Z"/></clipPath><clipPath id="p1_s1026"><path d="M114.4990,192.4498 L125.5510,192.4498 L125.5510,181.4018 L114.4990,181.4018 L114.4990,192.4498 Z"/></clipPath><clipPath id="p1_s1029"><path d="M114.4990,192.4498 L125.5510,192.4498 L125.5510,181.4018 L114.4990,181.4018 L114.4990,192.4498 Z"/></clipPath><clipPath id="p1_s1032"><path d="M114.4990,192.4498 L125.5510,192.4498 L125.5510,181.4018 L114.4990,181.4018 L114.4990,192.4498 Z"/></clipPath><clipPath id="p1_s1035"><path d="M114.4990,192.4498 L125.5510,192.4498 L125.5510,181.4018 L114.4990,181.4018 L114.4990,192.4498 Z"/></clipPath><clipPath id="p1_s1038"><path d="M114.4990,192.4498 L125.5510,192.4498 L125.5510,181.4018 L114.4990,181.4018 L114.4990,192.4498 Z"/></clipPath><clipPath id="p1_s1041"><path d="M114.4990,192.4498 L125.5510,192.4498 L125.5510,181.4018 L114.4990,181.4018 L114.4990,192.4498 Z"/></clipPath><clipPath id="p1_s1044"><path d="M114.4990,192.4498 L125.5510,192.4498 L125.5510,181.4018 L114.4990,181.4018 L114.4990,192.4498 Z"/></clipPath><clipPath id="p1_s1047"><path d="M114.4990,192.4498 L125.5510,192.4498 L125.5510,181.4018 L114.4990,181.4018 L114.4990,192.4498 Z"/></clipPath><clipPath id="p1_s1050"><path d="M114.4990,192.4498 L125.5510,192.4498 L125.5510,181.4018 L114.4990,181.4018 L114.4990,192.4498 Z"/></clipPath><clipPath id="p1_s1053"><path d="M114.4990,192.4498 L125.5510,192.4498 L125.5510,181.4018 L114.4990,181.4018 L114.4990,192.4498 Z"/></clipPath><clipPath id="p1_s1056"><path d="M114.4990,192.4498 L125.5510,192.4498 L125.5510,181.4018 L114.4990,181.4018 L114.4990,192.4498 Z"/></clipPath><clipPath id="p1_s1059"><path d="M114.4990,192.4498 L125.5510,192.4498 L125.5510,181.4018 L114.4990,181.4018 L114.4990,192.4498 Z"/></clipPath><clipPath id="p1_s1062"><path d="M114.4990,192.4498 L125.5510,192.4498 L125.5510,181.4018 L114.4990,181.4018 L114.4990,192.4498 Z"/></clipPath><clipPath id="p1_s1065"><path d="M114.4990,192.4498 L125.5510,192.4498 L125.5510,181.4018 L114.4990,181.4018 L114.4990,192.4498 Z"/></clipPath><clipPath id="p1_s1068"><path d="M114.4990,192.4498 L125.5510,192.4498 L125.5510,181.4018 L114.4990,181.4018 L114.4990,192.4498 Z"/></clipPath><clipPath id="p1_s1071"><path d="M114.4990,192.4498 L125.5510,192.4498 L125.5510,181.4018 L114.4990,181.4018 L114.4990,192.4498 Z"/></clipPath><clipPath id="p1_s1074"><path d="M114.4990,192.4498 L125.5510,192.4498 L125.5510,181.4018 L114.4990,181.4018 L114.4990,192.4498 Z"/></clipPath><clipPath id="p1_s1077"><path d="M114.4990,192.4498 L125.5510,192.4498 L125.5510,181.4018 L114.4990,181.4018 L114.4990,192.4498 Z"/></clipPath><clipPath id="p1_s1080"><path d="M114.4990,192.4498 L125.5510,192.4498 L125.5510,181.4018 L114.4990,181.4018 L114.4990,192.4498 Z"/></clipPath><clipPath id="p1_s1083"><path d="M114.4990,192.4498 L125.5510,192.4498 L125.5510,181.4018 L114.4990,181.4018 L114.4990,192.4498 Z"/></clipPath><clipPath id="p1_s1086"><path d="M114.4990,192.4498 L125.5510,192.4498 L125.5510,181.4018 L114.4990,181.4018 L114.4990,192.4498 Z"/></clipPath><clipPath id="p1_s1089"><path d="M114.4990,192.4498 L125.5510,192.4498 L125.5510,181.4018 L114.4990,181.4018 L114.4990,192.4498 Z"/></clipPath><clipPath id="p1_s1092"><path d="M114.4990,192.4498 L125.5510,192.4498 L125.5510,181.4018 L114.4990,181.4018 L114.4990,192.4498 Z"/></clipPath><clipPath id="p1_s1095"><path d="M114.4990,192.4498 L125.5510,192.4498 L125.5510,181.4018 L114.4990,181.4018 L114.4990,192.4498 Z"/></clipPath><clipPath id="p1_s1098"><path d="M114.4990,192.4498 L125.5510,192.4498 L125.5510,181.4018 L114.4990,181.4018 L114.4990,192.4498 Z"/></clipPath><clipPath id="p1_s1101"><path d="M114.4990,192.4498 L125.5510,192.4498 L125.5510,181.4018 L114.4990,181.4018 L114.4990,192.4498 Z"/></clipPath><clipPath id="p1_s1104"><path d="M114.4990,192.4498 L125.5510,192.4498 L125.5510,181.4018 L114.4990,181.4018 L114.4990,192.4498 Z"/></clipPath><clipPath id="p1_s1107"><path d="M114.4990,192.4498 L125.5510,192.4498 L125.5510,181.4018 L114.4990,181.4018 L114.4990,192.4498 Z"/></clipPath><clipPath id="p1_s1110"><path d="M114.4990,192.4498 L125.5510,192.4498 L125.5510,181.4018 L114.4990,181.4018 L114.4990,192.4498 Z"/></clipPath><clipPath id="p1_s1113"><path d="M114.4990,192.4498 L125.5510,192.4498 L125.5510,181.4018 L114.4990,181.4018 L114.4990,192.4498 Z"/></clipPath><clipPath id="p1_s1116"><path d="M114.4990,192.4498 L125.5510,192.4498 L125.5510,181.4018 L114.4990,181.4018 L114.4990,192.4498 Z"/></clipPath><clipPath id="p1_s1119"><path d="M114.4990,192.4498 L125.5510,192.4498 L125.5510,181.4018 L114.4990,181.4018 L114.4990,192.4498 Z"/></clipPath><clipPath id="p1_s1122"><path d="M114.4990,192.4498 L125.5510,192.4498 L125.5510,181.4018 L114.4990,181.4018 L114.4990,192.4498 Z"/></clipPath><clipPath id="p1_s1125"><path d="M114.4990,192.4498 L125.5510,192.4498 L125.5510,181.4018 L114.4990,181.4018 L114.4990,192.4498 Z"/></clipPath><clipPath id="p1_s1128"><path d="M114.4990,192.4498 L125.5510,192.4498 L125.5510,181.4018 L114.4990,181.4018 L114.4990,192.4498 Z"/></clipPath><clipPath id="p1_s1131"><path d="M114.4990,192.4498 L125.5510,192.4498 L125.5510,181.4018 L114.4990,181.4018 L114.4990,192.4498 Z"/></clipPath><clipPath id="p1_s1134"><path d="M114.4990,192.4498 L125.5510,192.4498 L125.5510,181.4018 L114.4990,181.4018 L114.4990,192.4498 Z"/></clipPath><clipPath id="p1_s1137"><path d="M114.4990,192.4498 L125.5510,192.4498 L125.5510,181.4018 L114.4990,181.4018 L114.4990,192.4498 Z"/></clipPath><clipPath id="p1_s1140"><path d="M114.4990,192.4498 L125.5510,192.4498 L125.5510,181.4018 L114.4990,181.4018 L114.4990,192.4498 Z"/></clipPath><clipPath id="p1_s1143"><path d="M114.4990,192.4498 L125.5510,192.4498 L125.5510,181.4018 L114.4990,181.4018 L114.4990,192.4498 Z"/></clipPath><clipPath id="p1_s1146"><path d="M114.4990,192.4498 L125.5510,192.4498 L125.5510,181.4018 L114.4990,181.4018 L114.4990,192.4498 Z"/></clipPath><clipPath id="p1_s1149"><path d="M114.4990,192.4498 L125.5510,192.4498 L125.5510,181.4018 L114.4990,181.4018 L114.4990,192.4498 Z"/></clipPath><clipPath id="p1_s1152"><path d="M114.4990,192.4498 L125.5510,192.4498 L125.5510,181.4018 L114.4990,181.4018 L114.4990,192.4498 Z"/></clipPath><clipPath id="p1_s1155"><path d="M114.4990,192.4498 L125.5510,192.4498 L125.5510,181.4018 L114.4990,181.4018 L114.4990,192.4498 Z"/></clipPath><clipPath id="p1_s1158"><path d="M114.4990,192.4498 L125.5510,192.4498 L125.5510,181.4018 L114.4990,181.4018 L114.4990,192.4498 Z"/></clipPath><clipPath id="p1_s1161"><path d="M114.4990,192.4498 L125.5510,192.4498 L125.5510,181.4018 L114.4990,181.4018 L114.4990,192.4498 Z"/></clipPath><clipPath id="p1_s1164"><path d="M114.4990,192.4498 L125.5510,192.4498 L125.5510,181.4018 L114.4990,181.4018 L114.4990,192.4498 Z"/></clipPath><clipPath id="p1_s1167"><path d="M114.4990,192.4498 L125.5510,192.4498 L125.5510,181.4018 L114.4990,181.4018 L114.4990,192.4498 Z"/></clipPath><clipPath id="p1_s1170"><path d="M114.4990,192.4498 L125.5510,192.4498 L125.5510,181.4018 L114.4990,181.4018 L114.4990,192.4498 Z"/></clipPath><clipPath id="p1_s1173"><path d="M114.4990,192.4498 L125.5510,192.4498 L125.5510,181.4018 L114.4990,181.4018 L114.4990,192.4498 Z"/></clipPath><clipPath id="p1_s1176"><path d="M114.4990,192.4498 L125.5510,192.4498 L125.5510,181.4018 L114.4990,181.4018 L114.4990,192.4498 Z"/></clipPath><clipPath id="p1_s1179"><path d="M114.4990,192.4498 L125.5510,192.4498 L125.5510,181.4018 L114.4990,181.4018 L114.4990,192.4498 Z"/></clipPath><clipPath id="p1_s1182"><path d="M114.4990,192.4498 L125.5510,192.4498 L125.5510,181.4018 L114.4990,181.4018 L114.4990,192.4498 Z"/></clipPath><clipPath id="p1_s1185"><path d="M114.4990,192.4498 L125.5510,192.4498 L125.5510,181.4018 L114.4990,181.4018 L114.4990,192.4498 Z"/></clipPath><clipPath id="p1_s1188"><path d="M114.4990,192.4498 L125.5510,192.4498 L125.5510,181.4018 L114.4990,181.4018 L114.4990,192.4498 Z"/></clipPath><clipPath id="p1_s1191"><path d="M114.4990,192.4498 L125.5510,192.4498 L125.5510,181.4018 L114.4990,181.4018 L114.4990,192.4498 Z"/></clipPath><clipPath id="p1_s1194"><path d="M114.4990,192.4498 L125.5510,192.4498 L125.5510,181.4018 L114.4990,181.4018 L114.4990,192.4498 Z"/></clipPath><clipPath id="p1_s1197"><path d="M114.4990,192.4498 L125.5510,192.4498 L125.5510,181.4018 L114.4990,181.4018 L114.4990,192.4498 Z"/></clipPath><clipPath id="p1_s1200"><path d="M114.4990,192.4498 L125.5510,192.4498 L125.5510,181.4018 L114.4990,181.4018 L114.4990,192.4498 Z"/></clipPath><clipPath id="p1_s1203"><path d="M114.4990,192.4498 L125.5510,192.4498 L125.5510,181.4018 L114.4990,181.4018 L114.4990,192.4498 Z"/></clipPath><clipPath id="p1_s1206"><path d="M114.4990,192.4498 L125.5510,192.4498 L125.5510,181.4018 L114.4990,181.4018 L114.4990,192.4498 Z"/></clipPath><clipPath id="p1_s1209"><path d="M114.4990,192.4498 L125.5510,192.4498 L125.5510,181.4018 L114.4990,181.4018 L114.4990,192.4498 Z"/></clipPath><clipPath id="p1_s1212"><path d="M114.4990,192.4498 L125.5510,192.4498 L125.5510,181.4018 L114.4990,181.4018 L114.4990,192.4498 Z"/></clipPath><clipPath id="p1_s1215"><path d="M114.4990,192.4498 L125.5510,192.4498 L125.5510,181.4018 L114.4990,181.4018 L114.4990,192.4498 Z"/></clipPath><clipPath id="p1_s1218"><path d="M114.4990,192.4498 L125.5510,192.4498 L125.5510,181.4018 L114.4990,181.4018 L114.4990,192.4498 Z"/></clipPath><clipPath id="p1_s1221"><path d="M114.4990,192.4498 L125.5510,192.4498 L125.5510,181.4018 L114.4990,181.4018 L114.4990,192.4498 Z"/></clipPath><clipPath id="p1_s1224"><path d="M114.4990,192.4498 L125.5510,192.4498 L125.5510,181.4018 L114.4990,181.4018 L114.4990,192.4498 Z"/></clipPath><clipPath id="p1_s1227"><path d="M114.4990,192.4498 L125.5510,192.4498 L125.5510,181.4018 L114.4990,181.4018 L114.4990,192.4498 Z"/></clipPath><clipPath id="p1_s1230"><path d="M114.4990,192.4498 L125.5510,192.4498 L125.5510,181.4018 L114.4990,181.4018 L114.4990,192.4498 Z"/></clipPath><clipPath id="p1_s1233"><path d="M114.4990,192.4498 L125.5510,192.4498 L125.5510,181.4018 L114.4990,181.4018 L114.4990,192.4498 Z"/></clipPath><clipPath id="p1_s1236"><path d="M114.4990,192.4498 L125.5510,192.4498 L125.5510,181.4018 L114.4990,181.4018 L114.4990,192.4498 Z"/></clipPath><clipPath id="p1_s1239"><path d="M114.4990,192.4498 L125.5510,192.4498 L125.5510,181.4018 L114.4990,181.4018 L114.4990,192.4498 Z"/></clipPath><clipPath id="p1_s1242"><path d="M114.4990,192.4498 L125.5510,192.4498 L125.5510,181.4018 L114.4990,181.4018 L114.4990,192.4498 Z"/></clipPath><clipPath id="p1_s1245"><path d="M114.4990,192.4498 L125.5510,192.4498 L125.5510,181.4018 L114.4990,181.4018 L114.4990,192.4498 Z"/></clipPath><clipPath id="p1_s1248"><path d="M114.4990,192.4498 L125.5510,192.4498 L125.5510,181.4018 L114.4990,181.4018 L114.4990,192.4498 Z"/></clipPath><clipPath id="p1_s1251"><path d="M114.4990,192.4498 L125.5510,192.4498 L125.5510,181.4018 L114.4990,181.4018 L114.4990,192.4498 Z"/></clipPath><clipPath id="p1_s1254"><path d="M114.4990,192.4498 L125.5510,192.4498 L125.5510,181.4018 L114.4990,181.4018 L114.4990,192.4498 Z"/></clipPath></svg>
