<?xml version="1.0" encoding="UTF-8"?>
<svg xmlns="http://www.w3.org/2000/svg"><g style="stroke: #000000;fill:none;stroke-width: 1;stroke-linejoin:miter;stroke-linecap:butt;stroke-miterlimit: 10;" id="p1_s1"><path d="M63.3000,181.4008 C66.3500,181.4008 68.8500,183.8508 68.8500,186.9008 C68.8500,189.9508 66.3500,192.4508 63.3000,192.4508 C60.2500,192.4508 57.8000,189.9508 57.8000,186.9008 C57.8000,183.8508 60.2500,181.4008 63.3000,181.4008 Z"/></g><g style="stroke: #000000;fill:none;stroke-width: 1;stroke-linejoin:miter;stroke-linecap:butt;stroke-miterlimit: 10;" id="p1_s2"><path d="M120.0000,181.4008 C123.0500,181.4008 125.5500,183.8508 125.5500,186.9008 C125.5500,189.9508 123.0500,192.4508 120.0000,192.4508 C116.9500,192.4508 114.5000,189.9508 114.5000,186.9008 C114.5000,183.8508 116.9500,181.4008 120.0000,181.4008 Z"/></g><clipPath id="p1_s3"><path d="M119.5490,131.4998 L203.9010,131.4998 L203.9010,123.7518 L119.5490,123.7518 L119.5490,131.4998 Z"/></clipPath><clipPath id="p1_s6"><path d="M273.3490,129.5498 L357.0010,129.5498 L357.0010,125.7018 L273.3490,125.7018 L273.3490,129.5498 Z"/></clipPath><clipPath id="p1_s8"><path d="M119.6990,149.2498 L232.5510,149.2498 L232.5510,137.2518 L119.6990,137.2518 L119.6990,149.2498 Z"/></clipPath><clipPath id="p1_s10"><path d="M57.7990,286.2998 L68.8510,286.2998 L68.8510,275.2518 L57.7990,275.2518 L57.7990,286.2998 Z"/></clipPath><clipPath id="p1_s12"><path d="M77.2490,350.8998 L230.8010,350.8998 L230.8010,342.4518 L77.2490,342.4518 L77.2490,350.8998 Z"/></clipPath><clipPath id="p1_s15"><path d="M59.4490,255.9998 L224.3510,255.9998 L224.3510,238.4018 L59.4490,238.4018 L59.4490,255.9998 Z"/></clipPath><g style="fill: #000000;fill-opacity: 1;" id="p1_s32"><path d="M60.4490,273.4018 L223.3510,273.4018 L223.3510,262.4018 L60.4490,262.4018 L60.4490,273.4018 Z"/></g></svg>
