<?xml version="1.0" encoding="UTF-8"?>
<svg xmlns="http://www.w3.org/2000/svg"><clipPath id="p1_s1" evenodd="true"><path d="M0.0000,841.8618 L595.2750,841.8618 L595.2750,0.0008 L0.0000,0.0008 L0.0000,841.8618 Z"/></clipPath><g style="fill: #FFFFFF;fill-rule: evenodd;fill-opacity: 1;" id="p1_s7"><path d="M116.8000,134.2508 L206.6500,134.2508 L206.6500,121.0008 L116.8000,121.0008 L116.8000,134.2508 Z"/></g><g style="stroke: #000000;fill:none;stroke-width: 0.1;stroke-linejoin:miter;stroke-linecap:butt;stroke-miterlimit: 10;" id="p1_s8"><path d="M116.8000,134.2508 L206.6500,134.2508 L206.6500,121.0008 L116.8000,121.0008 L116.8000,134.2508 Z"/></g><g style="fill: #FFFFFF;fill-rule: evenodd;fill-opacity: 1;" id="p1_s9"><path d="M270.6000,132.3008 L359.7500,132.3008 L359.7500,122.9508 L270.6000,122.9508 L270.6000,132.3008 Z"/></g><g style="stroke: #000000;fill:none;stroke-width: 0.1;stroke-linejoin:miter;stroke-linecap:butt;stroke-miterlimit: 10;" id="p1_s10"><path d="M270.6000,132.3008 L359.7500,132.3008 L359.7500,122.9508 L270.6000,122.9508 L270.6000,132.3008 Z"/></g><g style="fill: #FFFFFF;fill-rule: evenodd;fill-opacity: 1;" id="p1_s16"><path d="M56.7000,193.3508 L113.4000,193.3508 L113.4000,180.5008 L56.7000,180.5008 L56.7000,193.3508 Z"/></g><g style="stroke: #000000;fill:none;stroke-width: 1.1;stroke-linejoin:miter;stroke-linecap:butt;stroke-miterlimit: 10;" id="p1_s17"><path d="M63.3000,181.4008 C66.3500,181.4008 68.8500,183.8508 68.8500,186.9008 C68.8500,189.9508 66.3500,192.4508 63.3000,192.4508 C60.2500,192.4508 57.8000,189.9508 57.8000,186.9008 C57.8000,183.8508 60.2500,181.4008 63.3000,181.4008 Z"/></g><clipPath id="p1_s18" evenodd="true"><path d="M73.2500,193.3508 L112.3500,193.3508 L112.3500,180.5008 L73.2500,180.5008 L73.2500,193.3508 Z"/></clipPath><g style="fill: #FFFFFF;fill-rule: evenodd;fill-opacity: 1;" id="p1_s21"><path d="M113.4000,194.2508 L166.9500,194.2508 L166.9500,179.6008 L113.4000,179.6008 L113.4000,194.2508 Z"/></g><g style="stroke: #000000;fill:none;stroke-width: 1.1;stroke-linejoin:miter;stroke-linecap:butt;stroke-miterlimit: 10;" id="p1_s22"><path d="M120.0000,181.4008 C123.0500,181.4008 125.5500,183.8508 125.5500,186.9008 C125.5500,189.9508 123.0500,192.4508 120.0000,192.4508 C116.9500,192.4508 114.5000,189.9508 114.5000,186.9008 C114.5000,183.8508 116.9500,181.4008 120.0000,181.4008 Z"/></g><clipPath id="p1_s23" evenodd="true"><path d="M129.9500,194.2508 L165.9000,194.2508 L165.9000,179.6008 L129.9500,179.6008 L129.9500,194.2508 Z"/></clipPath><g style="fill: #FFFFFF;fill-rule: evenodd;fill-opacity: 1;" id="p1_s26"><path d="M116.9500,152.0008 L235.3000,152.0008 L235.3000,134.5008 L116.9500,134.5008 L116.9500,152.0008 Z"/></g><g style="stroke: #000000;fill:none;stroke-width: 0.1;stroke-linejoin:miter;stroke-linecap:butt;stroke-miterlimit: 10;" id="p1_s27"><path d="M116.9500,152.0008 L235.3000,152.0008 L235.3000,134.5008 L116.9500,134.5008 L116.9500,152.0008 Z"/></g><g style="fill: #FFFFFF;fill-rule: evenodd;fill-opacity: 1;" id="p1_s28"><path d="M56.7000,288.8008 L217.8500,288.8008 L217.8500,272.7008 L56.7000,272.7008 L56.7000,288.8008 Z"/></g><g style="stroke: #000000;fill:none;stroke-width: 1.1;stroke-linejoin:miter;stroke-linecap:butt;stroke-miterlimit: 10;" id="p1_s29"><path d="M57.8000,286.3008 L68.8500,286.3008 L68.8500,275.2508 L57.8000,275.2508 L57.8000,286.3008 Z"/></g><clipPath id="p1_s30" evenodd="true"><path d="M73.2500,288.8008 L216.8000,288.8008 L216.8000,272.7008 L73.2500,272.7008 L73.2500,288.8008 Z"/></clipPath><g style="fill: #FFFFFF;fill-rule: evenodd;fill-opacity: 1;" id="p1_s36"><path d="M56.7000,304.1508 L123.7500,304.1508 L123.7500,288.8008 L56.7000,288.8008 L56.7000,304.1508 Z"/></g><g style="stroke: #000000;fill:none;stroke-width: 1.1;stroke-linejoin:miter;stroke-linecap:butt;stroke-miterlimit: 10;" id="p1_s37"><path d="M57.8000,302.0008 L68.8500,302.0008 L68.8500,290.9508 L57.8000,290.9508 L57.8000,302.0008 Z"/></g><clipPath id="p1_s38" evenodd="true"><path d="M73.2500,304.1508 L122.7000,304.1508 L122.7000,288.8008 L73.2500,288.8008 L73.2500,304.1508 Z"/></clipPath><g style="fill: #FFFFFF;fill-rule: evenodd;fill-opacity: 1;" id="p1_s41"><path d="M74.5000,353.6508 L233.5500,353.6508 L233.5500,339.7008 L74.5000,339.7008 L74.5000,353.6508 Z"/></g><g style="stroke: #000000;fill:none;stroke-width: 0.1;stroke-linejoin:miter;stroke-linecap:butt;stroke-miterlimit: 10;" id="p1_s42"><path d="M74.5000,353.6508 L233.5500,353.6508 L233.5500,339.7008 L74.5000,339.7008 L74.5000,353.6508 Z"/></g><g style="fill: #FFFFFF;fill-rule: evenodd;fill-opacity: 1;" id="p1_s43"><path d="M56.7000,258.7508 L227.1000,258.7508 L227.1000,235.6508 L56.7000,235.6508 L56.7000,258.7508 Z"/></g><g style="stroke: #000000;fill:none;stroke-width: 0.1;stroke-linejoin:miter;stroke-linecap:butt;stroke-miterlimit: 10;" id="p1_s44"><path d="M56.7000,258.7508 L227.1000,258.7508 L227.1000,235.6508 L56.7000,235.6508 L56.7000,258.7508 Z"/></g><clipPath id="p1_s45"><path d="M119.5490,131.4998 L203.9010,131.4998 L203.9010,123.7518 L119.5490,123.7518 L119.5490,131.4998 Z"/></clipPath><clipPath id="p1_s49"><path d="M273.3490,129.5498 L357.0010,129.5498 L357.0010,125.7018 L273.3490,125.7018 L273.3490,129.5498 Z"/></clipPath><clipPath id="p1_s51"><path d="M114.4990,192.4498 L125.5510,192.4498 L125.5510,181.4018 L114.4990,181.4018 L114.4990,192.4498 Z"/></clipPath><clipPath id="p1_s53"><path d="M114.4990,192.4498 L125.5510,192.4498 L125.5510,181.4018 L114.4990,181.4018 L114.4990,192.4498 Z"/></clipPath><clipPath id="p1_s55"><path d="M114.4990,192.4498 L125.5510,192.4498 L125.5510,181.4018 L114.4990,181.4018 L114.4990,192.4498 Z"/></clipPath><clipPath id="p1_s57"><path d="M114.4990,192.4498 L125.5510,192.4498 L125.5510,181.4018 L114.4990,181.4018 L114.4990,192.4498 Z"/></clipPath><clipPath id="p1_s59"><path d="M114.4990,192.4498 L125.5510,192.4498 L125.5510,181.4018 L114.4990,181.4018 L114.4990,192.4498 Z"/></clipPath><clipPath id="p1_s61"><path d="M114.4990,192.4498 L125.5510,192.4498 L125.5510,181.4018 L114.4990,181.4018 L114.4990,192.4498 Z"/></clipPath><clipPath id="p1_s63"><path d="M114.4990,192.4498 L125.5510,192.4498 L125.5510,181.4018 L114.4990,181.4018 L114.4990,192.4498 Z"/></clipPath><clipPath id="p1_s65"><path d="M114.4990,192.4498 L125.5510,192.4498 L125.5510,181.4018 L114.4990,181.4018 L114.4990,192.4498 Z"/></clipPath><clipPath id="p1_s67"><path d="M114.4990,192.4498 L125.5510,192.4498 L125.5510,181.4018 L114.4990,181.4018 L114.4990,192.4498 Z"/></clipPath><clipPath id="p1_s69"><path d="M114.4990,192.4498 L125.5510,192.4498 L125.5510,181.4018 L114.4990,181.4018 L114.4990,192.4498 Z"/></clipPath><clipPath id="p1_s71"><path d="M114.4990,192.4498 L125.5510,192.4498 L125.5510,181.4018 L114.4990,181.4018 L114.4990,192.4498 Z"/></clipPath><clipPath id="p1_s73"><path d="M114.4990,192.4498 L125.5510,192.4498 L125.5510,181.4018 L114.4990,181.4018 L114.4990,192.4498 Z"/></clipPath><clipPath id="p1_s75"><path d="M114.4990,192.4498 L125.5510,192.4498 L125.5510,181.4018 L114.4990,181.4018 L114.4990,192.4498 Z"/></clipPath><clipPath id="p1_s77"><path d="M114.4990,192.4498 L125.5510,192.4498 L125.5510,181.4018 L114.4990,181.4018 L114.4990,192.4498 Z"/></clipPath><clipPath id="p1_s79"><path d="M114.4990,192.4498 L125.5510,192.4498 L125.5510,181.4018 L114.4990,181.4018 L114.4990,192.4498 Z"/></clipPath><clipPath id="p1_s81"><path d="M114.4990,192.4498 L125.5510,192.4498 L125.5510,181.4018 L114.4990,181.4018 L114.4990,192.4498 Z"/></clipPath><clipPath id="p1_s83"><path d="M114.4990,192.4498 L125.5510,192.4498 L125.5510,181.4018 L114.4990,181.4018 L114.4990,192.4498 Z"/></clipPath><clipPath id="p1_s85"><path d="M114.4990,192.4498 L125.5510,192.4498 L125.5510,181.4018 L114.4990,181.4018 L114.4990,192.4498 Z"/></clipPath><clipPath id="p1_s87"><path d="M114.4990,192.4498 L125.5510,192.4498 L125.5510,181.4018 L114.4990,181.4018 L114.4990,192.4498 Z"/></clipPath><clipPath id="p1_s89"><path d="M114.4990,192.4498 L125.5510,192.4498 L125.5510,181.4018 L114.4990,181.4018 L114.4990,192.4498 Z"/></clipPath><clipPath id="p1_s91"><path d="M114.4990,192.4498 L125.5510,192.4498 L125.5510,181.4018 L114.4990,181.4018 L114.4990,192.4498 Z"/></clipPath><clipPath id="p1_s93"><path d="M114.4990,192.4498 L125.5510,192.4498 L125.5510,181.4018 L114.4990,181.4018 L114.4990,192.4498 Z"/></clipPath><clipPath id="p1_s95"><path d="M114.4990,192.4498 L125.5510,192.4498 L125.5510,181.4018 L114.4990,181.4018 L114.4990,192.4498 Z"/></clipPath><clipPath id="p1_s97"><path d="M114.4990,192.4498 L125.5510,192.4498 L125.5510,181.4018 L114.4990,181.4018 L114.4990,192.4498 Z"/></clipPath><clipPath id="p1_s99"><path d="M114.4990,192.4498 L125.5510,192.4498 L125.5510,181.4018 L114.4990,181.4018 L114.4990,192.4498 Z"/></clipPath><clipPath id="p1_s101"><path d="M114.4990,192.4498 L125.5510,192.4498 L125.5510,181.4018 L114.4990,181.4018 L114.4990,192.4498 Z"/></clipPath><clipPath id="p1_s103"><path d="M114.4990,192.4498 L125.5510,192.4498 L125.5510,181.4018 L114.4990,181.4018 L114.4990,192.4498 Z"/></clipPath><clipPath id="p1_s105"><path d="M114.4990,192.4498 L125.5510,192.4498 L125.5510,181.4018 L114.4990,181.4018 L114.4990,192.4498 Z"/></clipPath><clipPath id="p1_s107"><path d="M114.4990,192.4498 L125.5510,192.4498 L125.5510,181.4018 L114.4990,181.4018 L114.4990,192.4498 Z"/></clipPath><clipPath id="p1_s109"><path d="M114.4990,192.4498 L125.5510,192.4498 L125.5510,181.4018 L114.4990,181.4018 L114.4990,192.4498 Z"/></clipPath><clipPath id="p1_s111"><path d="M114.4990,192.4498 L125.5510,192.4498 L125.5510,181.4018 L114.4990,181.4018 L114.4990,192.4498 Z"/></clipPath><clipPath id="p1_s113"><path d="M114.4990,192.4498 L125.5510,192.4498 L125.5510,181.4018 L114.4990,181.4018 L114.4990,192.4498 Z"/></clipPath><clipPath id="p1_s115"><path d="M114.4990,192.4498 L125.5510,192.4498 L125.5510,181.4018 L114.4990,181.4018 L114.4990,192.4498 Z"/></clipPath><clipPath id="p1_s117"><path d="M114.4990,192.4498 L125.5510,192.4498 L125.5510,181.4018 L114.4990,181.4018 L114.4990,192.4498 Z"/></clipPath><clipPath id="p1_s119"><path d="M114.4990,192.4498 L125.5510,192.4498 L125.5510,181.4018 L114.4990,181.4018 L114.4990,192.4498 Z"/></clipPath><clipPath id="p1_s121"><path d="M114.4990,192.4498 L125.5510,192.4498 L125.5510,181.4018 L114.4990,181.4018 L114.4990,192.4498 Z"/></clipPath><clipPath id="p1_s123"><path d="M114.4990,192.4498 L125.5510,192.4498 L125.5510,181.4018 L114.4990,181.4018 L114.4990,192.4498 Z"/></clipPath><clipPath id="p1_s125"><path d="M114.4990,192.4498 L125.5510,192.4498 L125.5510,181.4018 L114.4990,181.4018 L114.4990,192.4498 Z"/></clipPath><clipPath id="p1_s127"><path d="M114.4990,192.4498 L125.5510,192.4498 L125.5510,181.4018 L114.4990,181.4018 L114.4990,192.4498 Z"/></clipPath><clipPath id="p1_s129"><path d="M114.4990,192.4498 L125.5510,192.4498 L125.5510,181.4018 L114.4990,181.4018 L114.4990,192.4498 Z"/></clipPath><clipPath id="p1_s131"><path d="M114.4990,192.4498 L125.5510,192.4498 L125.5510,181.4018 L114.4990,181.4018 L114.4990,192.4498 Z"/></clipPath><clipPath id="p1_s133"><path d="M114.4990,192.4498 L125.5510,192.4498 L125.5510,181.4018 L114.4990,181.4018 L114.4990,192.4498 Z"/></clipPath><clipPath id="p1_s135"><path d="M114.4990,192.4498 L125.5510,192.4498 L125.5510,181.4018 L114.4990,181.4018 L114.4990,192.4498 Z"/></clipPath><clipPath id="p1_s137"><path d="M114.4990,192.4498 L125.5510,192.4498 L125.5510,181.4018 L114.4990,181.4018 L114.4990,192.4498 Z"/></clipPath><clipPath id="p1_s139"><path d="M114.4990,192.4498 L125.5510,192.4498 L125.5510,181.4018 L114.4990,181.4018 L114.4990,192.4498 Z"/></clipPath><clipPath id="p1_s141"><path d="M114.4990,192.4498 L125.5510,192.4498 L125.5510,181.4018 L114.4990,181.4018 L114.4990,192.4498 Z"/></clipPath><clipPath id="p1_s143"><path d="M114.4990,192.4498 L125.5510,192.4498 L125.5510,181.4018 L114.4990,181.4018 L114.4990,192.4498 Z"/></clipPath><clipPath id="p1_s145"><path d="M114.4990,192.4498 L125.5510,192.4498 L125.5510,181.4018 L114.4990,181.4018 L114.4990,192.4498 Z"/></clipPath><clipPath id="p1_s147"><path d="M114.4990,192.4498 L125.5510,192.4498 L125.5510,181.4018 L114.4990,181.4018 L114.4990,192.4498 Z"/></clipPath><clipPath id="p1_s149"><path d="M114.4990,192.4498 L125.5510,192.4498 L125.5510,181.4018 L114.4990,181.4018 L114.4990,192.4498 Z"/></clipPath><clipPath id="p1_s151"><path d="M114.4990,192.4498 L125.5510,192.4498 L125.5510,181.4018 L114.4990,181.4018 L114.4990,192.4498 Z"/></clipPath><clipPath id="p1_s153"><path d="M114.4990,192.4498 L125.5510,192.4498 L125.5510,181.4018 L114.4990,181.4018 L114.4990,192.4498 Z"/></clipPath><clipPath id="p1_s155"><path d="M114.4990,192.4498 L125.5510,192.4498 L125.5510,181.4018 L114.4990,181.4018 L114.4990,192.4498 Z"/></clipPath><clipPath id="p1_s157"><path d="M114.4990,192.4498 L125.5510,192.4498 L125.5510,181.4018 L114.4990,181.4018 L114.4990,192.4498 Z"/></clipPath><clipPath id="p1_s159"><path d="M114.4990,192.4498 L125.5510,192.4498 L125.5510,181.4018 L114.4990,181.4018 L114.4990,192.4498 Z"/></clipPath><clipPath id="p1_s161"><path d="M114.4990,192.4498 L125.5510,192.4498 L125.5510,181.4018 L114.4990,181.4018 L114.4990,192.4498 Z"/></clipPath><clipPath id="p1_s163"><path d="M114.4990,192.4498 L125.5510,192.4498 L125.5510,181.4018 L114.4990,181.4018 L114.4990,192.4498 Z"/></clipPath><clipPath id="p1_s165"><path d="M114.4990,192.4498 L125.5510,192.4498 L125.5510,181.4018 L114.4990,181.4018 L114.4990,192.4498 Z"/></clipPath><clipPath id="p1_s167"><path d="M114.4990,192.4498 L125.5510,192.4498 L125.5510,181.4018 L114.4990,181.4018 L114.4990,192.4498 Z"/></clipPath><clipPath id="p1_s169"><path d="M114.4990,192.4498 L125.5510,192.4498 L125.5510,181.4018 L114.4990,181.4018 L114.4990,192.4498 Z"/></clipPath><clipPath id="p1_s171"><path d="M114.4990,192.4498 L125.5510,192.4498 L125.5510,181.4018 L114.4990,181.4018 L114.4990,192.4498 Z"/></clipPath><clipPath id="p1_s173"><path d="M114.4990,192.4498 L125.5510,192.4498 L125.5510,181.4018 L114.4990,181.4018 L114.4990,192.4498 Z"/></clipPath><clipPath id="p1_s175"><path d="M114.4990,192.4498 L125.5510,192.4498 L125.5510,181.4018 L114.4990,181.4018 L114.4990,192.4498 Z"/></clipPath><clipPath id="p1_s177"><path d="M114.4990,192.4498 L125.5510,192.4498 L125.5510,181.4018 L114.4990,181.4018 L114.4990,192.4498 Z"/></clipPath><clipPath id="p1_s179"><path d="M114.4990,192.4498 L125.5510,192.4498 L125.5510,181.4018 L114.4990,181.4018 L114.4990,192.4498 Z"/></clipPath><clipPath id="p1_s181"><path d="M114.4990,192.4498 L125.5510,192.4498 L125.5510,181.4018 L114.4990,181.4018 L114.4990,192.4498 Z"/></clipPath><clipPath id="p1_s183"><path d="M114.4990,192.4498 L125.5510,192.4498 L125.5510,181.4018 L114.4990,181.4018 L114.4990,192.4498 Z"/></clipPath><clipPath id="p1_s185"><path d="M114.4990,192.4498 L125.5510,192.4498 L125.5510,181.4018 L114.4990,181.4018 L114.4990,192.4498 Z"/></clipPath><clipPath id="p1_s187"><path d="M114.4990,192.4498 L125.5510,192.4498 L125.5510,181.4018 L114.4990,181.4018 L114.4990,192.4498 Z"/></clipPath><clipPath id="p1_s189"><path d="M114.4990,192.4498 L125.5510,192.4498 L125.5510,181.4018 L114.4990,181.4018 L114.4990,192.4498 Z"/></clipPath><clipPath id="p1_s191"><path d="M114.4990,192.4498 L125.5510,192.4498 L125.5510,181.4018 L114.4990,181.4018 L114.4990,192.4498 Z"/></clipPath><clipPath id="p1_s193"><path d="M114.4990,192.4498 L125.5510,192.4498 L125.5510,181.4018 L114.4990,181.4018 L114.4990,192.4498 Z"/></clipPath><clipPath id="p1_s195"><path d="M114.4990,192.4498 L125.5510,192.4498 L125.5510,181.4018 L114.4990,181.4018 L114.4990,192.4498 Z"/></clipPath><clipPath id="p1_s197"><path d="M114.4990,192.4498 L125.5510,192.4498 L125.5510,181.4018 L114.4990,181.4018 L114.4990,192.4498 Z"/></clipPath><clipPath id="p1_s199"><path d="M114.4990,192.4498 L125.5510,192.4498 L125.5510,181.4018 L114.4990,181.4018 L114.4990,192.4498 Z"/></clipPath><clipPath id="p1_s201"><path d="M114.4990,192.4498 L125.5510,192.4498 L125.5510,181.4018 L114.4990,181.4018 L114.4990,192.4498 Z"/></clipPath><clipPath id="p1_s203"><path d="M114.4990,192.4498 L125.5510,192.4498 L125.5510,181.4018 L114.4990,181.4018 L114.4990,192.4498 Z"/></clipPath><clipPath id="p1_s205"><path d="M114.4990,192.4498 L125.5510,192.4498 L125.5510,181.4018 L114.4990,181.4018 L114.4990,192.4498 Z"/></clipPath><clipPath id="p1_s207"><path d="M114.4990,192.4498 L125.5510,192.4498 L125.5510,181.4018 L114.4990,181.4018 L114.4990,192.4498 Z"/></clipPath><clipPath id="p1_s209"><path d="M114.4990,192.4498 L125.5510,192.4498 L125.5510,181.4018 L114.4990,181.4018 L114.4990,192.4498 Z"/></clipPath><clipPath id="p1_s211"><path d="M114.4990,192.4498 L125.5510,192.4498 L125.5510,181.4018 L114.4990,181.4018 L114.4990,192.4498 Z"/></clipPath><clipPath id="p1_s213"><path d="M114.4990,192.4498 L125.5510,192.4498 L125.5510,181.4018 L114.4990,181.4018 L114.4990,192.4498 Z"/></clipPath><clipPath id="p1_s215"><path d="M114.4990,192.4498 L125.5510,192.4498 L125.5510,181.4018 L114.4990,181.4018 L114.4990,192.4498 Z"/></clipPath><clipPath id="p1_s217"><path d="M114.4990,192.4498 L125.5510,192.4498 L125.5510,181.4018 L114.4990,181.4018 L114.4990,192.4498 Z"/></clipPath><clipPath id="p1_s219"><path d="M114.4990,192.4498 L125.5510,192.4498 L125.5510,181.4018 L114.4990,181.4018 L114.4990,192.4498 Z"/></clipPath><clipPath id="p1_s221"><path d="M114.4990,192.4498 L125.5510,192.4498 L125.5510,181.4018 L114.4990,181.4018 L114.4990,192.4498 Z"/></clipPath><clipPath id="p1_s223"><path d="M114.4990,192.4498 L125.5510,192.4498 L125.5510,181.4018 L114.4990,181.4018 L114.4990,192.4498 Z"/></clipPath><clipPath id="p1_s225"><path d="M114.4990,192.4498 L125.5510,192.4498 L125.5510,181.4018 L114.4990,181.4018 L114.4990,192.4498 Z"/></clipPath><clipPath id="p1_s227"><path d="M114.4990,192.4498 L125.5510,192.4498 L125.5510,181.4018 L114.4990,181.4018 L114.4990,192.4498 Z"/></clipPath><clipPath id="p1_s229"><path d="M114.4990,192.4498 L125.5510,192.4498 L125.5510,181.4018 L114.4990,181.4018 L114.4990,192.4498 Z"/></clipPath><clipPath id="p1_s231"><path d="M114.4990,192.4498 L125.5510,192.4498 L125.5510,181.4018 L114.4990,181.4018 L114.4990,192.4498 Z"/></clipPath><clipPath id="p1_s233"><path d="M114.4990,192.4498 L125.5510,192.4498 L125.5510,181.4018 L114.4990,181.4018 L114.4990,192.4498 Z"/></clipPath><clipPath id="p1_s235"><path d="M114.4990,192.4498 L125.5510,192.4498 L125.5510,181.4018 L114.4990,181.4018 L114.4990,192.4498 Z"/></clipPath><clipPath id="p1_s237"><path d="M114.4990,192.4498 L125.5510,192.4498 L125.5510,181.4018 L114.4990,181.4018 L114.4990,192.4498 Z"/></clipPath><clipPath id="p1_s239"><path d="M114.4990,192.4498 L125.5510,192.4498 L125.5510,181.4018 L114.4990,181.4018 L114.4990,192.4498 Z"/></clipPath><clipPath id="p1_s241"><path d="M114.4990,192.4498 L125.5510,192.4498 L125.5510,181.4018 L114.4990,181.4018 L114.4990,192.4498 Z"/></clipPath><clipPath id="p1_s243"><path d="M114.4990,192.4498 L125.5510,192.4498 L125.5510,181.4018 L114.4990,181.4018 L114.4990,192.4498 Z"/></clipPath><clipPath id="p1_s245"><path d="M114.4990,192.4498 L125.5510,192.4498 L125.5510,181.4018 L114.4990,181.4018 L114.4990,192.4498 Z"/></clipPath><clipPath id="p1_s247"><path d="M114.4990,192.4498 L125.5510,192.4498 L125.5510,181.4018 L114.4990,181.4018 L114.4990,192.4498 Z"/></clipPath><clipPath id="p1_s249"><path d="M114.4990,192.4498 L125.5510,192.4498 L125.5510,181.4018 L114.4990,181.4018 L114.4990,192.4498 Z"/></clipPath><clipPath id="p1_s251"><path d="M114.4990,192.4498 L125.5510,192.4498 L125.5510,181.4018 L114.4990,181.4018 L114.4990,192.4498 Z"/></clipPath><clipPath id="p1_s253"><path d="M114.4990,192.4498 L125.5510,192.4498 L125.5510,181.4018 L114.4990,181.4018 L114.4990,192.4498 Z"/></clipPath><clipPath id="p1_s255"><path d="M114.4990,192.4498 L125.5510,192.4498 L125.5510,181.4018 L114.4990,181.4018 L114.4990,192.4498 Z"/></clipPath><clipPath id="p1_s257"><path d="M114.4990,192.4498 L125.5510,192.4498 L125.5510,181.4018 L114.4990,181.4018 L114.4990,192.4498 Z"/></clipPath><clipPath id="p1_s259"><path d="M114.4990,192.4498 L125.5510,192.4498 L125.5510,181.4018 L114.4990,181.4018 L114.4990,192.4498 Z"/></clipPath><clipPath id="p1_s261"><path d="M114.4990,192.4498 L125.5510,192.4498 L125.5510,181.4018 L114.4990,181.4018 L114.4990,192.4498 Z"/></clipPath><clipPath id="p1_s263"><path d="M114.4990,192.4498 L125.5510,192.4498 L125.5510,181.4018 L114.4990,181.4018 L114.4990,192.4498 Z"/></clipPath><clipPath id="p1_s265"><path d="M114.4990,192.4498 L125.5510,192.4498 L125.5510,181.4018 L114.4990,181.4018 L114.4990,192.4498 Z"/></clipPath><clipPath id="p1_s267"><path d="M114.4990,192.4498 L125.5510,192.4498 L125.5510,181.4018 L114.4990,181.4018 L114.4990,192.4498 Z"/></clipPath><clipPath id="p1_s269"><path d="M114.4990,192.4498 L125.5510,192.4498 L125.5510,181.4018 L114.4990,181.4018 L114.4990,192.4498 Z"/></clipPath><clipPath id="p1_s271"><path d="M114.4990,192.4498 L125.5510,192.4498 L125.5510,181.4018 L114.4990,181.4018 L114.4990,192.4498 Z"/></clipPath><clipPath id="p1_s273"><path d="M114.4990,192.4498 L125.5510,192.4498 L125.5510,181.4018 L114.4990,181.4018 L114.4990,192.4498 Z"/></clipPath><clipPath id="p1_s275"><path d="M114.4990,192.4498 L125.5510,192.4498 L125.5510,181.4018 L114.4990,181.4018 L114.4990,192.4498 Z"/></clipPath><clipPath id="p1_s277"><path d="M114.4990,192.4498 L125.5510,192.4498 L125.5510,181.4018 L114.4990,181.4018 L114.4990,192.4498 Z"/></clipPath><clipPath id="p1_s279"><path d="M114.4990,192.4498 L125.5510,192.4498 L125.5510,181.4018 L114.4990,181.4018 L114.4990,192.4498 Z"/></clipPath><clipPath id="p1_s281"><path d="M114.4990,192.4498 L125.5510,192.4498 L125.5510,181.4018 L114.4990,181.4018 L114.4990,192.4498 Z"/></clipPath><clipPath id="p1_s283"><path d="M114.4990,192.4498 L125.5510,192.4498 L125.5510,181.4018 L114.4990,181.4018 L114.4990,192.4498 Z"/></clipPath><clipPath id="p1_s285"><path d="M114.4990,192.4498 L125.5510,192.4498 L125.5510,181.4018 L114.4990,181.4018 L114.4990,192.4498 Z"/></clipPath><clipPath id="p1_s287"><path d="M114.4990,192.4498 L125.5510,192.4498 L125.5510,181.4018 L114.4990,181.4018 L114.4990,192.4498 Z"/></clipPath><clipPath id="p1_s289"><path d="M114.4990,192.4498 L125.5510,192.4498 L125.5510,181.4018 L114.4990,181.4018 L114.4990,192.4498 Z"/></clipPath><clipPath id="p1_s291"><path d="M114.4990,192.4498 L125.5510,192.4498 L125.5510,181.4018 L114.4990,181.4018 L114.4990,192.4498 Z"/></clipPath><clipPath id="p1_s293"><path d="M114.4990,192.4498 L125.5510,192.4498 L125.5510,181.4018 L114.4990,181.4018 L114.4990,192.4498 Z"/></clipPath><clipPath id="p1_s295"><path d="M114.4990,192.4498 L125.5510,192.4498 L125.5510,181.4018 L114.4990,181.4018 L114.4990,192.4498 Z"/></clipPath><clipPath id="p1_s297"><path d="M114.4990,192.4498 L125.5510,192.4498 L125.5510,181.4018 L114.4990,181.4018 L114.4990,192.4498 Z"/></clipPath><clipPath id="p1_s299"><path d="M114.4990,192.4498 L125.5510,192.4498 L125.5510,181.4018 L114.4990,181.4018 L114.4990,192.4498 Z"/></clipPath><clipPath id="p1_s301"><path d="M114.4990,192.4498 L125.5510,192.4498 L125.5510,181.4018 L114.4990,181.4018 L114.4990,192.4498 Z"/></clipPath><clipPath id="p1_s303"><path d="M114.4990,192.4498 L125.5510,192.4498 L125.5510,181.4018 L114.4990,181.4018 L114.4990,192.4498 Z"/></clipPath><clipPath id="p1_s305"><path d="M114.4990,192.4498 L125.5510,192.4498 L125.5510,181.4018 L114.4990,181.4018 L114.4990,192.4498 Z"/></clipPath><clipPath id="p1_s307"><path d="M114.4990,192.4498 L125.5510,192.4498 L125.5510,181.4018 L114.4990,181.4018 L114.4990,192.4498 Z"/></clipPath><clipPath id="p1_s309"><path d="M114.4990,192.4498 L125.5510,192.4498 L125.5510,181.4018 L114.4990,181.4018 L114.4990,192.4498 Z"/></clipPath><clipPath id="p1_s311"><path d="M114.4990,192.4498 L125.5510,192.4498 L125.5510,181.4018 L114.4990,181.4018 L114.4990,192.4498 Z"/></clipPath><clipPath id="p1_s313"><path d="M114.4990,192.4498 L125.5510,192.4498 L125.5510,181.4018 L114.4990,181.4018 L114.4990,192.4498 Z"/></clipPath><clipPath id="p1_s315"><path d="M114.4990,192.4498 L125.5510,192.4498 L125.5510,181.4018 L114.4990,181.4018 L114.4990,192.4498 Z"/></clipPath><clipPath id="p1_s317"><path d="M114.4990,192.4498 L125.5510,192.4498 L125.5510,181.4018 L114.4990,181.4018 L114.4990,192.4498 Z"/></clipPath><clipPath id="p1_s319"><path d="M114.4990,192.4498 L125.5510,192.4498 L125.5510,181.4018 L114.4990,181.4018 L114.4990,192.4498 Z"/></clipPath><clipPath id="p1_s321"><path d="M114.4990,192.4498 L125.5510,192.4498 L125.5510,181.4018 L114.4990,181.4018 L114.4990,192.4498 Z"/></clipPath><clipPath id="p1_s323"><path d="M114.4990,192.4498 L125.5510,192.4498 L125.5510,181.4018 L114.4990,181.4018 L114.4990,192.4498 Z"/></clipPath><clipPath id="p1_s325"><path d="M114.4990,192.4498 L125.5510,192.4498 L125.5510,181.4018 L114.4990,181.4018 L114.4990,192.4498 Z"/></clipPath><clipPath id="p1_s327"><path d="M114.4990,192.4498 L125.5510,192.4498 L125.5510,181.4018 L114.4990,181.4018 L114.4990,192.4498 Z"/></clipPath><clipPath id="p1_s329"><path d="M114.4990,192.4498 L125.5510,192.4498 L125.5510,181.4018 L114.4990,181.4018 L114.4990,192.4498 Z"/></clipPath><clipPath id="p1_s331"><path d="M114.4990,192.4498 L125.5510,192.4498 L125.5510,181.4018 L114.4990,181.4018 L114.4990,192.4498 Z"/></clipPath><clipPath id="p1_s333"><path d="M114.4990,192.4498 L125.5510,192.4498 L125.5510,181.4018 L114.4990,181.4018 L114.4990,192.4498 Z"/></clipPath><clipPath id="p1_s335"><path d="M114.4990,192.4498 L125.5510,192.4498 L125.5510,181.4018 L114.4990,181.4018 L114.4990,192.4498 Z"/></clipPath><clipPath id="p1_s337"><path d="M114.4990,192.4498 L125.5510,192.4498 L125.5510,181.4018 L114.4990,181.4018 L114.4990,192.4498 Z"/></clipPath><clipPath id="p1_s339"><path d="M114.4990,192.4498 L125.5510,192.4498 L125.5510,181.4018 L114.4990,181.4018 L114.4990,192.4498 Z"/></clipPath><clipPath id="p1_s341"><path d="M114.4990,192.4498 L125.5510,192.4498 L125.5510,181.4018 L114.4990,181.4018 L114.4990,192.4498 Z"/></clipPath><clipPath id="p1_s343"><path d="M114.4990,192.4498 L125.5510,192.4498 L125.5510,181.4018 L114.4990,181.4018 L114.4990,192.4498 Z"/></clipPath><clipPath id="p1_s345"><path d="M114.4990,192.4498 L125.5510,192.4498 L125.5510,181.4018 L114.4990,181.4018 L114.4990,192.4498 Z"/></clipPath><clipPath id="p1_s347"><path d="M114.4990,192.4498 L125.5510,192.4498 L125.5510,181.4018 L114.4990,181.4018 L114.4990,192.4498 Z"/></clipPath><clipPath id="p1_s349"><path d="M114.4990,192.4498 L125.5510,192.4498 L125.5510,181.4018 L114.4990,181.4018 L114.4990,192.4498 Z"/></clipPath><clipPath id="p1_s351"><path d="M114.4990,192.4498 L125.5510,192.4498 L125.5510,181.4018 L114.4990,181.4018 L114.4990,192.4498 Z"/></clipPath><clipPath id="p1_s353"><path d="M114.4990,192.4498 L125.5510,192.4498 L125.5510,181.4018 L114.4990,181.4018 L114.4990,192.4498 Z"/></clipPath><clipPath id="p1_s355"><path d="M114.4990,192.4498 L125.5510,192.4498 L125.5510,181.4018 L114.4990,181.4018 L114.4990,192.4498 Z"/></clipPath><clipPath id="p1_s357"><path d="M114.4990,192.4498 L125.5510,192.4498 L125.5510,181.4018 L114.4990,181.4018 L114.4990,192.4498 Z"/></clipPath><clipPath id="p1_s359"><path d="M114.4990,192.4498 L125.5510,192.4498 L125.5510,181.4018 L114.4990,181.4018 L114.4990,192.4498 Z"/></clipPath><clipPath id="p1_s361"><path d="M114.4990,192.4498 L125.5510,192.4498 L125.5510,181.4018 L114.4990,181.4018 L114.4990,192.4498 Z"/></clipPath><clipPath id="p1_s363"><path d="M114.4990,192.4498 L125.5510,192.4498 L125.5510,181.4018 L114.4990,181.4018 L114.4990,192.4498 Z"/></clipPath><clipPath id="p1_s365"><path d="M114.4990,192.4498 L125.5510,192.4498 L125.5510,181.4018 L114.4990,181.4018 L114.4990,192.4498 Z"/></clipPath><clipPath id="p1_s367"><path d="M114.4990,192.4498 L125.5510,192.4498 L125.5510,181.4018 L114.4990,181.4018 L114.4990,192.4498 Z"/></clipPath><clipPath id="p1_s369"><path d="M114.4990,192.4498 L125.5510,192.4498 L125.5510,181.4018 L114.4990,181.4018 L114.4990,192.4498 Z"/></clipPath><clipPath id="p1_s371"><path d="M114.4990,192.4498 L125.5510,192.4498 L125.5510,181.4018 L114.4990,181.4018 L114.4990,192.4498 Z"/></clipPath><clipPath id="p1_s373"><path d="M114.4990,192.4498 L125.5510,192.4498 L125.5510,181.4018 L114.4990,181.4018 L114.4990,192.4498 Z"/></clipPath><clipPath id="p1_s375"><path d="M114.4990,192.4498 L125.5510,192.4498 L125.5510,181.4018 L114.4990,181.4018 L114.4990,192.4498 Z"/></clipPath><clipPath id="p1_s377"><path d="M114.4990,192.4498 L125.5510,192.4498 L125.5510,181.4018 L114.4990,181.4018 L114.4990,192.4498 Z"/></clipPath><clipPath id="p1_s379"><path d="M114.4990,192.4498 L125.5510,192.4498 L125.5510,181.4018 L114.4990,181.4018 L114.4990,192.4498 Z"/></clipPath><clipPath id="p1_s381"><path d="M114.4990,192.4498 L125.5510,192.4498 L125.5510,181.4018 L114.4990,181.4018 L114.4990,192.4498 Z"/></clipPath><clipPath id="p1_s383"><path d="M114.4990,192.4498 L125.5510,192.4498 L125.5510,181.4018 L114.4990,181.4018 L114.4990,192.4498 Z"/></clipPath><clipPath id="p1_s385"><path d="M114.4990,192.4498 L125.5510,192.4498 L125.5510,181.4018 L114.4990,181.4018 L114.4990,192.4498 Z"/></clipPath><clipPath id="p1_s387"><path d="M114.4990,192.4498 L125.5510,192.4498 L125.5510,181.4018 L114.4990,181.4018 L114.4990,192.4498 Z"/></clipPath><clipPath id="p1_s389"><path d="M114.4990,192.4498 L125.5510,192.4498 L125.5510,181.4018 L114.4990,181.4018 L114.4990,192.4498 Z"/></clipPath><clipPath id="p1_s391"><path d="M114.4990,192.4498 L125.5510,192.4498 L125.5510,181.4018 L114.4990,181.4018 L114.4990,192.4498 Z"/></clipPath><clipPath id="p1_s393"><path d="M114.4990,192.4498 L125.5510,192.4498 L125.5510,181.4018 L114.4990,181.4018 L114.4990,192.4498 Z"/></clipPath><clipPath id="p1_s395"><path d="M114.4990,192.4498 L125.5510,192.4498 L125.5510,181.4018 L114.4990,181.4018 L114.4990,192.4498 Z"/></clipPath><clipPath id="p1_s397"><path d="M114.4990,192.4498 L125.5510,192.4498 L125.5510,181.4018 L114.4990,181.4018 L114.4990,192.4498 Z"/></clipPath><clipPath id="p1_s399"><path d="M114.4990,192.4498 L125.5510,192.4498 L125.5510,181.4018 L114.4990,181.4018 L114.4990,192.4498 Z"/></clipPath><clipPath id="p1_s401"><path d="M114.4990,192.4498 L125.5510,192.4498 L125.5510,181.4018 L114.4990,181.4018 L114.4990,192.4498 Z"/></clipPath><clipPath id="p1_s403"><path d="M114.4990,192.4498 L125.5510,192.4498 L125.5510,181.4018 L114.4990,181.4018 L114.4990,192.4498 Z"/></clipPath><clipPath id="p1_s405"><path d="M114.4990,192.4498 L125.5510,192.4498 L125.5510,181.4018 L114.4990,181.4018 L114.4990,192.4498 Z"/></clipPath><clipPath id="p1_s407"><path d="M114.4990,192.4498 L125.5510,192.4498 L125.5510,181.4018 L114.4990,181.4018 L114.4990,192.4498 Z"/></clipPath><clipPath id="p1_s409"><path d="M114.4990,192.4498 L125.5510,192.4498 L125.5510,181.4018 L114.4990,181.4018 L114.4990,192.4498 Z"/></clipPath><clipPath id="p1_s411"><path d="M114.4990,192.4498 L125.5510,192.4498 L125.5510,181.4018 L114.4990,181.4018 L114.4990,192.4498 Z"/></clipPath><clipPath id="p1_s413"><path d="M114.4990,192.4498 L125.5510,192.4498 L125.5510,181.4018 L114.4990,181.4018 L114.4990,192.4498 Z"/></clipPath><clipPath id="p1_s415"><path d="M114.4990,192.4498 L125.5510,192.4498 L125.5510,181.4018 L114.4990,181.4018 L114.4990,192.4498 Z"/></clipPath><clipPath id="p1_s417"><path d="M114.4990,192.4498 L125.5510,192.4498 L125.5510,181.4018 L114.4990,181.4018 L114.4990,192.4498 Z"/></clipPath><clipPath id="p1_s419"><path d="M114.4990,192.4498 L125.5510,192.4498 L125.5510,181.4018 L114.4990,181.4018 L114.4990,192.4498 Z"/></clipPath><clipPath id="p1_s421"><path d="M114.4990,192.4498 L125.5510,192.4498 L125.5510,181.4018 L114.4990,181.4018 L114.4990,192.4498 Z"/></clipPath><clipPath id="p1_s423"><path d="M114.4990,192.4498 L125.5510,192.4498 L125.5510,181.4018 L114.4990,181.4018 L114.4990,192.4498 Z"/></clipPath><clipPath id="p1_s425"><path d="M114.4990,192.4498 L125.5510,192.4498 L125.5510,181.4018 L114.4990,181.4018 L114.4990,192.4498 Z"/></clipPath><clipPath id="p1_s427"><path d="M114.4990,192.4498 L125.5510,192.4498 L125.5510,181.4018 L114.4990,181.4018 L114.4990,192.4498 Z"/></clipPath><clipPath id="p1_s429"><path d="M114.4990,192.4498 L125.5510,192.4498 L125.5510,181.4018 L114.4990,181.4018 L114.4990,192.4498 Z"/></clipPath><clipPath id="p1_s431"><path d="M114.4990,192.4498 L125.5510,192.4498 L125.5510,181.4018 L114.4990,181.4018 L114.4990,192.4498 Z"/></clipPath><clipPath id="p1_s433"><path d="M114.4990,192.4498 L125.5510,192.4498 L125.5510,181.4018 L114.4990,181.4018 L114.4990,192.4498 Z"/></clipPath><clipPath id="p1_s435"><path d="M114.4990,192.4498 L125.5510,192.4498 L125.5510,181.4018 L114.4990,181.4018 L114.4990,192.4498 Z"/></clipPath><clipPath id="p1_s437"><path d="M114.4990,192.4498 L125.5510,192.4498 L125.5510,181.4018 L114.4990,181.4018 L114.4990,192.4498 Z"/></clipPath><clipPath id="p1_s439"><path d="M114.4990,192.4498 L125.5510,192.4498 L125.5510,181.4018 L114.4990,181.4018 L114.4990,192.4498 Z"/></clipPath><clipPath id="p1_s441"><path d="M114.4990,192.4498 L125.5510,192.4498 L125.5510,181.4018 L114.4990,181.4018 L114.4990,192.4498 Z"/></clipPath><clipPath id="p1_s443"><path d="M114.4990,192.4498 L125.5510,192.4498 L125.5510,181.4018 L114.4990,181.4018 L114.4990,192.4498 Z"/></clipPath><clipPath id="p1_s445"><path d="M114.4990,192.4498 L125.5510,192.4498 L125.5510,181.4018 L114.4990,181.4018 L114.4990,192.4498 Z"/></clipPath><clipPath id="p1_s447"><path d="M114.4990,192.4498 L125.5510,192.4498 L125.5510,181.4018 L114.4990,181.4018 L114.4990,192.4498 Z"/></clipPath><clipPath id="p1_s449"><path d="M119.6990,149.2498 L232.5510,149.2498 L232.5510,137.2518 L119.6990,137.2518 L119.6990,149.2498 Z"/></clipPath><clipPath id="p1_s451"><path d="M57.7990,286.2998 L68.8510,286.2998 L68.8510,275.2518 L57.7990,275.2518 L57.7990,286.2998 Z"/></clipPath><clipPath id="p1_s453"><path d="M57.7990,301.9998 L68.8510,301.9998 L68.8510,290.9518 L57.7990,290.9518 L57.7990,301.9998 Z"/></clipPath><clipPath id="p1_s455"><path d="M77.2490,350.8998 L230.8010,350.8998 L230.8010,342.4518 L77.2490,342.4518 L77.2490,350.8998 Z"/></clipPath><clipPath id="p1_s458"><path d="M59.4490,255.9998 L224.3510,255.9998 L224.3510,238.4018 L59.4490,238.4018 L59.4490,255.9998 Z"/></clipPath><clipPath id="p1_s460"><path d="M114.4990,192.4498 L125.5510,192.4498 L125.5510,181.4018 L114.4990,181.4018 L114.4990,192.4498 Z"/></clipPath><clipPath id="p1_s462"><path d="M114.4990,192.4498 L125.5510,192.4498 L125.5510,181.4018 L114.4990,181.4018 L114.4990,192.4498 Z"/></clipPath><clipPath id="p1_s464"><path d="M114.4990,192.4498 L125.5510,192.4498 L125.5510,181.4018 L114.4990,181.4018 L114.4990,192.4498 Z"/></clipPath><clipPath id="p1_s466"><path d="M114.4990,192.4498 L125.5510,192.4498 L125.5510,181.4018 L114.4990,181.4018 L114.4990,192.4498 Z"/></clipPath><clipPath id="p1_s468"><path d="M114.4990,192.4498 L125.5510,192.4498 L125.5510,181.4018 L114.4990,181.4018 L114.4990,192.4498 Z"/></clipPath><clipPath id="p1_s470"><path d="M114.4990,192.4498 L125.5510,192.4498 L125.5510,181.4018 L114.4990,181.4018 L114.4990,192.4498 Z"/></clipPath><clipPath id="p1_s472"><path d="M114.4990,192.4498 L125.5510,192.4498 L125.5510,181.4018 L114.4990,181.4018 L114.4990,192.4498 Z"/></clipPath><clipPath id="p1_s474"><path d="M114.4990,192.4498 L125.5510,192.4498 L125.5510,181.4018 L114.4990,181.4018 L114.4990,192.4498 Z"/></clipPath><clipPath id="p1_s476"><path d="M114.4990,192.4498 L125.5510,192.4498 L125.5510,181.4018 L114.4990,181.4018 L114.4990,192.4498 Z"/></clipPath><clipPath id="p1_s478"><path d="M114.4990,192.4498 L125.5510,192.4498 L125.5510,181.4018 L114.4990,181.4018 L114.4990,192.4498 Z"/></clipPath><clipPath id="p1_s480"><path d="M114.4990,192.4498 L125.5510,192.4498 L125.5510,181.4018 L114.4990,181.4018 L114.4990,192.4498 Z"/></clipPath><clipPath id="p1_s482"><path d="M114.4990,192.4498 L125.5510,192.4498 L125.5510,181.4018 L114.4990,181.4018 L114.4990,192.4498 Z"/></clipPath><clipPath id="p1_s484"><path d="M114.4990,192.4498 L125.5510,192.4498 L125.5510,181.4018 L114.4990,181.4018 L114.4990,192.4498 Z"/></clipPath><clipPath id="p1_s486"><path d="M114.4990,192.4498 L125.5510,192.4498 L125.5510,181.4018 L114.4990,181.4018 L114.4990,192.4498 Z"/></clipPath><clipPath id="p1_s488"><path d="M114.4990,192.4498 L125.5510,192.4498 L125.5510,181.4018 L114.4990,181.4018 L114.4990,192.4498 Z"/></clipPath><clipPath id="p1_s490"><path d="M114.4990,192.4498 L125.5510,192.4498 L125.5510,181.4018 L114.4990,181.4018 L114.4990,192.4498 Z"/></clipPath><clipPath id="p1_s492"><path d="M114.4990,192.4498 L125.5510,192.4498 L125.5510,181.4018 L114.4990,181.4018 L114.4990,192.4498 Z"/></clipPath><clipPath id="p1_s494"><path d="M114.4990,192.4498 L125.5510,192.4498 L125.5510,181.4018 L114.4990,181.4018 L114.4990,192.4498 Z"/></clipPath><clipPath id="p1_s496"><path d="M114.4990,192.4498 L125.5510,192.4498 L125.5510,181.4018 L114.4990,181.4018 L114.4990,192.4498 Z"/></clipPath><clipPath id="p1_s498"><path d="M114.4990,192.4498 L125.5510,192.4498 L125.5510,181.4018 L114.4990,181.4018 L114.4990,192.4498 Z"/></clipPath><clipPath id="p1_s500"><path d="M114.4990,192.4498 L125.5510,192.4498 L125.5510,181.4018 L114.4990,181.4018 L114.4990,192.4498 Z"/></clipPath><clipPath id="p1_s502"><path d="M114.4990,192.4498 L125.5510,192.4498 L125.5510,181.4018 L114.4990,181.4018 L114.4990,192.4498 Z"/></clipPath><clipPath id="p1_s504"><path d="M114.4990,192.4498 L125.5510,192.4498 L125.5510,181.4018 L114.4990,181.4018 L114.4990,192.4498 Z"/></clipPath><clipPath id="p1_s506"><path d="M114.4990,192.4498 L125.5510,192.4498 L125.5510,181.4018 L114.4990,181.4018 L114.4990,192.4498 Z"/></clipPath><clipPath id="p1_s508"><path d="M114.4990,192.4498 L125.5510,192.4498 L125.5510,181.4018 L114.4990,181.4018 L114.4990,192.4498 Z"/></clipPath><clipPath id="p1_s510"><path d="M114.4990,192.4498 L125.5510,192.4498 L125.5510,181.4018 L114.4990,181.4018 L114.4990,192.4498 Z"/></clipPath><clipPath id="p1_s512"><path d="M114.4990,192.4498 L125.5510,192.4498 L125.5510,181.4018 L114.4990,181.4018 L114.4990,192.4498 Z"/></clipPath><clipPath id="p1_s514"><path d="M114.4990,192.4498 L125.5510,192.4498 L125.5510,181.4018 L114.4990,181.4018 L114.4990,192.4498 Z"/></clipPath><clipPath id="p1_s516"><path d="M114.4990,192.4498 L125.5510,192.4498 L125.5510,181.4018 L114.4990,181.4018 L114.4990,192.4498 Z"/></clipPath><clipPath id="p1_s518"><path d="M114.4990,192.4498 L125.5510,192.4498 L125.5510,181.4018 L114.4990,181.4018 L114.4990,192.4498 Z"/></clipPath><clipPath id="p1_s520"><path d="M114.4990,192.4498 L125.5510,192.4498 L125.5510,181.4018 L114.4990,181.4018 L114.4990,192.4498 Z"/></clipPath><clipPath id="p1_s522"><path d="M114.4990,192.4498 L125.5510,192.4498 L125.5510,181.4018 L114.4990,181.4018 L114.4990,192.4498 Z"/></clipPath><clipPath id="p1_s524"><path d="M114.4990,192.4498 L125.5510,192.4498 L125.5510,181.4018 L114.4990,181.4018 L114.4990,192.4498 Z"/></clipPath><clipPath id="p1_s526"><path d="M114.4990,192.4498 L125.5510,192.4498 L125.5510,181.4018 L114.4990,181.4018 L114.4990,192.4498 Z"/></clipPath><clipPath id="p1_s528"><path d="M114.4990,192.4498 L125.5510,192.4498 L125.5510,181.4018 L114.4990,181.4018 L114.4990,192.4498 Z"/></clipPath><clipPath id="p1_s530"><path d="M114.4990,192.4498 L125.5510,192.4498 L125.5510,181.4018 L114.4990,181.4018 L114.4990,192.4498 Z"/></clipPath><clipPath id="p1_s532"><path d="M114.4990,192.4498 L125.5510,192.4498 L125.5510,181.4018 L114.4990,181.4018 L114.4990,192.4498 Z"/></clipPath><clipPath id="p1_s534"><path d="M114.4990,192.4498 L125.5510,192.4498 L125.5510,181.4018 L114.4990,181.4018 L114.4990,192.4498 Z"/></clipPath><clipPath id="p1_s536"><path d="M114.4990,192.4498 L125.5510,192.4498 L125.5510,181.4018 L114.4990,181.4018 L114.4990,192.4498 Z"/></clipPath><clipPath id="p1_s538"><path d="M114.4990,192.4498 L125.5510,192.4498 L125.5510,181.4018 L114.4990,181.4018 L114.4990,192.4498 Z"/></clipPath><clipPath id="p1_s540"><path d="M114.4990,192.4498 L125.5510,192.4498 L125.5510,181.4018 L114.4990,181.4018 L114.4990,192.4498 Z"/></clipPath><clipPath id="p1_s542"><path d="M114.4990,192.4498 L125.5510,192.4498 L125.5510,181.4018 L114.4990,181.4018 L114.4990,192.4498 Z"/></clipPath><clipPath id="p1_s544"><path d="M114.4990,192.4498 L125.5510,192.4498 L125.5510,181.4018 L114.4990,181.4018 L114.4990,192.4498 Z"/></clipPath><clipPath id="p1_s546"><path d="M114.4990,192.4498 L125.5510,192.4498 L125.5510,181.4018 L114.4990,181.4018 L114.4990,192.4498 Z"/></clipPath><clipPath id="p1_s548"><path d="M114.4990,192.4498 L125.5510,192.4498 L125.5510,181.4018 L114.4990,181.4018 L114.4990,192.4498 Z"/></clipPath><clipPath id="p1_s550"><path d="M114.4990,192.4498 L125.5510,192.4498 L125.5510,181.4018 L114.4990,181.4018 L114.4990,192.4498 Z"/></clipPath><clipPath id="p1_s552"><path d="M114.4990,192.4498 L125.5510,192.4498 L125.5510,181.4018 L114.4990,181.4018 L114.4990,192.4498 Z"/></clipPath><clipPath id="p1_s554"><path d="M114.4990,192.4498 L125.5510,192.4498 L125.5510,181.4018 L114.4990,181.4018 L114.4990,192.4498 Z"/></clipPath><clipPath id="p1_s556"><path d="M114.4990,192.4498 L125.5510,192.4498 L125.5510,181.4018 L114.4990,181.4018 L114.4990,192.4498 Z"/></clipPath><clipPath id="p1_s558"><path d="M114.4990,192.4498 L125.5510,192.4498 L125.5510,181.4018 L114.4990,181.4018 L114.4990,192.4498 Z"/></clipPath><clipPath id="p1_s560"><path d="M114.4990,192.4498 L125.5510,192.4498 L125.5510,181.4018 L114.4990,181.4018 L114.4990,192.4498 Z"/></clipPath><clipPath id="p1_s562"><path d="M114.4990,192.4498 L125.5510,192.4498 L125.5510,181.4018 L114.4990,181.4018 L114.4990,192.4498 Z"/></clipPath><clipPath id="p1_s564"><path d="M114.4990,192.4498 L125.5510,192.4498 L125.5510,181.4018 L114.4990,181.4018 L114.4990,192.4498 Z"/></clipPath><clipPath id="p1_s566"><path d="M114.4990,192.4498 L125.5510,192.4498 L125.5510,181.4018 L114.4990,181.4018 L114.4990,192.4498 Z"/></clipPath><clipPath id="p1_s568"><path d="M114.4990,192.4498 L125.5510,192.4498 L125.5510,181.4018 L114.4990,181.4018 L114.4990,192.4498 Z"/></clipPath><clipPath id="p1_s570"><path d="M114.4990,192.4498 L125.5510,192.4498 L125.5510,181.4018 L114.4990,181.4018 L114.4990,192.4498 Z"/></clipPath><clipPath id="p1_s572"><path d="M114.4990,192.4498 L125.5510,192.4498 L125.5510,181.4018 L114.4990,181.4018 L114.4990,192.4498 Z"/></clipPath><clipPath id="p1_s574"><path d="M114.4990,192.4498 L125.5510,192.4498 L125.5510,181.4018 L114.4990,181.4018 L114.4990,192.4498 Z"/></clipPath><clipPath id="p1_s576"><path d="M114.4990,192.4498 L125.5510,192.4498 L125.5510,181.4018 L114.4990,181.4018 L114.4990,192.4498 Z"/></clipPath><clipPath id="p1_s578"><path d="M114.4990,192.4498 L125.5510,192.4498 L125.5510,181.4018 L114.4990,181.4018 L114.4990,192.4498 Z"/></clipPath><clipPath id="p1_s580"><path d="M114.4990,192.4498 L125.5510,192.4498 L125.5510,181.4018 L114.4990,181.4018 L114.4990,192.4498 Z"/></clipPath><clipPath id="p1_s582"><path d="M114.4990,192.4498 L125.5510,192.4498 L125.5510,181.4018 L114.4990,181.4018 L114.4990,192.4498 Z"/></clipPath><clipPath id="p1_s584"><path d="M114.4990,192.4498 L125.5510,192.4498 L125.5510,181.4018 L114.4990,181.4018 L114.4990,192.4498 Z"/></clipPath><clipPath id="p1_s586"><path d="M114.4990,192.4498 L125.5510,192.4498 L125.5510,181.4018 L114.4990,181.4018 L114.4990,192.4498 Z"/></clipPath><clipPath id="p1_s588"><path d="M114.4990,192.4498 L125.5510,192.4498 L125.5510,181.4018 L114.4990,181.4018 L114.4990,192.4498 Z"/></clipPath><clipPath id="p1_s590"><path d="M114.4990,192.4498 L125.5510,192.4498 L125.5510,181.4018 L114.4990,181.4018 L114.4990,192.4498 Z"/></clipPath><clipPath id="p1_s592"><path d="M114.4990,192.4498 L125.5510,192.4498 L125.5510,181.4018 L114.4990,181.4018 L114.4990,192.4498 Z"/></clipPath><clipPath id="p1_s594"><path d="M114.4990,192.4498 L125.5510,192.4498 L125.5510,181.4018 L114.4990,181.4018 L114.4990,192.4498 Z"/></clipPath><clipPath id="p1_s596"><path d="M114.4990,192.4498 L125.5510,192.4498 L125.5510,181.4018 L114.4990,181.4018 L114.4990,192.4498 Z"/></clipPath><clipPath id="p1_s598"><path d="M114.4990,192.4498 L125.5510,192.4498 L125.5510,181.4018 L114.4990,181.4018 L114.4990,192.4498 Z"/></clipPath><clipPath id="p1_s600"><path d="M114.4990,192.4498 L125.5510,192.4498 L125.5510,181.4018 L114.4990,181.4018 L114.4990,192.4498 Z"/></clipPath><clipPath id="p1_s602"><path d="M114.4990,192.4498 L125.5510,192.4498 L125.5510,181.4018 L114.4990,181.4018 L114.4990,192.4498 Z"/></clipPath><clipPath id="p1_s604"><path d="M114.4990,192.4498 L125.5510,192.4498 L125.5510,181.4018 L114.4990,181.4018 L114.4990,192.4498 Z"/></clipPath><clipPath id="p1_s606"><path d="M114.4990,192.4498 L125.5510,192.4498 L125.5510,181.4018 L114.4990,181.4018 L114.4990,192.4498 Z"/></clipPath><clipPath id="p1_s608"><path d="M114.4990,192.4498 L125.5510,192.4498 L125.5510,181.4018 L114.4990,181.4018 L114.4990,192.4498 Z"/></clipPath><clipPath id="p1_s610"><path d="M114.4990,192.4498 L125.5510,192.4498 L125.5510,181.4018 L114.4990,181.4018 L114.4990,192.4498 Z"/></clipPath><clipPath id="p1_s612"><path d="M114.4990,192.4498 L125.5510,192.4498 L125.5510,181.4018 L114.4990,181.4018 L114.4990,192.4498 Z"/></clipPath><clipPath id="p1_s614"><path d="M114.4990,192.4498 L125.5510,192.4498 L125.5510,181.4018 L114.4990,181.4018 L114.4990,192.4498 Z"/></clipPath><clipPath id="p1_s616"><path d="M114.4990,192.4498 L125.5510,192.4498 L125.5510,181.4018 L114.4990,181.4018 L114.4990,192.4498 Z"/></clipPath><clipPath id="p1_s618"><path d="M114.4990,192.4498 L125.5510,192.4498 L125.5510,181.4018 L114.4990,181.4018 L114.4990,192.4498 Z"/></clipPath><clipPath id="p1_s620"><path d="M114.4990,192.4498 L125.5510,192.4498 L125.5510,181.4018 L114.4990,181.4018 L114.4990,192.4498 Z"/></clipPath><clipPath id="p1_s622"><path d="M114.4990,192.4498 L125.5510,192.4498 L125.5510,181.4018 L114.4990,181.4018 L114.4990,192.4498 Z"/></clipPath><clipPath id="p1_s624"><path d="M114.4990,192.4498 L125.5510,192.4498 L125.5510,181.4018 L114.4990,181.4018 L114.4990,192.4498 Z"/></clipPath><clipPath id="p1_s626"><path d="M114.4990,192.4498 L125.5510,192.4498 L125.5510,181.4018 L114.4990,181.4018 L114.4990,192.4498 Z"/></clipPath><clipPath id="p1_s628"><path d="M114.4990,192.4498 L125.5510,192.4498 L125.5510,181.4018 L114.4990,181.4018 L114.4990,192.4498 Z"/></clipPath><clipPath id="p1_s630"><path d="M114.4990,192.4498 L125.5510,192.4498 L125.5510,181.4018 L114.4990,181.4018 L114.4990,192.4498 Z"/></clipPath><clipPath id="p1_s632"><path d="M114.4990,192.4498 L125.5510,192.4498 L125.5510,181.4018 L114.4990,181.4018 L114.4990,192.4498 Z"/></clipPath><clipPath id="p1_s634"><path d="M114.4990,192.4498 L125.5510,192.4498 L125.5510,181.4018 L114.4990,181.4018 L114.4990,192.4498 Z"/></clipPath><clipPath id="p1_s636"><path d="M114.4990,192.4498 L125.5510,192.4498 L125.5510,181.4018 L114.4990,181.4018 L114.4990,192.4498 Z"/></clipPath><clipPath id="p1_s638"><path d="M114.4990,192.4498 L125.5510,192.4498 L125.5510,181.4018 L114.4990,181.4018 L114.4990,192.4498 Z"/></clipPath><clipPath id="p1_s640"><path d="M114.4990,192.4498 L125.5510,192.4498 L125.5510,181.4018 L114.4990,181.4018 L114.4990,192.4498 Z"/></clipPath><clipPath id="p1_s642"><path d="M114.4990,192.4498 L125.5510,192.4498 L125.5510,181.4018 L114.4990,181.4018 L114.4990,192.4498 Z"/></clipPath><clipPath id="p1_s644"><path d="M114.4990,192.4498 L125.5510,192.4498 L125.5510,181.4018 L114.4990,181.4018 L114.4990,192.4498 Z"/></clipPath><clipPath id="p1_s646"><path d="M114.4990,192.4498 L125.5510,192.4498 L125.5510,181.4018 L114.4990,181.4018 L114.4990,192.4498 Z"/></clipPath><clipPath id="p1_s648"><path d="M114.4990,192.4498 L125.5510,192.4498 L125.5510,181.4018 L114.4990,181.4018 L114.4990,192.4498 Z"/></clipPath><clipPath id="p1_s650"><path d="M114.4990,192.4498 L125.5510,192.4498 L125.5510,181.4018 L114.4990,181.4018 L114.4990,192.4498 Z"/></clipPath><clipPath id="p1_s652"><path d="M114.4990,192.4498 L125.5510,192.4498 L125.5510,181.4018 L114.4990,181.4018 L114.4990,192.4498 Z"/></clipPath><clipPath id="p1_s654"><path d="M114.4990,192.4498 L125.5510,192.4498 L125.5510,181.4018 L114.4990,181.4018 L114.4990,192.4498 Z"/></clipPath><clipPath id="p1_s656"><path d="M114.4990,192.4498 L125.5510,192.4498 L125.5510,181.4018 L114.4990,181.4018 L114.4990,192.4498 Z"/></clipPath><clipPath id="p1_s658"><path d="M114.4990,192.4498 L125.5510,192.4498 L125.5510,181.4018 L114.4990,181.4018 L114.4990,192.4498 Z"/></clipPath><clipPath id="p1_s660"><path d="M114.4990,192.4498 L125.5510,192.4498 L125.5510,181.4018 L114.4990,181.4018 L114.4990,192.4498 Z"/></clipPath><clipPath id="p1_s662"><path d="M114.4990,192.4498 L125.5510,192.4498 L125.5510,181.4018 L114.4990,181.4018 L114.4990,192.4498 Z"/></clipPath><clipPath id="p1_s664"><path d="M114.4990,192.4498 L125.5510,192.4498 L125.5510,181.4018 L114.4990,181.4018 L114.4990,192.4498 Z"/></clipPath><clipPath id="p1_s666"><path d="M114.4990,192.4498 L125.5510,192.4498 L125.5510,181.4018 L114.4990,181.4018 L114.4990,192.4498 Z"/></clipPath><clipPath id="p1_s668"><path d="M114.4990,192.4498 L125.5510,192.4498 L125.5510,181.4018 L114.4990,181.4018 L114.4990,192.4498 Z"/></clipPath><clipPath id="p1_s670"><path d="M114.4990,192.4498 L125.5510,192.4498 L125.5510,181.4018 L114.4990,181.4018 L114.4990,192.4498 Z"/></clipPath><clipPath id="p1_s672"><path d="M114.4990,192.4498 L125.5510,192.4498 L125.5510,181.4018 L114.4990,181.4018 L114.4990,192.4498 Z"/></clipPath><clipPath id="p1_s674"><path d="M114.4990,192.4498 L125.5510,192.4498 L125.5510,181.4018 L114.4990,181.4018 L114.4990,192.4498 Z"/></clipPath><clipPath id="p1_s676"><path d="M114.4990,192.4498 L125.5510,192.4498 L125.5510,181.4018 L114.4990,181.4018 L114.4990,192.4498 Z"/></clipPath><clipPath id="p1_s678"><path d="M114.4990,192.4498 L125.5510,192.4498 L125.5510,181.4018 L114.4990,181.4018 L114.4990,192.4498 Z"/></clipPath><clipPath id="p1_s680"><path d="M114.4990,192.4498 L125.5510,192.4498 L125.5510,181.4018 L114.4990,181.4018 L114.4990,192.4498 Z"/></clipPath><clipPath id="p1_s682"><path d="M114.4990,192.4498 L125.5510,192.4498 L125.5510,181.4018 L114.4990,181.4018 L114.4990,192.4498 Z"/></clipPath><clipPath id="p1_s684"><path d="M114.4990,192.4498 L125.5510,192.4498 L125.5510,181.4018 L114.4990,181.4018 L114.4990,192.4498 Z"/></clipPath><clipPath id="p1_s686"><path d="M114.4990,192.4498 L125.5510,192.4498 L125.5510,181.4018 L114.4990,181.4018 L114.4990,192.4498 Z"/></clipPath><clipPath id="p1_s688"><path d="M114.4990,192.4498 L125.5510,192.4498 L125.5510,181.4018 L114.4990,181.4018 L114.4990,192.4498 Z"/></clipPath><clipPath id="p1_s690"><path d="M114.4990,192.4498 L125.5510,192.4498 L125.5510,181.4018 L114.4990,181.4018 L114.4990,192.4498 Z"/></clipPath><clipPath id="p1_s692"><path d="M114.4990,192.4498 L125.5510,192.4498 L125.5510,181.4018 L114.4990,181.4018 L114.4990,192.4498 Z"/></clipPath><clipPath id="p1_s694"><path d="M114.4990,192.4498 L125.5510,192.4498 L125.5510,181.4018 L114.4990,181.4018 L114.4990,192.4498 Z"/></clipPath><clipPath id="p1_s696"><path d="M114.4990,192.4498 L125.5510,192.4498 L125.5510,181.4018 L114.4990,181.4018 L114.4990,192.4498 Z"/></clipPath><clipPath id="p1_s698"><path d="M114.4990,192.4498 L125.5510,192.4498 L125.5510,181.4018 L114.4990,181.4018 L114.4990,192.4498 Z"/></clipPath><clipPath id="p1_s700"><path d="M114.4990,192.4498 L125.5510,192.4498 L125.5510,181.4018 L114.4990,181.4018 L114.4990,192.4498 Z"/></clipPath><clipPath id="p1_s702"><path d="M114.4990,192.4498 L125.5510,192.4498 L125.5510,181.4018 L114.4990,181.4018 L114.4990,192.4498 Z"/></clipPath><clipPath id="p1_s704"><path d="M114.4990,192.4498 L125.5510,192.4498 L125.5510,181.4018 L114.4990,181.4018 L114.4990,192.4498 Z"/></clipPath><clipPath id="p1_s706"><path d="M114.4990,192.4498 L125.5510,192.4498 L125.5510,181.4018 L114.4990,181.4018 L114.4990,192.4498 Z"/></clipPath><clipPath id="p1_s708"><path d="M114.4990,192.4498 L125.5510,192.4498 L125.5510,181.4018 L114.4990,181.4018 L114.4990,192.4498 Z"/></clipPath><clipPath id="p1_s710"><path d="M114.4990,192.4498 L125.5510,192.4498 L125.5510,181.4018 L114.4990,181.4018 L114.4990,192.4498 Z"/></clipPath><clipPath id="p1_s712"><path d="M114.4990,192.4498 L125.5510,192.4498 L125.5510,181.4018 L114.4990,181.4018 L114.4990,192.4498 Z"/></clipPath><clipPath id="p1_s714"><path d="M114.4990,192.4498 L125.5510,192.4498 L125.5510,181.4018 L114.4990,181.4018 L114.4990,192.4498 Z"/></clipPath><clipPath id="p1_s716"><path d="M114.4990,192.4498 L125.5510,192.4498 L125.5510,181.4018 L114.4990,181.4018 L114.4990,192.4498 Z"/></clipPath><clipPath id="p1_s718"><path d="M114.4990,192.4498 L125.5510,192.4498 L125.5510,181.4018 L114.4990,181.4018 L114.4990,192.4498 Z"/></clipPath><clipPath id="p1_s720"><path d="M114.4990,192.4498 L125.5510,192.4498 L125.5510,181.4018 L114.4990,181.4018 L114.4990,192.4498 Z"/></clipPath><clipPath id="p1_s722"><path d="M114.4990,192.4498 L125.5510,192.4498 L125.5510,181.4018 L114.4990,181.4018 L114.4990,192.4498 Z"/></clipPath><clipPath id="p1_s724"><path d="M114.4990,192.4498 L125.5510,192.4498 L125.5510,181.4018 L114.4990,181.4018 L114.4990,192.4498 Z"/></clipPath><clipPath id="p1_s726"><path d="M114.4990,192.4498 L125.5510,192.4498 L125.5510,181.4018 L114.4990,181.4018 L114.4990,192.4498 Z"/></clipPath><clipPath id="p1_s728"><path d="M114.4990,192.4498 L125.5510,192.4498 L125.5510,181.4018 L114.4990,181.4018 L114.4990,192.4498 Z"/></clipPath><clipPath id="p1_s730"><path d="M114.4990,192.4498 L125.5510,192.4498 L125.5510,181.4018 L114.4990,181.4018 L114.4990,192.4498 Z"/></clipPath><clipPath id="p1_s732"><path d="M114.4990,192.4498 L125.5510,192.4498 L125.5510,181.4018 L114.4990,181.4018 L114.4990,192.4498 Z"/></clipPath><clipPath id="p1_s734"><path d="M114.4990,192.4498 L125.5510,192.4498 L125.5510,181.4018 L114.4990,181.4018 L114.4990,192.4498 Z"/></clipPath><clipPath id="p1_s736"><path d="M114.4990,192.4498 L125.5510,192.4498 L125.5510,181.4018 L114.4990,181.4018 L114.4990,192.4498 Z"/></clipPath><clipPath id="p1_s738"><path d="M114.4990,192.4498 L125.5510,192.4498 L125.5510,181.4018 L114.4990,181.4018 L114.4990,192.4498 Z"/></clipPath><clipPath id="p1_s740"><path d="M114.4990,192.4498 L125.5510,192.4498 L125.5510,181.4018 L114.4990,181.4018 L114.4990,192.4498 Z"/></clipPath><clipPath id="p1_s742"><path d="M114.4990,192.4498 L125.5510,192.4498 L125.5510,181.4018 L114.4990,181.4018 L114.4990,192.4498 Z"/></clipPath><clipPath id="p1_s744"><path d="M114.4990,192.4498 L125.5510,192.4498 L125.5510,181.4018 L114.4990,181.4018 L114.4990,192.4498 Z"/></clipPath><clipPath id="p1_s746"><path d="M114.4990,192.4498 L125.5510,192.4498 L125.5510,181.4018 L114.4990,181.4018 L114.4990,192.4498 Z"/></clipPath><clipPath id="p1_s748"><path d="M114.4990,192.4498 L125.5510,192.4498 L125.5510,181.4018 L114.4990,181.4018 L114.4990,192.4498 Z"/></clipPath><clipPath id="p1_s750"><path d="M114.4990,192.4498 L125.5510,192.4498 L125.5510,181.4018 L114.4990,181.4018 L114.4990,192.4498 Z"/></clipPath><clipPath id="p1_s752"><path d="M114.4990,192.4498 L125.5510,192.4498 L125.5510,181.4018 L114.4990,181.4018 L114.4990,192.4498 Z"/></clipPath><clipPath id="p1_s754"><path d="M114.4990,192.4498 L125.5510,192.4498 L125.5510,181.4018 L114.4990,181.4018 L114.4990,192.4498 Z"/></clipPath><clipPath id="p1_s756"><path d="M114.4990,192.4498 L125.5510,192.4498 L125.5510,181.4018 L114.4990,181.4018 L114.4990,192.4498 Z"/></clipPath><clipPath id="p1_s758"><path d="M114.4990,192.4498 L125.5510,192.4498 L125.5510,181.4018 L114.4990,181.4018 L114.4990,192.4498 Z"/></clipPath><clipPath id="p1_s760"><path d="M114.4990,192.4498 L125.5510,192.4498 L125.5510,181.4018 L114.4990,181.4018 L114.4990,192.4498 Z"/></clipPath><clipPath id="p1_s762"><path d="M114.4990,192.4498 L125.5510,192.4498 L125.5510,181.4018 L114.4990,181.4018 L114.4990,192.4498 Z"/></clipPath><clipPath id="p1_s764"><path d="M114.4990,192.4498 L125.5510,192.4498 L125.5510,181.4018 L114.4990,181.4018 L114.4990,192.4498 Z"/></clipPath><clipPath id="p1_s766"><path d="M114.4990,192.4498 L125.5510,192.4498 L125.5510,181.4018 L114.4990,181.4018 L114.4990,192.4498 Z"/></clipPath><clipPath id="p1_s768"><path d="M114.4990,192.4498 L125.5510,192.4498 L125.5510,181.4018 L114.4990,181.4018 L114.4990,192.4498 Z"/></clipPath><clipPath id="p1_s770"><path d="M114.4990,192.4498 L125.5510,192.4498 L125.5510,181.4018 L114.4990,181.4018 L114.4990,192.4498 Z"/></clipPath><clipPath id="p1_s772"><path d="M114.4990,192.4498 L125.5510,192.4498 L125.5510,181.4018 L114.4990,181.4018 L114.4990,192.4498 Z"/></clipPath><clipPath id="p1_s774"><path d="M114.4990,192.4498 L125.5510,192.4498 L125.5510,181.4018 L114.4990,181.4018 L114.4990,192.4498 Z"/></clipPath><clipPath id="p1_s776"><path d="M114.4990,192.4498 L125.5510,192.4498 L125.5510,181.4018 L114.4990,181.4018 L114.4990,192.4498 Z"/></clipPath><clipPath id="p1_s778"><path d="M114.4990,192.4498 L125.5510,192.4498 L125.5510,181.4018 L114.4990,181.4018 L114.4990,192.4498 Z"/></clipPath><clipPath id="p1_s780"><path d="M114.4990,192.4498 L125.5510,192.4498 L125.5510,181.4018 L114.4990,181.4018 L114.4990,192.4498 Z"/></clipPath><clipPath id="p1_s782"><path d="M114.4990,192.4498 L125.5510,192.4498 L125.5510,181.4018 L114.4990,181.4018 L114.4990,192.4498 Z"/></clipPath><clipPath id="p1_s784"><path d="M114.4990,192.4498 L125.5510,192.4498 L125.5510,181.4018 L114.4990,181.4018 L114.4990,192.4498 Z"/></clipPath><clipPath id="p1_s786"><path d="M114.4990,192.4498 L125.5510,192.4498 L125.5510,181.4018 L114.4990,181.4018 L114.4990,192.4498 Z"/></clipPath><clipPath id="p1_s788"><path d="M114.4990,192.4498 L125.5510,192.4498 L125.5510,181.4018 L114.4990,181.4018 L114.4990,192.4498 Z"/></clipPath><clipPath id="p1_s790"><path d="M114.4990,192.4498 L125.5510,192.4498 L125.5510,181.4018 L114.4990,181.4018 L114.4990,192.4498 Z"/></clipPath><clipPath id="p1_s792"><path d="M114.4990,192.4498 L125.5510,192.4498 L125.5510,181.4018 L114.4990,181.4018 L114.4990,192.4498 Z"/></clipPath><clipPath id="p1_s794"><path d="M114.4990,192.4498 L125.5510,192.4498 L125.5510,181.4018 L114.4990,181.4018 L114.4990,192.4498 Z"/></clipPath><clipPath id="p1_s796"><path d="M114.4990,192.4498 L125.5510,192.4498 L125.5510,181.4018 L114.4990,181.4018 L114.4990,192.4498 Z"/></clipPath><clipPath id="p1_s798"><path d="M114.4990,192.4498 L125.5510,192.4498 L125.5510,181.4018 L114.4990,181.4018 L114.4990,192.4498 Z"/></clipPath><clipPath id="p1_s800"><path d="M114.4990,192.4498 L125.5510,192.4498 L125.5510,181.4018 L114.4990,181.4018 L114.4990,192.4498 Z"/></clipPath><clipPath id="p1_s802"><path d="M114.4990,192.4498 L125.5510,192.4498 L125.5510,181.4018 L114.4990,181.4018 L114.4990,192.4498 Z"/></clipPath><clipPath id="p1_s804"><path d="M114.4990,192.4498 L125.5510,192.4498 L125.5510,181.4018 L114.4990,181.4018 L114.4990,192.4498 Z"/></clipPath><clipPath id="p1_s806"><path d="M114.4990,192.4498 L125.5510,192.4498 L125.5510,181.4018 L114.4990,181.4018 L114.4990,192.4498 Z"/></clipPath><clipPath id="p1_s808"><path d="M114.4990,192.4498 L125.5510,192.4498 L125.5510,181.4018 L114.4990,181.4018 L114.4990,192.4498 Z"/></clipPath><clipPath id="p1_s810"><path d="M114.4990,192.4498 L125.5510,192.4498 L125.5510,181.4018 L114.4990,181.4018 L114.4990,192.4498 Z"/></clipPath><clipPath id="p1_s812"><path d="M114.4990,192.4498 L125.5510,192.4498 L125.5510,181.4018 L114.4990,181.4018 L114.4990,192.4498 Z"/></clipPath><clipPath id="p1_s814"><path d="M114.4990,192.4498 L125.5510,192.4498 L125.5510,181.4018 L114.4990,181.4018 L114.4990,192.4498 Z"/></clipPath><clipPath id="p1_s816"><path d="M114.4990,192.4498 L125.5510,192.4498 L125.5510,181.4018 L114.4990,181.4018 L114.4990,192.4498 Z"/></clipPath><clipPath id="p1_s818"><path d="M114.4990,192.4498 L125.5510,192.4498 L125.5510,181.4018 L114.4990,181.4018 L114.4990,192.4498 Z"/></clipPath><clipPath id="p1_s820"><path d="M114.4990,192.4498 L125.5510,192.4498 L125.5510,181.4018 L114.4990,181.4018 L114.4990,192.4498 Z"/></clipPath><clipPath id="p1_s822"><path d="M114.4990,192.4498 L125.5510,192.4498 L125.5510,181.4018 L114.4990,181.4018 L114.4990,192.4498 Z"/></clipPath><clipPath id="p1_s824"><path d="M114.4990,192.4498 L125.5510,192.4498 L125.5510,181.4018 L114.4990,181.4018 L114.4990,192.4498 Z"/></clipPath><clipPath id="p1_s826"><path d="M114.4990,192.4498 L125.5510,192.4498 L125.5510,181.4018 L114.4990,181.4018 L114.4990,192.4498 Z"/></clipPath><clipPath id="p1_s828"><path d="M114.4990,192.4498 L125.5510,192.4498 L125.5510,181.4018 L114.4990,181.4018 L114.4990,192.4498 Z"/></clipPath><clipPath id="p1_s830"><path d="M114.4990,192.4498 L125.5510,192.4498 L125.5510,181.4018 L114.4990,181.4018 L114.4990,192.4498 Z"/></clipPath><clipPath id="p1_s832"><path d="M114.4990,192.4498 L125.5510,192.4498 L125.5510,181.4018 L114.4990,181.4018 L114.4990,192.4498 Z"/></clipPath><clipPath id="p1_s834"><path d="M114.4990,192.4498 L125.5510,192.4498 L125.5510,181.4018 L114.4990,181.4018 L114.4990,192.4498 Z"/></clipPath><clipPath id="p1_s836"><path d="M114.4990,192.4498 L125.5510,192.4498 L125.5510,181.4018 L114.4990,181.4018 L114.4990,192.4498 Z"/></clipPath><clipPath id="p1_s838"><path d="M114.4990,192.4498 L125.5510,192.4498 L125.5510,181.4018 L114.4990,181.4018 L114.4990,192.4498 Z"/></clipPath><clipPath id="p1_s840"><path d="M114.4990,192.4498 L125.5510,192.4498 L125.5510,181.4018 L114.4990,181.4018 L114.4990,192.4498 Z"/></clipPath><clipPath id="p1_s842"><path d="M114.4990,192.4498 L125.5510,192.4498 L125.5510,181.4018 L114.4990,181.4018 L114.4990,192.4498 Z"/></clipPath><clipPath id="p1_s844"><path d="M114.4990,192.4498 L125.5510,192.4498 L125.5510,181.4018 L114.4990,181.4018 L114.4990,192.4498 Z"/></clipPath><clipPath id="p1_s846"><path d="M114.4990,192.4498 L125.5510,192.4498 L125.5510,181.4018 L114.4990,181.4018 L114.4990,192.4498 Z"/></clipPath><clipPath id="p1_s848"><path d="M114.4990,192.4498 L125.5510,192.4498 L125.5510,181.4018 L114.4990,181.4018 L114.4990,192.4498 Z"/></clipPath><clipPath id="p1_s850"><path d="M114.4990,192.4498 L125.5510,192.4498 L125.5510,181.4018 L114.4990,181.4018 L114.4990,192.4498 Z"/></clipPath><clipPath id="p1_s852"><path d="M114.4990,192.4498 L125.5510,192.4498 L125.5510,181.4018 L114.4990,181.4018 L114.4990,192.4498 Z"/></clipPath><clipPath id="p1_s854"><path d="M114.4990,192.4498 L125.5510,192.4498 L125.5510,181.4018 L114.4990,181.4018 L114.4990,192.4498 Z"/></clipPath><clipPath id="p1_s856"><path d="M114.4990,192.4498 L125.5510,192.4498 L125.5510,181.4018 L114.4990,181.4018 L114.4990,192.4498 Z"/></clipPath></svg>
